<?xml version="1.0" encoding="UTF-8" standalone="no"?>
<!DOCTYPE svg PUBLIC "-//W3C//DTD SVG 1.1//EN" "http://www.w3.org/Graphics/SVG/1.1/DTD/svg11.dtd">
<svg width="1386px" height="654px" version="1.1" xmlns="http://www.w3.org/2000/svg" xmlns:xlink="http://www.w3.org/1999/xlink" xml:space="preserve" xmlns:serif="http://www.serif.com/" style="fill-rule:evenodd;clip-rule:evenodd;stroke-linecap:round;stroke-miterlimit:10;">
    <g transform="matrix(0.721875,0,0,0.605556,0,0)">
        <rect id="Mesa-de-trabajo1" serif:id="Mesa de trabajo1" x="0" y="0" width="1920" height="1080" style="fill:none;"/>
        <g id="Mesa-de-trabajo11" serif:id="Mesa de trabajo1">
            <g transform="matrix(1.5311,0,0,1.75723,-185.409,-301.715)">
                <path d="M1338,235.759C1338,219.335 1325.16,206 1309.35,206L910.651,206C894.838,206 882,219.335 882,235.759L882,722.241C882,738.665 894.838,752 910.651,752L1309.35,752C1325.16,752 1338,738.665 1338,722.241L1338,235.759Z" style="fill:rgb(0,159,255);fill-opacity:0.2;"/>
            </g>
            <g transform="matrix(1.38528,0,0,1.65138,-214.719,-198.991)">
                <g transform="matrix(1.10526,0,0,1.0641,-778.842,-62.2051)">
                    <path d="M1338,235.759C1338,219.335 1325.16,206 1309.35,206L910.651,206C894.838,206 882,219.335 882,235.759L882,722.241C882,738.665 894.838,752 910.651,752L1309.35,752C1325.16,752 1338,738.665 1338,722.241L1338,235.759Z" style="fill:rgb(255,122,0);fill-opacity:0.2;"/>
                </g>
                <g transform="matrix(0.804688,0,0,0.804688,240,277.039)">
                    <path d="M511.416,95.279C511.416,98.781 508.936,101.772 505.58,102.502C505.142,102.648 504.778,102.72 504.34,102.72L7.66,102.72C7.222,102.72 6.858,102.648 6.42,102.502C3.064,101.773 0.584,98.781 0.584,95.279L0.73,94.55L7.442,68.724L8.828,63.398L17.364,30.276L23.273,7.441C23.273,3.356 26.629,0 30.714,0L481.285,0C485.371,0 488.727,3.356 488.727,7.441L492.448,21.887L494.637,30.276L500.109,51.36L503.246,63.398L504.559,68.724L504.632,68.724L511.271,94.55L511.416,95.279Z" style="fill:rgb(185,185,184);fill-rule:nonzero;"/>
                    <path d="M511.271,94.55C510.614,98.49 508.353,101.626 505.58,102.502C505.142,102.648 504.778,102.72 504.34,102.72L7.66,102.72C7.222,102.72 6.858,102.648 6.42,102.502C3.648,101.627 1.386,98.49 0.729,94.55L7.441,68.724L8.827,63.398L17.363,30.276L494.636,30.276L500.108,51.36L503.245,63.398L504.558,68.724L504.631,68.724L511.271,94.55Z" style="fill:rgb(4,0,0);fill-opacity:0.06;fill-rule:nonzero;"/>
                    <path d="M512,70.912L512,254.759C512,258.918 508.644,262.274 504.558,262.274L7.442,262.274C3.357,262.274 0,258.918 0,254.759L0,70.912C0,66.753 3.356,63.397 7.442,63.397L504.559,63.397C508.644,63.398 512,66.753 512,70.912Z" style="fill:rgb(209,209,209);fill-rule:nonzero;"/>
                    <path d="M512,70.912L512,76.165C512,72.079 508.717,68.796 504.632,68.723L7.442,68.723C3.356,68.723 0,72.079 0,76.165L0,70.912C0,66.753 3.356,63.397 7.442,63.397L504.559,63.397C508.644,63.398 512,66.753 512,70.912Z" style="fill:white;fill-opacity:0.2;fill-rule:nonzero;"/>
                    <g>
                        <g>
                            <path d="M21.745,94.214C16.422,94.214 12.067,89.859 12.067,84.536C12.067,79.213 16.422,74.858 21.745,74.858C27.068,74.858 31.423,79.213 31.423,84.536C31.423,89.859 27.068,94.214 21.745,94.214Z" style="fill:rgb(113,108,101);fill-rule:nonzero;"/>
                            <path d="M21.745,252.144C16.422,252.144 12.067,247.789 12.067,242.466C12.067,237.143 16.422,232.788 21.745,232.788C27.068,232.788 31.423,237.143 31.423,242.466C31.423,247.789 27.068,252.144 21.745,252.144Z" style="fill:rgb(113,108,101);fill-rule:nonzero;"/>
                        </g>
                        <g>
                            <path d="M490.256,94.214C484.933,94.214 480.578,89.859 480.578,84.536C480.578,79.213 484.933,74.858 490.256,74.858C495.579,74.858 499.934,79.213 499.934,84.536C499.934,89.859 495.579,94.214 490.256,94.214Z" style="fill:rgb(113,108,101);fill-rule:nonzero;"/>
                            <path d="M490.256,252.144C484.933,252.144 480.578,247.789 480.578,242.466C480.578,237.143 484.933,232.788 490.256,232.788C495.579,232.788 499.934,237.143 499.934,242.466C499.934,247.789 495.579,252.144 490.256,252.144Z" style="fill:rgb(113,108,101);fill-rule:nonzero;"/>
                        </g>
                    </g>
                    <g>
                        <rect x="48.653" y="77.791" width="11.731" height="174.354" style="fill:rgb(185,185,184);"/>
                        <rect x="88.949" y="77.791" width="11.731" height="174.354" style="fill:rgb(185,185,184);"/>
                        <rect x="129.246" y="77.791" width="11.731" height="174.354" style="fill:rgb(185,185,184);"/>
                        <rect x="169.542" y="77.791" width="11.731" height="174.354" style="fill:rgb(185,185,184);"/>
                        <rect x="209.838" y="77.791" width="11.731" height="174.354" style="fill:rgb(185,185,184);"/>
                        <rect x="250.135" y="77.791" width="11.731" height="174.354" style="fill:rgb(185,185,184);"/>
                        <rect x="290.431" y="77.791" width="11.731" height="174.354" style="fill:rgb(185,185,184);"/>
                        <rect x="330.727" y="77.791" width="11.731" height="174.354" style="fill:rgb(185,185,184);"/>
                        <rect x="371.024" y="77.791" width="11.731" height="174.354" style="fill:rgb(185,185,184);"/>
                        <rect x="411.32" y="77.791" width="11.731" height="174.354" style="fill:rgb(185,185,184);"/>
                        <rect x="451.616" y="77.791" width="11.731" height="174.354" style="fill:rgb(185,185,184);"/>
                    </g>
                    <rect x="451.616" y="77.791" width="3.006" height="174.354" style="fill:rgb(4,0,0);fill-opacity:0.1;"/>
                    <rect x="411.32" y="77.791" width="3.006" height="174.354" style="fill:rgb(4,0,0);fill-opacity:0.1;"/>
                    <rect x="371.024" y="77.791" width="3.006" height="174.354" style="fill:rgb(4,0,0);fill-opacity:0.1;"/>
                    <rect x="330.727" y="77.791" width="3.006" height="174.354" style="fill:rgb(4,0,0);fill-opacity:0.1;"/>
                    <rect x="290.431" y="77.791" width="3.006" height="174.354" style="fill:rgb(4,0,0);fill-opacity:0.1;"/>
                    <rect x="250.135" y="77.791" width="3.006" height="174.354" style="fill:rgb(4,0,0);fill-opacity:0.1;"/>
                    <rect x="209.838" y="77.791" width="3.006" height="174.354" style="fill:rgb(4,0,0);fill-opacity:0.1;"/>
                    <rect x="169.542" y="77.791" width="3.006" height="174.354" style="fill:rgb(4,0,0);fill-opacity:0.1;"/>
                    <rect x="129.246" y="77.791" width="3.006" height="174.354" style="fill:rgb(4,0,0);fill-opacity:0.1;"/>
                    <rect x="88.949" y="77.791" width="3.006" height="174.354" style="fill:rgb(4,0,0);fill-opacity:0.1;"/>
                    <rect x="48.653" y="77.791" width="3.006" height="174.354" style="fill:rgb(4,0,0);fill-opacity:0.1;"/>
                    <circle cx="256" cy="164.061" r="41.667" style="fill:rgb(209,209,209);"/>
                    <path d="M256,131.904C275.262,131.904 290.933,147.575 290.933,166.837C290.933,186.099 275.262,201.77 256,201.77C236.738,201.77 221.067,186.099 221.067,166.837C221.067,147.575 236.738,131.904 256,131.904Z" style="fill:rgb(244,244,245);fill-opacity:0.2;fill-rule:nonzero;"/>
                    <path d="M256,127.908C275.262,127.908 290.933,143.579 290.933,162.841C290.933,182.103 275.262,197.774 256,197.774C236.738,197.774 221.067,182.103 221.067,162.841C221.067,143.579 236.738,127.908 256,127.908Z" style="fill:rgb(86,189,194);fill-rule:nonzero;"/>
                    <g opacity="0.2">
                        <path d="M229.29,168.141C227.818,168.141 226.536,167.054 226.333,165.554C226.157,164.249 226.067,162.915 226.067,161.591C226.067,145.221 239.385,131.904 255.755,131.904C265.441,131.904 274.549,136.667 280.117,144.646C281.061,145.999 280.73,147.861 279.377,148.806C278.023,149.75 276.162,149.419 275.217,148.066C270.765,141.688 263.49,137.88 255.754,137.88C242.679,137.88 232.041,148.518 232.041,161.593C232.041,162.65 232.112,163.713 232.253,164.755C232.474,166.39 231.328,167.895 229.693,168.116C229.558,168.132 229.423,168.141 229.29,168.141Z" style="fill:white;fill-rule:nonzero;"/>
                    </g>
                    <circle cx="270.097" cy="177.395" r="10.558" style="fill:white;fill-opacity:0.1;"/>
                    <circle cx="266.668" cy="172.776" r="7.808" style="fill:white;fill-opacity:0.1;"/>
                </g>
                <g transform="matrix(0.891566,0,0,2.26984,-162.988,-506.857)">
                    <rect x="452" y="459" width="83" height="63" style="fill:rgb(255,238,0);"/>
                </g>
                <g transform="matrix(1,0,0,1,-274.225,-4.82568)">
                    <g transform="matrix(41,0,0,41,536.5,626)">
                        <path d="M0.718,-0L0.561,-0L0.499,-0.163L0.212,-0.163L0.153,-0L0,-0L0.279,-0.716L0.432,-0.716L0.718,-0ZM0.452,-0.283L0.354,-0.549L0.257,-0.283L0.452,-0.283Z" style="fill-rule:nonzero;"/>
                    </g>
                </g>
                <g transform="matrix(3.94578,0,0,1,-1458.99,156)">
                    <rect x="452" y="459" width="83" height="63" style="fill:rgb(255,122,0);"/>
                </g>
                <g transform="matrix(3.94578,0,0,1,-1458.99,76)">
                    <rect x="452" y="459" width="83" height="63" style="fill:rgb(255,175,0);"/>
                </g>
                <g transform="matrix(1,0,0,1,-220.4,25.9458)">
                    <g transform="matrix(41,0,0,41,565,635.349)">
                        <path d="M0.394,-0L0.256,-0L0.256,-0.517C0.206,-0.47 0.147,-0.436 0.079,-0.413L0.079,-0.538C0.115,-0.549 0.154,-0.572 0.196,-0.604C0.238,-0.637 0.267,-0.675 0.282,-0.719L0.394,-0.719L0.394,-0Z" style="fill-rule:nonzero;"/>
                    </g>
                    <g transform="matrix(41,0,0,41,587.802,635.349)">
                        <path d="M0.312,-0L0.312,-0.144L0.019,-0.144L0.019,-0.264L0.329,-0.719L0.444,-0.719L0.444,-0.265L0.533,-0.265L0.533,-0.144L0.444,-0.144L0.444,-0L0.312,-0ZM0.312,-0.265L0.312,-0.509L0.147,-0.265L0.312,-0.265Z" style="fill-rule:nonzero;"/>
                    </g>
                    <g transform="matrix(41,0,0,41,610.604,635.349)">
                        <path d="M0.506,-0.127L0.506,-0L0.025,-0C0.03,-0.048 0.046,-0.094 0.072,-0.137C0.098,-0.18 0.149,-0.237 0.226,-0.309C0.288,-0.366 0.326,-0.405 0.34,-0.426C0.359,-0.454 0.368,-0.482 0.368,-0.51C0.368,-0.54 0.36,-0.564 0.344,-0.58C0.327,-0.597 0.304,-0.605 0.275,-0.605C0.247,-0.605 0.224,-0.596 0.207,-0.579C0.19,-0.562 0.18,-0.533 0.178,-0.493L0.041,-0.507C0.049,-0.582 0.075,-0.637 0.118,-0.669C0.161,-0.702 0.214,-0.719 0.279,-0.719C0.349,-0.719 0.405,-0.7 0.445,-0.662C0.486,-0.624 0.506,-0.576 0.506,-0.52C0.506,-0.487 0.5,-0.457 0.489,-0.427C0.477,-0.398 0.459,-0.368 0.434,-0.336C0.417,-0.315 0.387,-0.284 0.344,-0.245C0.3,-0.205 0.273,-0.179 0.261,-0.166C0.25,-0.153 0.241,-0.14 0.233,-0.127L0.506,-0.127Z" style="fill-rule:nonzero;"/>
                    </g>
                    <g transform="matrix(41,0,0,41,633.407,635.349)">
                        <rect x="0.072" y="-0.137" width="0.137" height="0.137" style="fill-rule:nonzero;"/>
                    </g>
                    <g transform="matrix(41,0,0,41,644.798,635.349)">
                        <path d="M0.506,-0.127L0.506,-0L0.025,-0C0.03,-0.048 0.046,-0.094 0.072,-0.137C0.098,-0.18 0.149,-0.237 0.226,-0.309C0.288,-0.366 0.326,-0.405 0.34,-0.426C0.359,-0.454 0.368,-0.482 0.368,-0.51C0.368,-0.54 0.36,-0.564 0.344,-0.58C0.327,-0.597 0.304,-0.605 0.275,-0.605C0.247,-0.605 0.224,-0.596 0.207,-0.579C0.19,-0.562 0.18,-0.533 0.178,-0.493L0.041,-0.507C0.049,-0.582 0.075,-0.637 0.118,-0.669C0.161,-0.702 0.214,-0.719 0.279,-0.719C0.349,-0.719 0.405,-0.7 0.445,-0.662C0.486,-0.624 0.506,-0.576 0.506,-0.52C0.506,-0.487 0.5,-0.457 0.489,-0.427C0.477,-0.398 0.459,-0.368 0.434,-0.336C0.417,-0.315 0.387,-0.284 0.344,-0.245C0.3,-0.205 0.273,-0.179 0.261,-0.166C0.25,-0.153 0.241,-0.14 0.233,-0.127L0.506,-0.127Z" style="fill-rule:nonzero;"/>
                    </g>
                    <g transform="matrix(41,0,0,41,667.6,635.349)">
                        <path d="M0.044,-0.184L0.181,-0.198C0.185,-0.167 0.197,-0.143 0.216,-0.125C0.235,-0.107 0.257,-0.098 0.282,-0.098C0.311,-0.098 0.335,-0.109 0.355,-0.133C0.375,-0.156 0.385,-0.191 0.385,-0.238C0.385,-0.282 0.375,-0.315 0.355,-0.337C0.336,-0.359 0.31,-0.37 0.278,-0.37C0.239,-0.37 0.204,-0.352 0.172,-0.317L0.061,-0.333L0.131,-0.706L0.494,-0.706L0.494,-0.578L0.235,-0.578L0.214,-0.456C0.244,-0.471 0.276,-0.479 0.308,-0.479C0.368,-0.479 0.42,-0.457 0.462,-0.413C0.505,-0.368 0.526,-0.311 0.526,-0.24C0.526,-0.181 0.509,-0.129 0.475,-0.083C0.428,-0.019 0.363,0.012 0.281,0.012C0.215,0.012 0.161,-0.006 0.119,-0.041C0.077,-0.076 0.053,-0.124 0.044,-0.184Z" style="fill-rule:nonzero;"/>
                    </g>
                    <g transform="matrix(41,0,0,41,690.402,635.349)">
                        <path d="M0.274,-0.719C0.344,-0.719 0.398,-0.694 0.437,-0.645C0.484,-0.586 0.507,-0.489 0.507,-0.353C0.507,-0.218 0.483,-0.12 0.437,-0.061C0.398,-0.012 0.344,0.012 0.274,0.012C0.205,0.012 0.149,-0.015 0.106,-0.068C0.063,-0.122 0.042,-0.217 0.042,-0.354C0.042,-0.489 0.065,-0.586 0.112,-0.646C0.151,-0.694 0.205,-0.719 0.274,-0.719ZM0.274,-0.605C0.258,-0.605 0.243,-0.6 0.23,-0.589C0.217,-0.579 0.207,-0.56 0.2,-0.532C0.19,-0.497 0.186,-0.437 0.186,-0.353C0.186,-0.269 0.19,-0.211 0.198,-0.18C0.207,-0.149 0.217,-0.128 0.23,-0.117C0.243,-0.107 0.258,-0.102 0.274,-0.102C0.291,-0.102 0.306,-0.107 0.319,-0.117C0.332,-0.128 0.342,-0.147 0.349,-0.174C0.359,-0.209 0.363,-0.269 0.363,-0.353C0.363,-0.437 0.359,-0.495 0.351,-0.526C0.342,-0.558 0.331,-0.579 0.319,-0.589C0.306,-0.6 0.291,-0.605 0.274,-0.605Z" style="fill-rule:nonzero;"/>
                    </g>
                    <g transform="matrix(41,0,0,41,713.205,635.349)">
                        <rect x="0.072" y="-0.137" width="0.137" height="0.137" style="fill-rule:nonzero;"/>
                    </g>
                    <g transform="matrix(41,0,0,41,724.596,635.349)">
                        <path d="M0.394,-0L0.256,-0L0.256,-0.517C0.206,-0.47 0.147,-0.436 0.079,-0.413L0.079,-0.538C0.115,-0.549 0.154,-0.572 0.196,-0.604C0.238,-0.637 0.267,-0.675 0.282,-0.719L0.394,-0.719L0.394,-0Z" style="fill-rule:nonzero;"/>
                    </g>
                    <g transform="matrix(41,0,0,41,747.398,635.349)">
                        <path d="M0.16,-0.386C0.125,-0.401 0.099,-0.422 0.083,-0.448C0.067,-0.474 0.059,-0.503 0.059,-0.534C0.059,-0.588 0.077,-0.632 0.115,-0.667C0.152,-0.701 0.205,-0.719 0.273,-0.719C0.341,-0.719 0.394,-0.701 0.432,-0.667C0.469,-0.632 0.488,-0.588 0.488,-0.534C0.488,-0.501 0.48,-0.471 0.462,-0.446C0.445,-0.42 0.421,-0.4 0.39,-0.386C0.429,-0.37 0.46,-0.347 0.48,-0.316C0.501,-0.286 0.511,-0.25 0.511,-0.21C0.511,-0.144 0.49,-0.091 0.448,-0.049C0.406,-0.008 0.35,0.013 0.28,0.013C0.215,0.013 0.16,-0.004 0.117,-0.039C0.066,-0.079 0.041,-0.134 0.041,-0.205C0.041,-0.243 0.05,-0.279 0.069,-0.311C0.089,-0.344 0.119,-0.369 0.16,-0.386ZM0.188,-0.524C0.188,-0.497 0.196,-0.476 0.212,-0.46C0.227,-0.445 0.248,-0.438 0.273,-0.438C0.299,-0.438 0.32,-0.445 0.336,-0.461C0.352,-0.476 0.359,-0.498 0.359,-0.525C0.359,-0.551 0.352,-0.571 0.336,-0.587C0.321,-0.602 0.3,-0.61 0.275,-0.61C0.249,-0.61 0.228,-0.602 0.212,-0.586C0.196,-0.571 0.188,-0.55 0.188,-0.524ZM0.176,-0.218C0.176,-0.18 0.185,-0.151 0.205,-0.129C0.224,-0.108 0.248,-0.098 0.277,-0.098C0.306,-0.098 0.329,-0.108 0.348,-0.128C0.366,-0.149 0.375,-0.178 0.375,-0.216C0.375,-0.25 0.366,-0.277 0.347,-0.297C0.328,-0.317 0.304,-0.328 0.275,-0.328C0.242,-0.328 0.217,-0.316 0.2,-0.293C0.184,-0.27 0.176,-0.245 0.176,-0.218Z" style="fill-rule:nonzero;"/>
                    </g>
                    <g transform="matrix(41,0,0,41,770.2,635.349)">
                        <path d="M0.044,-0.184L0.181,-0.198C0.185,-0.167 0.197,-0.143 0.216,-0.125C0.235,-0.107 0.257,-0.098 0.282,-0.098C0.311,-0.098 0.335,-0.109 0.355,-0.133C0.375,-0.156 0.385,-0.191 0.385,-0.238C0.385,-0.282 0.375,-0.315 0.355,-0.337C0.336,-0.359 0.31,-0.37 0.278,-0.37C0.239,-0.37 0.204,-0.352 0.172,-0.317L0.061,-0.333L0.131,-0.706L0.494,-0.706L0.494,-0.578L0.235,-0.578L0.214,-0.456C0.244,-0.471 0.276,-0.479 0.308,-0.479C0.368,-0.479 0.42,-0.457 0.462,-0.413C0.505,-0.368 0.526,-0.311 0.526,-0.24C0.526,-0.181 0.509,-0.129 0.475,-0.083C0.428,-0.019 0.363,0.012 0.281,0.012C0.215,0.012 0.161,-0.006 0.119,-0.041C0.077,-0.076 0.053,-0.124 0.044,-0.184Z" style="fill-rule:nonzero;"/>
                    </g>
                    <g transform="matrix(41,0,0,41,793.002,635.349)">
                        <rect x="0.072" y="-0.137" width="0.137" height="0.137" style="fill-rule:nonzero;"/>
                    </g>
                    <g transform="matrix(41,0,0,41,804.394,635.349)">
                        <path d="M0.394,-0L0.256,-0L0.256,-0.517C0.206,-0.47 0.147,-0.436 0.079,-0.413L0.079,-0.538C0.115,-0.549 0.154,-0.572 0.196,-0.604C0.238,-0.637 0.267,-0.675 0.282,-0.719L0.394,-0.719L0.394,-0Z" style="fill-rule:nonzero;"/>
                    </g>
                    <g transform="matrix(41,0,0,41,827.196,635.349)">
                        <path d="M0.312,-0L0.312,-0.144L0.019,-0.144L0.019,-0.264L0.329,-0.719L0.444,-0.719L0.444,-0.265L0.533,-0.265L0.533,-0.144L0.444,-0.144L0.444,-0L0.312,-0ZM0.312,-0.265L0.312,-0.509L0.147,-0.265L0.312,-0.265Z" style="fill-rule:nonzero;"/>
                    </g>
                </g>
                <g transform="matrix(1,0,0,1,-220.4,-54.0542)">
                    <g transform="matrix(41,0,0,41,565,635.349)">
                        <path d="M0.174,-0.36L0.05,-0.383C0.064,-0.433 0.088,-0.47 0.122,-0.494C0.156,-0.518 0.207,-0.53 0.274,-0.53C0.336,-0.53 0.381,-0.523 0.411,-0.509C0.441,-0.494 0.462,-0.476 0.474,-0.453C0.487,-0.431 0.493,-0.39 0.493,-0.331L0.491,-0.17C0.491,-0.125 0.493,-0.091 0.498,-0.07C0.502,-0.048 0.51,-0.025 0.522,-0L0.387,-0C0.383,-0.009 0.379,-0.023 0.374,-0.041C0.371,-0.049 0.37,-0.054 0.369,-0.057C0.345,-0.034 0.32,-0.017 0.293,-0.005C0.267,0.006 0.238,0.012 0.208,0.012C0.155,0.012 0.113,-0.003 0.082,-0.032C0.051,-0.061 0.036,-0.097 0.036,-0.142C0.036,-0.171 0.043,-0.197 0.057,-0.22C0.071,-0.243 0.09,-0.26 0.115,-0.273C0.141,-0.285 0.177,-0.296 0.225,-0.305C0.289,-0.317 0.333,-0.328 0.358,-0.338L0.358,-0.352C0.358,-0.378 0.351,-0.397 0.338,-0.408C0.325,-0.42 0.301,-0.425 0.265,-0.425C0.24,-0.425 0.221,-0.42 0.208,-0.411C0.194,-0.401 0.183,-0.384 0.174,-0.36ZM0.358,-0.249C0.34,-0.243 0.313,-0.236 0.274,-0.228C0.236,-0.22 0.211,-0.212 0.2,-0.204C0.182,-0.191 0.173,-0.175 0.173,-0.156C0.173,-0.137 0.18,-0.12 0.194,-0.106C0.209,-0.092 0.227,-0.085 0.249,-0.085C0.274,-0.085 0.297,-0.093 0.32,-0.109C0.336,-0.122 0.347,-0.137 0.353,-0.155C0.356,-0.167 0.358,-0.189 0.358,-0.222L0.358,-0.249Z" style="fill-rule:nonzero;"/>
                    </g>
                    <g transform="matrix(41,0,0,41,587.802,635.349)">
                        <path d="M0.203,-0L0.066,-0L0.066,-0.519L0.193,-0.519L0.193,-0.445C0.215,-0.48 0.235,-0.503 0.252,-0.514C0.27,-0.525 0.289,-0.53 0.312,-0.53C0.343,-0.53 0.373,-0.522 0.402,-0.504L0.359,-0.385C0.336,-0.4 0.315,-0.407 0.295,-0.407C0.276,-0.407 0.259,-0.402 0.246,-0.391C0.233,-0.381 0.222,-0.362 0.215,-0.334C0.207,-0.306 0.203,-0.248 0.203,-0.16L0.203,-0Z" style="fill-rule:nonzero;"/>
                    </g>
                    <g transform="matrix(41,0,0,41,603.758,635.349)">
                        <path d="M0.067,-0L0.067,-0.716L0.204,-0.716L0.204,-0.336L0.365,-0.519L0.534,-0.519L0.356,-0.329L0.546,-0L0.398,-0L0.268,-0.233L0.204,-0.166L0.204,-0L0.067,-0Z" style="fill-rule:nonzero;"/>
                    </g>
                    <g transform="matrix(41,0,0,41,626.56,635.349)">
                        <path d="M0.174,-0.36L0.05,-0.383C0.064,-0.433 0.088,-0.47 0.122,-0.494C0.156,-0.518 0.207,-0.53 0.274,-0.53C0.336,-0.53 0.381,-0.523 0.411,-0.509C0.441,-0.494 0.462,-0.476 0.474,-0.453C0.487,-0.431 0.493,-0.39 0.493,-0.331L0.491,-0.17C0.491,-0.125 0.493,-0.091 0.498,-0.07C0.502,-0.048 0.51,-0.025 0.522,-0L0.387,-0C0.383,-0.009 0.379,-0.023 0.374,-0.041C0.371,-0.049 0.37,-0.054 0.369,-0.057C0.345,-0.034 0.32,-0.017 0.293,-0.005C0.267,0.006 0.238,0.012 0.208,0.012C0.155,0.012 0.113,-0.003 0.082,-0.032C0.051,-0.061 0.036,-0.097 0.036,-0.142C0.036,-0.171 0.043,-0.197 0.057,-0.22C0.071,-0.243 0.09,-0.26 0.115,-0.273C0.141,-0.285 0.177,-0.296 0.225,-0.305C0.289,-0.317 0.333,-0.328 0.358,-0.338L0.358,-0.352C0.358,-0.378 0.351,-0.397 0.338,-0.408C0.325,-0.42 0.301,-0.425 0.265,-0.425C0.24,-0.425 0.221,-0.42 0.208,-0.411C0.194,-0.401 0.183,-0.384 0.174,-0.36ZM0.358,-0.249C0.34,-0.243 0.313,-0.236 0.274,-0.228C0.236,-0.22 0.211,-0.212 0.2,-0.204C0.182,-0.191 0.173,-0.175 0.173,-0.156C0.173,-0.137 0.18,-0.12 0.194,-0.106C0.209,-0.092 0.227,-0.085 0.249,-0.085C0.274,-0.085 0.297,-0.093 0.32,-0.109C0.336,-0.122 0.347,-0.137 0.353,-0.155C0.356,-0.167 0.358,-0.189 0.358,-0.222L0.358,-0.249Z" style="fill-rule:nonzero;"/>
                    </g>
                    <g transform="matrix(41,0,0,41,649.362,635.349)">
                        <path d="M0.543,-0L0.406,-0L0.406,-0.265C0.406,-0.321 0.403,-0.357 0.397,-0.373C0.392,-0.39 0.382,-0.403 0.369,-0.412C0.356,-0.421 0.34,-0.425 0.321,-0.425C0.298,-0.425 0.276,-0.419 0.257,-0.406C0.238,-0.393 0.226,-0.375 0.219,-0.354C0.212,-0.333 0.208,-0.293 0.208,-0.235L0.208,-0L0.071,-0L0.071,-0.519L0.198,-0.519L0.198,-0.442C0.243,-0.501 0.3,-0.53 0.369,-0.53C0.399,-0.53 0.427,-0.525 0.452,-0.514C0.477,-0.503 0.496,-0.489 0.509,-0.472C0.522,-0.455 0.531,-0.436 0.536,-0.415C0.541,-0.393 0.543,-0.362 0.543,-0.322L0.543,-0Z" style="fill-rule:nonzero;"/>
                    </g>
                    <g transform="matrix(41,0,0,41,674.407,635.349)">
                        <path d="M0.072,-0.589L0.072,-0.716L0.209,-0.716L0.209,-0.589L0.072,-0.589ZM0.072,-0L0.072,-0.519L0.209,-0.519L0.209,-0L0.072,-0Z" style="fill-rule:nonzero;"/>
                    </g>
                    <g transform="matrix(41,0,0,41,685.798,635.349)">
                        <path d="M0.174,-0.36L0.05,-0.383C0.064,-0.433 0.088,-0.47 0.122,-0.494C0.156,-0.518 0.207,-0.53 0.274,-0.53C0.336,-0.53 0.381,-0.523 0.411,-0.509C0.441,-0.494 0.462,-0.476 0.474,-0.453C0.487,-0.431 0.493,-0.39 0.493,-0.331L0.491,-0.17C0.491,-0.125 0.493,-0.091 0.498,-0.07C0.502,-0.048 0.51,-0.025 0.522,-0L0.387,-0C0.383,-0.009 0.379,-0.023 0.374,-0.041C0.371,-0.049 0.37,-0.054 0.369,-0.057C0.345,-0.034 0.32,-0.017 0.293,-0.005C0.267,0.006 0.238,0.012 0.208,0.012C0.155,0.012 0.113,-0.003 0.082,-0.032C0.051,-0.061 0.036,-0.097 0.036,-0.142C0.036,-0.171 0.043,-0.197 0.057,-0.22C0.071,-0.243 0.09,-0.26 0.115,-0.273C0.141,-0.285 0.177,-0.296 0.225,-0.305C0.289,-0.317 0.333,-0.328 0.358,-0.338L0.358,-0.352C0.358,-0.378 0.351,-0.397 0.338,-0.408C0.325,-0.42 0.301,-0.425 0.265,-0.425C0.24,-0.425 0.221,-0.42 0.208,-0.411C0.194,-0.401 0.183,-0.384 0.174,-0.36ZM0.358,-0.249C0.34,-0.243 0.313,-0.236 0.274,-0.228C0.236,-0.22 0.211,-0.212 0.2,-0.204C0.182,-0.191 0.173,-0.175 0.173,-0.156C0.173,-0.137 0.18,-0.12 0.194,-0.106C0.209,-0.092 0.227,-0.085 0.249,-0.085C0.274,-0.085 0.297,-0.093 0.32,-0.109C0.336,-0.122 0.347,-0.137 0.353,-0.155C0.356,-0.167 0.358,-0.189 0.358,-0.222L0.358,-0.249Z" style="fill-rule:nonzero;"/>
                    </g>
                    <g transform="matrix(41,0,0,41,708.6,635.349)">
                        <rect x="0.072" y="-0.137" width="0.137" height="0.137" style="fill-rule:nonzero;"/>
                    </g>
                    <g transform="matrix(41,0,0,41,719.991,635.349)">
                        <path d="M0.372,-0.165L0.509,-0.142C0.491,-0.092 0.463,-0.054 0.426,-0.028C0.388,-0.001 0.34,0.012 0.283,0.012C0.193,0.012 0.126,-0.018 0.083,-0.077C0.049,-0.124 0.032,-0.183 0.032,-0.255C0.032,-0.341 0.054,-0.409 0.099,-0.457C0.144,-0.506 0.201,-0.53 0.27,-0.53C0.347,-0.53 0.408,-0.505 0.452,-0.454C0.497,-0.403 0.518,-0.325 0.516,-0.22L0.172,-0.22C0.173,-0.179 0.184,-0.147 0.206,-0.125C0.227,-0.102 0.253,-0.091 0.285,-0.091C0.306,-0.091 0.324,-0.097 0.339,-0.108C0.354,-0.12 0.365,-0.139 0.372,-0.165ZM0.38,-0.304C0.379,-0.343 0.369,-0.374 0.349,-0.394C0.33,-0.415 0.306,-0.425 0.278,-0.425C0.248,-0.425 0.223,-0.414 0.204,-0.393C0.184,-0.371 0.174,-0.341 0.175,-0.304L0.38,-0.304Z" style="fill-rule:nonzero;"/>
                    </g>
                    <g transform="matrix(41,0,0,41,742.793,635.349)">
                        <path d="M0.023,-0.148L0.161,-0.169C0.167,-0.142 0.179,-0.122 0.197,-0.108C0.215,-0.094 0.24,-0.087 0.272,-0.087C0.307,-0.087 0.334,-0.094 0.352,-0.107C0.364,-0.116 0.37,-0.128 0.37,-0.144C0.37,-0.154 0.367,-0.163 0.36,-0.169C0.354,-0.176 0.338,-0.182 0.314,-0.188C0.204,-0.212 0.134,-0.234 0.104,-0.254C0.063,-0.282 0.042,-0.321 0.042,-0.371C0.042,-0.416 0.06,-0.454 0.096,-0.484C0.131,-0.515 0.186,-0.53 0.261,-0.53C0.332,-0.53 0.384,-0.519 0.419,-0.496C0.453,-0.472 0.477,-0.438 0.49,-0.393L0.361,-0.369C0.355,-0.389 0.345,-0.405 0.329,-0.416C0.314,-0.426 0.292,-0.432 0.263,-0.432C0.227,-0.432 0.201,-0.427 0.186,-0.417C0.175,-0.409 0.17,-0.4 0.17,-0.389C0.17,-0.379 0.174,-0.371 0.184,-0.364C0.196,-0.355 0.239,-0.342 0.312,-0.325C0.385,-0.309 0.436,-0.288 0.465,-0.264C0.493,-0.24 0.508,-0.206 0.508,-0.162C0.508,-0.115 0.488,-0.074 0.448,-0.04C0.409,-0.005 0.35,0.012 0.272,0.012C0.201,0.012 0.145,-0.003 0.104,-0.031C0.063,-0.06 0.036,-0.099 0.023,-0.148Z" style="fill-rule:nonzero;"/>
                    </g>
                </g>
                <g transform="matrix(1,0,0,1,-517.919,-221.872)">
                    <g transform="matrix(76.7473,0,0,76.7473,882,479.937)">
                        <path d="M0.072,-0.716L0.336,-0.716C0.396,-0.716 0.441,-0.711 0.473,-0.702C0.515,-0.69 0.551,-0.668 0.581,-0.636C0.611,-0.605 0.633,-0.566 0.649,-0.52C0.665,-0.475 0.672,-0.418 0.672,-0.351C0.672,-0.292 0.665,-0.241 0.65,-0.199C0.632,-0.147 0.607,-0.104 0.574,-0.072C0.549,-0.048 0.515,-0.029 0.472,-0.015C0.44,-0.005 0.398,-0 0.344,-0L0.072,-0L0.072,-0.716ZM0.217,-0.595L0.217,-0.121L0.325,-0.121C0.365,-0.121 0.394,-0.123 0.412,-0.127C0.436,-0.133 0.455,-0.143 0.47,-0.157C0.486,-0.171 0.499,-0.194 0.508,-0.226C0.518,-0.258 0.523,-0.302 0.523,-0.357C0.523,-0.413 0.518,-0.455 0.508,-0.485C0.499,-0.514 0.485,-0.538 0.467,-0.554C0.45,-0.571 0.427,-0.582 0.4,-0.588C0.38,-0.592 0.341,-0.595 0.282,-0.595L0.217,-0.595Z" style="fill-rule:nonzero;"/>
                    </g>
                    <g transform="matrix(76.7473,0,0,76.7473,937.424,479.937)">
                        <path d="M0.074,-0L0.074,-0.716L0.215,-0.716L0.508,-0.238L0.508,-0.716L0.642,-0.716L0.642,-0L0.497,-0L0.208,-0.467L0.208,-0L0.074,-0Z" style="fill-rule:nonzero;"/>
                    </g>
                    <g transform="matrix(76.7473,0,0,76.7473,992.849,479.937)">
                        <path d="M0.036,-0.233L0.177,-0.247C0.185,-0.199 0.202,-0.165 0.228,-0.143C0.254,-0.12 0.289,-0.109 0.333,-0.109C0.38,-0.109 0.415,-0.119 0.438,-0.139C0.462,-0.159 0.474,-0.182 0.474,-0.208C0.474,-0.225 0.469,-0.239 0.459,-0.251C0.449,-0.263 0.431,-0.273 0.407,-0.282C0.39,-0.288 0.351,-0.299 0.291,-0.313C0.214,-0.333 0.159,-0.356 0.128,-0.384C0.084,-0.424 0.062,-0.472 0.062,-0.528C0.062,-0.565 0.072,-0.599 0.093,-0.631C0.114,-0.662 0.143,-0.687 0.182,-0.703C0.221,-0.72 0.268,-0.728 0.323,-0.728C0.413,-0.728 0.481,-0.708 0.526,-0.669C0.572,-0.63 0.595,-0.577 0.598,-0.511L0.453,-0.505C0.447,-0.542 0.434,-0.568 0.413,-0.584C0.393,-0.6 0.362,-0.608 0.322,-0.608C0.28,-0.608 0.247,-0.6 0.223,-0.583C0.208,-0.571 0.2,-0.557 0.2,-0.538C0.2,-0.521 0.207,-0.507 0.222,-0.495C0.24,-0.479 0.284,-0.463 0.354,-0.447C0.425,-0.43 0.477,-0.413 0.51,-0.395C0.544,-0.378 0.571,-0.353 0.59,-0.323C0.609,-0.292 0.618,-0.254 0.618,-0.208C0.618,-0.167 0.607,-0.129 0.584,-0.093C0.561,-0.057 0.529,-0.031 0.487,-0.013C0.446,0.004 0.394,0.013 0.332,0.013C0.241,0.013 0.172,-0.008 0.123,-0.05C0.075,-0.092 0.046,-0.153 0.036,-0.233Z" style="fill-rule:nonzero;"/>
                    </g>
                </g>
            </g>
            <g transform="matrix(1.38528,0,0,1.65138,-227.082,-52.4137)">
                <g transform="matrix(0.5625,0,0,0.5625,1157,228)">
                    <path d="M333.337,457.194C333.337,459.157 333.119,461.047 332.755,462.864C331.665,469.042 328.612,474.566 324.324,478.783C324.106,479 323.815,479.291 323.524,479.509C318.073,484.598 310.804,487.796 302.736,487.796L52.552,487.796C44.484,487.796 37.215,484.597 31.764,479.509C27.039,475.149 23.695,469.406 22.533,462.865C22.17,461.048 21.951,459.158 21.951,457.195C21.951,451.672 23.478,446.438 26.094,441.931C27.402,439.604 29.074,437.497 30.964,435.607C36.488,430.083 44.12,426.667 52.552,426.667L302.737,426.667C319.6,426.667 333.337,440.405 333.337,457.194Z" style="fill:rgb(159,158,159);fill-rule:nonzero;"/>
                    <path d="M344.822,482.417L344.822,509.092C344.822,510.691 343.513,512 341.914,512L13.374,512C11.775,512 10.467,510.691 10.467,509.092L10.467,482.417C10.467,480.817 11.775,479.508 13.374,479.508L341.914,479.508C343.513,479.509 344.822,480.818 344.822,482.417Z" style="fill:rgb(196,196,196);fill-rule:nonzero;"/>
                    <path d="M344.822,414.237L344.822,450.507C344.822,457.194 339.37,462.719 332.756,462.864C332.61,462.937 332.465,462.937 332.32,462.937L22.969,462.937C22.823,462.937 22.678,462.937 22.533,462.864C15.919,462.718 10.467,457.194 10.467,450.507L10.467,414.237C10.467,407.405 16.136,401.808 22.969,401.808L332.32,401.808C339.152,401.808 344.822,407.405 344.822,414.237Z" style="fill:rgb(196,196,196);fill-rule:nonzero;"/>
                    <rect x="24.677" y="412.319" width="117.478" height="29.608" style="fill:rgb(155,155,155);"/>
                    <path d="M355.288,11.558L355.288,415.11C355.288,421.143 350.709,426.086 344.822,426.594C344.458,426.667 344.095,426.667 343.732,426.667L11.557,426.667C11.194,426.667 10.83,426.667 10.467,426.594C4.579,426.086 0,421.143 0,415.11L0,11.558C0,5.233 5.16,0 11.557,0L343.732,0C350.128,0 355.288,5.233 355.288,11.558Z" style="fill:rgb(59,64,69);fill-rule:nonzero;"/>
                    <g>
                        <g>
                            <rect x="10.501" y="50.572" width="171.637" height="24.355" style="fill:rgb(51,54,59);"/>
                            <rect x="182.138" y="50.572" width="162.65" height="24.355" style="fill:rgb(42,85,130);"/>
                        </g>
                        <path d="M344.788,70.868L10.501,70.868L10.501,87.105L344.788,87.105L344.788,70.868Z" style="fill:rgb(253,254,254);fill-opacity:0.1;fill-rule:nonzero;"/>
                    </g>
                    <g>
                        <g>
                            <rect x="10.501" y="121.25" width="171.637" height="24.355" style="fill:rgb(51,54,59);"/>
                            <rect x="182.138" y="121.25" width="162.65" height="24.355" style="fill:rgb(42,85,130);"/>
                        </g>
                        <path d="M344.788,141.546L10.501,141.546L10.501,157.783L344.788,157.783L344.788,141.546Z" style="fill:rgb(253,254,254);fill-opacity:0.1;fill-rule:nonzero;"/>
                    </g>
                    <g>
                        <g>
                            <rect x="10.501" y="191.928" width="171.637" height="24.355" style="fill:rgb(51,54,59);"/>
                            <rect x="182.138" y="191.928" width="162.65" height="24.355" style="fill:rgb(42,85,130);"/>
                        </g>
                        <path d="M344.788,212.224L10.501,212.224L10.501,228.461L344.788,228.461L344.788,212.224Z" style="fill:rgb(253,254,254);fill-opacity:0.1;fill-rule:nonzero;"/>
                    </g>
                    <g opacity="0.8">
                        <path d="M177.64,351.595C162.082,351.595 146.7,350.487 130.616,348.206L128.112,347.85L127.461,345.406C121.005,321.159 121.005,302.264 127.461,278.015L128.112,275.571L130.616,275.215C146.7,272.935 162.082,271.826 177.64,271.826C193.198,271.826 208.582,272.936 224.672,275.215L227.177,275.571L227.828,278.015C234.284,302.264 234.284,321.157 227.828,345.406L227.177,347.85L224.673,348.206C208.582,350.487 193.198,351.595 177.64,351.595Z" style="fill:rgb(220,219,219);fill-rule:nonzero;"/>
                        <path d="M224.136,344.422C192.616,348.892 162.673,348.893 131.154,344.422C124.906,320.961 124.906,302.458 131.154,278.997C162.674,274.528 192.616,274.528 224.136,278.997C230.383,302.459 230.384,320.961 224.136,344.422Z" style="fill:rgb(59,64,69);fill-rule:nonzero;"/>
                        <path d="M177.642,332.082C167.432,332.082 159.126,323.776 159.126,313.566C159.126,306.931 162.709,300.763 168.478,297.47C170.003,296.6 171.947,297.13 172.819,298.656C173.69,300.182 173.159,302.125 171.633,302.997C167.843,305.16 165.489,309.21 165.489,313.567C165.489,320.268 170.941,325.72 177.642,325.72C184.346,325.72 189.8,320.268 189.8,313.567C189.8,309.209 187.444,305.157 183.651,302.992C182.125,302.121 181.594,300.178 182.466,298.652C183.337,297.126 185.281,296.595 186.806,297.467C192.578,300.762 196.163,306.931 196.163,313.567C196.163,323.775 187.855,332.082 177.642,332.082Z" style="fill:rgb(220,219,219);fill-rule:nonzero;"/>
                    </g>
                    <path d="M177.645,315.18C176.026,315.18 174.708,313.863 174.708,312.243L174.708,294.276C174.708,292.657 176.025,291.339 177.645,291.339C179.264,291.339 180.582,292.656 180.582,294.276L180.582,312.243C180.581,313.862 179.264,315.18 177.645,315.18Z" style="fill:rgb(220,219,219);fill-rule:nonzero;"/>
                    <circle cx="236.074" cy="393.535" r="13.372" style="fill:rgb(42,85,130);"/>
                    <circle cx="276.834" cy="393.535" r="13.372" style="fill:rgb(42,85,130);"/>
                    <circle cx="317.595" cy="393.535" r="13.371" style="fill:rgb(42,85,130);"/>
                </g>
                <g transform="matrix(1,0,0,1,26.0867,-74.8772)">
                    <g transform="matrix(41.91,0,0,41.91,1084,645)">
                        <path d="M0.394,-0L0.256,-0L0.256,-0.517C0.206,-0.47 0.147,-0.436 0.079,-0.413L0.079,-0.538C0.115,-0.549 0.154,-0.572 0.196,-0.604C0.238,-0.637 0.267,-0.675 0.282,-0.719L0.394,-0.719L0.394,-0Z" style="fill-rule:nonzero;"/>
                    </g>
                    <g transform="matrix(41.91,0,0,41.91,1107.31,645)">
                        <path d="M0.312,-0L0.312,-0.144L0.019,-0.144L0.019,-0.264L0.329,-0.719L0.444,-0.719L0.444,-0.265L0.533,-0.265L0.533,-0.144L0.444,-0.144L0.444,-0L0.312,-0ZM0.312,-0.265L0.312,-0.509L0.147,-0.265L0.312,-0.265Z" style="fill-rule:nonzero;"/>
                    </g>
                    <g transform="matrix(41.91,0,0,41.91,1130.62,645)">
                        <path d="M0.506,-0.127L0.506,-0L0.025,-0C0.03,-0.048 0.046,-0.094 0.072,-0.137C0.098,-0.18 0.149,-0.237 0.226,-0.309C0.288,-0.366 0.326,-0.405 0.34,-0.426C0.359,-0.454 0.368,-0.482 0.368,-0.51C0.368,-0.54 0.36,-0.564 0.344,-0.58C0.327,-0.597 0.304,-0.605 0.275,-0.605C0.247,-0.605 0.224,-0.596 0.207,-0.579C0.19,-0.562 0.18,-0.533 0.178,-0.493L0.041,-0.507C0.049,-0.582 0.075,-0.637 0.118,-0.669C0.161,-0.702 0.214,-0.719 0.279,-0.719C0.349,-0.719 0.405,-0.7 0.445,-0.662C0.486,-0.624 0.506,-0.576 0.506,-0.52C0.506,-0.487 0.5,-0.457 0.489,-0.427C0.477,-0.398 0.459,-0.368 0.434,-0.336C0.417,-0.315 0.387,-0.284 0.344,-0.245C0.3,-0.205 0.273,-0.179 0.261,-0.166C0.25,-0.153 0.241,-0.14 0.233,-0.127L0.506,-0.127Z" style="fill-rule:nonzero;"/>
                    </g>
                    <g transform="matrix(41.91,0,0,41.91,1153.92,645)">
                        <rect x="0.072" y="-0.137" width="0.137" height="0.137" style="fill-rule:nonzero;"/>
                    </g>
                    <g transform="matrix(41.91,0,0,41.91,1165.57,645)">
                        <path d="M0.506,-0.127L0.506,-0L0.025,-0C0.03,-0.048 0.046,-0.094 0.072,-0.137C0.098,-0.18 0.149,-0.237 0.226,-0.309C0.288,-0.366 0.326,-0.405 0.34,-0.426C0.359,-0.454 0.368,-0.482 0.368,-0.51C0.368,-0.54 0.36,-0.564 0.344,-0.58C0.327,-0.597 0.304,-0.605 0.275,-0.605C0.247,-0.605 0.224,-0.596 0.207,-0.579C0.19,-0.562 0.18,-0.533 0.178,-0.493L0.041,-0.507C0.049,-0.582 0.075,-0.637 0.118,-0.669C0.161,-0.702 0.214,-0.719 0.279,-0.719C0.349,-0.719 0.405,-0.7 0.445,-0.662C0.486,-0.624 0.506,-0.576 0.506,-0.52C0.506,-0.487 0.5,-0.457 0.489,-0.427C0.477,-0.398 0.459,-0.368 0.434,-0.336C0.417,-0.315 0.387,-0.284 0.344,-0.245C0.3,-0.205 0.273,-0.179 0.261,-0.166C0.25,-0.153 0.241,-0.14 0.233,-0.127L0.506,-0.127Z" style="fill-rule:nonzero;"/>
                    </g>
                    <g transform="matrix(41.91,0,0,41.91,1188.88,645)">
                        <path d="M0.044,-0.184L0.181,-0.198C0.185,-0.167 0.197,-0.143 0.216,-0.125C0.235,-0.107 0.257,-0.098 0.282,-0.098C0.311,-0.098 0.335,-0.109 0.355,-0.133C0.375,-0.156 0.385,-0.191 0.385,-0.238C0.385,-0.282 0.375,-0.315 0.355,-0.337C0.336,-0.359 0.31,-0.37 0.278,-0.37C0.239,-0.37 0.204,-0.352 0.172,-0.317L0.061,-0.333L0.131,-0.706L0.494,-0.706L0.494,-0.578L0.235,-0.578L0.214,-0.456C0.244,-0.471 0.276,-0.479 0.308,-0.479C0.368,-0.479 0.42,-0.457 0.462,-0.413C0.505,-0.368 0.526,-0.311 0.526,-0.24C0.526,-0.181 0.509,-0.129 0.475,-0.083C0.428,-0.019 0.363,0.012 0.281,0.012C0.215,0.012 0.161,-0.006 0.119,-0.041C0.077,-0.076 0.053,-0.124 0.044,-0.184Z" style="fill-rule:nonzero;"/>
                    </g>
                    <g transform="matrix(41.91,0,0,41.91,1212.19,645)">
                        <path d="M0.274,-0.719C0.344,-0.719 0.398,-0.694 0.437,-0.645C0.484,-0.586 0.507,-0.489 0.507,-0.353C0.507,-0.218 0.483,-0.12 0.437,-0.061C0.398,-0.012 0.344,0.012 0.274,0.012C0.205,0.012 0.149,-0.015 0.106,-0.068C0.063,-0.122 0.042,-0.217 0.042,-0.354C0.042,-0.489 0.065,-0.586 0.112,-0.646C0.151,-0.694 0.205,-0.719 0.274,-0.719ZM0.274,-0.605C0.258,-0.605 0.243,-0.6 0.23,-0.589C0.217,-0.579 0.207,-0.56 0.2,-0.532C0.19,-0.497 0.186,-0.437 0.186,-0.353C0.186,-0.269 0.19,-0.211 0.198,-0.18C0.207,-0.149 0.217,-0.128 0.23,-0.117C0.243,-0.107 0.258,-0.102 0.274,-0.102C0.291,-0.102 0.306,-0.107 0.319,-0.117C0.332,-0.128 0.342,-0.147 0.349,-0.174C0.359,-0.209 0.363,-0.269 0.363,-0.353C0.363,-0.437 0.359,-0.495 0.351,-0.526C0.342,-0.558 0.331,-0.579 0.319,-0.589C0.306,-0.6 0.291,-0.605 0.274,-0.605Z" style="fill-rule:nonzero;"/>
                    </g>
                    <g transform="matrix(41.91,0,0,41.91,1235.49,645)">
                        <rect x="0.072" y="-0.137" width="0.137" height="0.137" style="fill-rule:nonzero;"/>
                    </g>
                    <g transform="matrix(41.91,0,0,41.91,1247.14,645)">
                        <path d="M0.394,-0L0.256,-0L0.256,-0.517C0.206,-0.47 0.147,-0.436 0.079,-0.413L0.079,-0.538C0.115,-0.549 0.154,-0.572 0.196,-0.604C0.238,-0.637 0.267,-0.675 0.282,-0.719L0.394,-0.719L0.394,-0Z" style="fill-rule:nonzero;"/>
                    </g>
                    <g transform="matrix(41.91,0,0,41.91,1270.45,645)">
                        <path d="M0.16,-0.386C0.125,-0.401 0.099,-0.422 0.083,-0.448C0.067,-0.474 0.059,-0.503 0.059,-0.534C0.059,-0.588 0.077,-0.632 0.115,-0.667C0.152,-0.701 0.205,-0.719 0.273,-0.719C0.341,-0.719 0.394,-0.701 0.432,-0.667C0.469,-0.632 0.488,-0.588 0.488,-0.534C0.488,-0.501 0.48,-0.471 0.462,-0.446C0.445,-0.42 0.421,-0.4 0.39,-0.386C0.429,-0.37 0.46,-0.347 0.48,-0.316C0.501,-0.286 0.511,-0.25 0.511,-0.21C0.511,-0.144 0.49,-0.091 0.448,-0.049C0.406,-0.008 0.35,0.013 0.28,0.013C0.215,0.013 0.16,-0.004 0.117,-0.039C0.066,-0.079 0.041,-0.134 0.041,-0.205C0.041,-0.243 0.05,-0.279 0.069,-0.311C0.089,-0.344 0.119,-0.369 0.16,-0.386ZM0.188,-0.524C0.188,-0.497 0.196,-0.476 0.212,-0.46C0.227,-0.445 0.248,-0.438 0.273,-0.438C0.299,-0.438 0.32,-0.445 0.336,-0.461C0.352,-0.476 0.359,-0.498 0.359,-0.525C0.359,-0.551 0.352,-0.571 0.336,-0.587C0.321,-0.602 0.3,-0.61 0.275,-0.61C0.249,-0.61 0.228,-0.602 0.212,-0.586C0.196,-0.571 0.188,-0.55 0.188,-0.524ZM0.176,-0.218C0.176,-0.18 0.185,-0.151 0.205,-0.129C0.224,-0.108 0.248,-0.098 0.277,-0.098C0.306,-0.098 0.329,-0.108 0.348,-0.128C0.366,-0.149 0.375,-0.178 0.375,-0.216C0.375,-0.25 0.366,-0.277 0.347,-0.297C0.328,-0.317 0.304,-0.328 0.275,-0.328C0.242,-0.328 0.217,-0.316 0.2,-0.293C0.184,-0.27 0.176,-0.245 0.176,-0.218Z" style="fill-rule:nonzero;"/>
                    </g>
                    <g transform="matrix(41.91,0,0,41.91,1293.75,645)">
                        <path d="M0.044,-0.184L0.181,-0.198C0.185,-0.167 0.197,-0.143 0.216,-0.125C0.235,-0.107 0.257,-0.098 0.282,-0.098C0.311,-0.098 0.335,-0.109 0.355,-0.133C0.375,-0.156 0.385,-0.191 0.385,-0.238C0.385,-0.282 0.375,-0.315 0.355,-0.337C0.336,-0.359 0.31,-0.37 0.278,-0.37C0.239,-0.37 0.204,-0.352 0.172,-0.317L0.061,-0.333L0.131,-0.706L0.494,-0.706L0.494,-0.578L0.235,-0.578L0.214,-0.456C0.244,-0.471 0.276,-0.479 0.308,-0.479C0.368,-0.479 0.42,-0.457 0.462,-0.413C0.505,-0.368 0.526,-0.311 0.526,-0.24C0.526,-0.181 0.509,-0.129 0.475,-0.083C0.428,-0.019 0.363,0.012 0.281,0.012C0.215,0.012 0.161,-0.006 0.119,-0.041C0.077,-0.076 0.053,-0.124 0.044,-0.184Z" style="fill-rule:nonzero;"/>
                    </g>
                    <g transform="matrix(41.91,0,0,41.91,1317.06,645)">
                        <rect x="0.072" y="-0.137" width="0.137" height="0.137" style="fill-rule:nonzero;"/>
                    </g>
                    <g transform="matrix(41.91,0,0,41.91,1328.71,645)">
                        <path d="M0.394,-0L0.256,-0L0.256,-0.517C0.206,-0.47 0.147,-0.436 0.079,-0.413L0.079,-0.538C0.115,-0.549 0.154,-0.572 0.196,-0.604C0.238,-0.637 0.267,-0.675 0.282,-0.719L0.394,-0.719L0.394,-0Z" style="fill-rule:nonzero;"/>
                    </g>
                    <g transform="matrix(41.91,0,0,41.91,1352.02,645)">
                        <path d="M0.312,-0L0.312,-0.144L0.019,-0.144L0.019,-0.264L0.329,-0.719L0.444,-0.719L0.444,-0.265L0.533,-0.265L0.533,-0.144L0.444,-0.144L0.444,-0L0.312,-0ZM0.312,-0.265L0.312,-0.509L0.147,-0.265L0.312,-0.265Z" style="fill-rule:nonzero;"/>
                    </g>
                </g>
            </g>
            <g transform="matrix(1.38528,0,0,1.65138,93.9629,-566.932)">
                <g transform="matrix(76.7473,0,0,76.7473,882,479.937)">
                    <path d="M0.073,-0L0.073,-0.716L0.218,-0.716L0.218,-0.434L0.501,-0.434L0.501,-0.716L0.646,-0.716L0.646,-0L0.501,-0L0.501,-0.313L0.218,-0.313L0.218,-0L0.073,-0Z" style="fill-rule:nonzero;"/>
                </g>
                <g transform="matrix(76.7473,0,0,76.7473,937.424,479.937)">
                    <path d="M0.04,-0.267C0.04,-0.312 0.051,-0.356 0.074,-0.399C0.096,-0.442 0.128,-0.474 0.169,-0.497C0.21,-0.519 0.256,-0.53 0.307,-0.53C0.386,-0.53 0.45,-0.505 0.5,-0.454C0.55,-0.403 0.575,-0.339 0.575,-0.261C0.575,-0.182 0.55,-0.117 0.499,-0.066C0.449,-0.014 0.385,0.012 0.308,0.012C0.261,0.012 0.215,0.001 0.172,-0.021C0.129,-0.042 0.096,-0.073 0.074,-0.115C0.051,-0.156 0.04,-0.207 0.04,-0.267ZM0.181,-0.259C0.181,-0.208 0.193,-0.168 0.217,-0.141C0.242,-0.114 0.272,-0.1 0.308,-0.1C0.343,-0.1 0.373,-0.114 0.398,-0.141C0.422,-0.168 0.434,-0.208 0.434,-0.26C0.434,-0.311 0.422,-0.35 0.398,-0.377C0.373,-0.405 0.343,-0.418 0.308,-0.418C0.272,-0.418 0.242,-0.405 0.217,-0.377C0.193,-0.35 0.181,-0.311 0.181,-0.259Z" style="fill-rule:nonzero;"/>
                </g>
                <g transform="matrix(76.7473,0,0,76.7473,984.305,479.937)">
                    <path d="M0.023,-0.148L0.161,-0.169C0.167,-0.142 0.179,-0.122 0.197,-0.108C0.215,-0.094 0.24,-0.087 0.272,-0.087C0.307,-0.087 0.334,-0.094 0.352,-0.107C0.364,-0.116 0.37,-0.128 0.37,-0.144C0.37,-0.154 0.367,-0.163 0.36,-0.169C0.354,-0.176 0.338,-0.182 0.314,-0.188C0.204,-0.212 0.134,-0.234 0.104,-0.254C0.063,-0.282 0.042,-0.321 0.042,-0.371C0.042,-0.416 0.06,-0.454 0.096,-0.484C0.131,-0.515 0.186,-0.53 0.261,-0.53C0.332,-0.53 0.384,-0.519 0.419,-0.496C0.453,-0.472 0.477,-0.438 0.49,-0.393L0.361,-0.369C0.355,-0.389 0.345,-0.405 0.329,-0.416C0.314,-0.426 0.292,-0.432 0.263,-0.432C0.227,-0.432 0.201,-0.427 0.186,-0.417C0.175,-0.409 0.17,-0.4 0.17,-0.389C0.17,-0.379 0.174,-0.371 0.184,-0.364C0.196,-0.355 0.239,-0.342 0.312,-0.325C0.385,-0.309 0.436,-0.288 0.465,-0.264C0.493,-0.24 0.508,-0.206 0.508,-0.162C0.508,-0.115 0.488,-0.074 0.448,-0.04C0.409,-0.005 0.35,0.012 0.272,0.012C0.201,0.012 0.145,-0.003 0.104,-0.031C0.063,-0.06 0.036,-0.099 0.023,-0.148Z" style="fill-rule:nonzero;"/>
                </g>
                <g transform="matrix(76.7473,0,0,76.7473,1026.99,479.937)">
                    <path d="M0.31,-0.519L0.31,-0.409L0.216,-0.409L0.216,-0.2C0.216,-0.158 0.217,-0.133 0.219,-0.126C0.22,-0.119 0.224,-0.113 0.231,-0.109C0.237,-0.104 0.245,-0.102 0.254,-0.102C0.267,-0.102 0.285,-0.106 0.309,-0.115L0.321,-0.009C0.289,0.005 0.253,0.012 0.212,0.012C0.188,0.012 0.165,0.008 0.146,-0.001C0.126,-0.009 0.111,-0.02 0.102,-0.033C0.093,-0.046 0.086,-0.064 0.083,-0.086C0.08,-0.102 0.078,-0.135 0.078,-0.183L0.078,-0.409L0.015,-0.409L0.015,-0.519L0.078,-0.519L0.078,-0.622L0.216,-0.702L0.216,-0.519L0.31,-0.519Z" style="fill-rule:nonzero;"/>
                </g>
                <g transform="matrix(76.7473,0,0,76.7473,1052.55,479.937)">
                    <path d="M0.072,-0.589L0.072,-0.716L0.209,-0.716L0.209,-0.589L0.072,-0.589ZM0.072,-0L0.072,-0.519L0.209,-0.519L0.209,-0L0.072,-0Z" style="fill-rule:nonzero;"/>
                </g>
                <g transform="matrix(76.7473,0,0,76.7473,1073.87,479.937)">
                    <path d="M0.543,-0L0.406,-0L0.406,-0.265C0.406,-0.321 0.403,-0.357 0.397,-0.373C0.392,-0.39 0.382,-0.403 0.369,-0.412C0.356,-0.421 0.34,-0.425 0.321,-0.425C0.298,-0.425 0.276,-0.419 0.257,-0.406C0.238,-0.393 0.226,-0.375 0.219,-0.354C0.212,-0.333 0.208,-0.293 0.208,-0.235L0.208,-0L0.071,-0L0.071,-0.519L0.198,-0.519L0.198,-0.442C0.243,-0.501 0.3,-0.53 0.369,-0.53C0.399,-0.53 0.427,-0.525 0.452,-0.514C0.477,-0.503 0.496,-0.489 0.509,-0.472C0.522,-0.455 0.531,-0.436 0.536,-0.415C0.541,-0.393 0.543,-0.362 0.543,-0.322L0.543,-0Z" style="fill-rule:nonzero;"/>
                </g>
                <g transform="matrix(76.7473,0,0,76.7473,1120.75,479.937)">
                    <path d="M0.059,0.034L0.216,0.053C0.218,0.071 0.224,0.084 0.234,0.091C0.247,0.101 0.267,0.105 0.295,0.105C0.331,0.105 0.358,0.1 0.376,0.089C0.388,0.082 0.397,0.071 0.403,0.055C0.408,0.043 0.41,0.022 0.41,-0.008L0.41,-0.084C0.369,-0.028 0.317,-0 0.254,-0C0.185,-0 0.13,-0.029 0.089,-0.088C0.057,-0.135 0.041,-0.193 0.041,-0.262C0.041,-0.349 0.062,-0.416 0.104,-0.461C0.146,-0.507 0.198,-0.53 0.26,-0.53C0.324,-0.53 0.377,-0.502 0.418,-0.446L0.418,-0.519L0.547,-0.519L0.547,-0.053C0.547,0.008 0.542,0.054 0.532,0.084C0.522,0.114 0.507,0.138 0.489,0.155C0.471,0.173 0.447,0.186 0.416,0.196C0.386,0.206 0.347,0.21 0.301,0.21C0.213,0.21 0.151,0.195 0.114,0.165C0.077,0.135 0.059,0.097 0.059,0.051C0.059,0.046 0.059,0.041 0.059,0.034ZM0.182,-0.27C0.182,-0.215 0.192,-0.175 0.214,-0.149C0.235,-0.124 0.261,-0.111 0.292,-0.111C0.326,-0.111 0.354,-0.124 0.377,-0.15C0.401,-0.176 0.412,-0.215 0.412,-0.267C0.412,-0.32 0.401,-0.36 0.379,-0.386C0.357,-0.412 0.329,-0.425 0.295,-0.425C0.262,-0.425 0.235,-0.413 0.214,-0.387C0.192,-0.361 0.182,-0.322 0.182,-0.27Z" style="fill-rule:nonzero;"/>
                </g>
            </g>
            <g transform="matrix(1.38528,0,0,1.65138,-245.195,-229.449)">
                <g transform="matrix(1,-0,-0,1,177,138.944)">
                    <path d="M970.394,287.556L979.394,301.056L970.394,314.556" style="fill:none;stroke:rgb(128,128,128);stroke-width:6px;"/>
                    <path d="M497,526L663,526L663,301.056L979.394,301.056" style="fill:none;stroke:rgb(128,128,128);stroke-width:6px;stroke-linejoin:round;stroke-miterlimit:1.5;stroke-dasharray:18,12,0,0;"/>
                </g>
            </g>
        </g>
    </g>
</svg>
