<?xml version="1.0" encoding="UTF-8" standalone="no"?>
<!DOCTYPE svg PUBLIC "-//W3C//DTD SVG 1.1//EN" "http://www.w3.org/Graphics/SVG/1.1/DTD/svg11.dtd">
<svg width="100%" height="100%" viewBox="0 0 1602 1007" version="1.1" xmlns="http://www.w3.org/2000/svg" xmlns:xlink="http://www.w3.org/1999/xlink" xml:space="preserve" xmlns:serif="http://www.serif.com/" style="fill-rule:evenodd;clip-rule:evenodd;stroke-miterlimit:1.5;">
    <g transform="matrix(1,0,0,1,-168,-39)">
        <g transform="matrix(0.942081,0,0,1,40.819,0)">
            <rect x="135" y="39" width="1700" height="1007" style="fill:white;"/>
        </g>
        <g transform="matrix(1.02031,0,0,1,-25.7568,5.57375)">
            <path d="M1700,367.174C1700,341.138 1679.28,320 1653.77,320L663.235,320C637.717,320 617,341.138 617,367.174L617,701.679C617,727.715 637.717,748.853 663.235,748.853L1653.77,748.853C1679.28,748.853 1700,727.715 1700,701.679L1700,367.174Z" style="fill:rgb(217,217,217);"/>
        </g>
        <g transform="matrix(4.35938,0,0,4.35938,-2203.33,-1337.12)">
            <g transform="matrix(1,0,0,1,564,390)">
                <circle cx="32" cy="32" r="32" style="fill:rgb(35,133,190);"/>
            </g>
            <g transform="matrix(1,0,0,1,564,390)">
                <g opacity="0.2">
                    <g>
                        <path d="M52,22.9L14.5,22.9C13.1,22.9 12,24 12,25.3L12,47.5C12,48.9 13.1,50 14.5,50L49.5,50C50.9,50 52,48.9 52,47.5L52,22.9Z" style="fill:rgb(35,31,32);fill-rule:nonzero;"/>
                    </g>
                </g>
            </g>
            <g transform="matrix(1,0,0,1,564,390)">
                <g>
                    <path d="M52,20.9L14.5,20.9C13.1,20.9 12,22 12,23.3L12,45.5C12,46.9 13.1,48 14.5,48L49.5,48C50.9,48 52,46.9 52,45.5L52,20.9Z" style="fill:white;fill-rule:nonzero;"/>
                </g>
            </g>
            <g transform="matrix(1,0,0,1,564,390)">
                <path d="M52,18.5C52,17.1 50.9,16 49.5,16L37,16C35.6,16 34.5,17.1 34.5,18.5C34.5,18.5 34.2,20.8 32,21L52,21L52,18.5Z" style="fill:rgb(224,224,209);fill-rule:nonzero;"/>
            </g>
            <g transform="matrix(0.253747,0,0,0.253747,406.408,262.252)">
                <g transform="matrix(92.1391,0,0,92.1391,722,674)">
                    <path d="M0.273,0.013C0.217,0.013 0.173,0.003 0.141,-0.016C0.11,-0.036 0.087,-0.067 0.072,-0.11C0.058,-0.152 0.051,-0.21 0.051,-0.282L0.051,-0.727L0.155,-0.727L0.155,-0.282C0.155,-0.229 0.159,-0.189 0.166,-0.16C0.173,-0.132 0.185,-0.112 0.201,-0.101C0.218,-0.089 0.242,-0.084 0.273,-0.084C0.304,-0.084 0.328,-0.089 0.345,-0.101C0.362,-0.112 0.373,-0.132 0.38,-0.16C0.387,-0.189 0.391,-0.229 0.391,-0.282L0.391,-0.727L0.495,-0.727L0.495,-0.282C0.495,-0.21 0.488,-0.152 0.474,-0.11C0.46,-0.067 0.437,-0.036 0.405,-0.016C0.372,0.003 0.328,0.013 0.273,0.013Z" style="fill:rgb(35,133,190);fill-rule:nonzero;"/>
                </g>
            </g>
            <g transform="matrix(0.229391,0,0,0.229391,432.518,315.923)">
                <g transform="matrix(67.375,0,0,67.375,547,676)">
                    <path d="M0.257,0.013C0.208,0.013 0.169,0.005 0.141,-0.01C0.112,-0.024 0.092,-0.048 0.079,-0.082C0.066,-0.115 0.06,-0.161 0.06,-0.218L0.06,-0.562L0.165,-0.562L0.165,-0.218C0.165,-0.181 0.167,-0.152 0.172,-0.134C0.177,-0.115 0.187,-0.102 0.2,-0.095C0.213,-0.087 0.232,-0.084 0.257,-0.084C0.295,-0.084 0.323,-0.087 0.341,-0.093C0.36,-0.099 0.373,-0.11 0.38,-0.125C0.387,-0.14 0.391,-0.163 0.391,-0.194L0.391,-0.562L0.496,-0.562L0.496,-0L0.391,-0L0.391,-0.009C0.359,0.005 0.315,0.013 0.257,0.013Z" style="fill:rgb(35,133,190);fill-rule:nonzero;"/>
                </g>
                <g transform="matrix(67.375,0,0,67.375,583.75,676)">
                    <path d="M0.06,-0L0.06,-0.562L0.165,-0.562L0.165,-0.548C0.203,-0.566 0.247,-0.575 0.298,-0.575C0.35,-0.575 0.39,-0.567 0.418,-0.553C0.446,-0.539 0.466,-0.515 0.478,-0.481C0.49,-0.448 0.496,-0.4 0.496,-0.339L0.496,-0L0.391,-0L0.391,-0.339C0.391,-0.375 0.388,-0.403 0.382,-0.423C0.377,-0.443 0.367,-0.457 0.354,-0.465C0.341,-0.474 0.322,-0.478 0.298,-0.478C0.259,-0.478 0.23,-0.475 0.211,-0.468C0.193,-0.461 0.18,-0.448 0.174,-0.431C0.168,-0.413 0.165,-0.386 0.165,-0.349L0.165,-0L0.06,-0Z" style="fill:rgb(35,133,190);fill-rule:nonzero;"/>
                </g>
                <g transform="matrix(67.375,0,0,67.375,620.5,676)">
                    <path d="M0.332,0.013C0.288,0.013 0.252,0.005 0.225,-0.01C0.199,-0.025 0.179,-0.049 0.167,-0.082C0.154,-0.115 0.148,-0.159 0.148,-0.213L0.148,-0.476L0.035,-0.476L0.035,-0.573L0.148,-0.573L0.148,-0.727L0.253,-0.727L0.253,-0.573L0.441,-0.573L0.441,-0.476L0.253,-0.476L0.253,-0.213C0.253,-0.179 0.255,-0.153 0.26,-0.134C0.265,-0.116 0.273,-0.103 0.284,-0.095C0.295,-0.087 0.311,-0.084 0.332,-0.084C0.354,-0.084 0.37,-0.085 0.38,-0.088C0.39,-0.091 0.398,-0.097 0.402,-0.105C0.407,-0.112 0.412,-0.126 0.418,-0.145L0.516,-0.112C0.507,-0.08 0.495,-0.056 0.481,-0.038C0.466,-0.02 0.447,-0.007 0.424,0.001C0.401,0.009 0.37,0.013 0.332,0.013Z" style="fill:rgb(35,133,190);fill-rule:nonzero;"/>
                </g>
                <g transform="matrix(67.375,0,0,67.375,657.25,676)">
                    <path d="M0.085,-0L0.085,-0.562L0.189,-0.562L0.189,-0.515C0.204,-0.531 0.222,-0.545 0.245,-0.557C0.268,-0.569 0.293,-0.575 0.32,-0.575C0.355,-0.575 0.384,-0.57 0.407,-0.56C0.43,-0.551 0.45,-0.536 0.467,-0.515C0.483,-0.494 0.498,-0.465 0.512,-0.428L0.418,-0.385C0.41,-0.412 0.402,-0.432 0.395,-0.445C0.387,-0.457 0.378,-0.466 0.367,-0.471C0.356,-0.476 0.34,-0.478 0.32,-0.478C0.273,-0.478 0.239,-0.462 0.219,-0.43C0.199,-0.397 0.189,-0.35 0.189,-0.288L0.189,-0L0.085,-0Z" style="fill:rgb(35,133,190);fill-rule:nonzero;"/>
                </g>
                <g transform="matrix(67.375,0,0,67.375,694,676)">
                    <path d="M0.249,0.013C0.196,0.013 0.153,0.007 0.121,-0.005C0.09,-0.018 0.067,-0.037 0.052,-0.062C0.038,-0.088 0.031,-0.122 0.031,-0.165C0.031,-0.214 0.038,-0.251 0.052,-0.278C0.066,-0.304 0.088,-0.323 0.12,-0.333C0.151,-0.344 0.194,-0.349 0.249,-0.349L0.364,-0.349L0.364,-0.369C0.364,-0.395 0.36,-0.414 0.354,-0.428C0.348,-0.442 0.336,-0.452 0.32,-0.458C0.304,-0.463 0.28,-0.466 0.249,-0.466C0.224,-0.466 0.204,-0.464 0.191,-0.459C0.178,-0.453 0.167,-0.444 0.16,-0.431C0.153,-0.418 0.146,-0.397 0.139,-0.37L0.039,-0.395C0.05,-0.438 0.064,-0.472 0.08,-0.498C0.096,-0.524 0.118,-0.543 0.145,-0.556C0.173,-0.568 0.207,-0.575 0.249,-0.575C0.328,-0.575 0.384,-0.558 0.418,-0.524C0.451,-0.49 0.468,-0.439 0.468,-0.369L0.468,-0.156C0.468,-0.132 0.471,-0.115 0.475,-0.107C0.48,-0.099 0.491,-0.095 0.506,-0.095C0.511,-0.095 0.522,-0.096 0.539,-0.097L0.539,-0.001C0.532,-0 0.522,-0 0.509,-0C0.456,-0 0.42,-0.012 0.4,-0.036C0.384,-0.019 0.363,-0.006 0.339,0.001C0.315,0.009 0.285,0.013 0.249,0.013ZM0.249,-0.084C0.28,-0.084 0.304,-0.087 0.32,-0.095C0.336,-0.102 0.348,-0.114 0.354,-0.132C0.36,-0.149 0.364,-0.175 0.364,-0.208L0.364,-0.253L0.249,-0.253C0.215,-0.253 0.19,-0.251 0.175,-0.248C0.161,-0.244 0.151,-0.237 0.145,-0.225C0.138,-0.213 0.135,-0.193 0.135,-0.165C0.135,-0.143 0.138,-0.126 0.145,-0.115C0.151,-0.104 0.162,-0.096 0.178,-0.091C0.194,-0.086 0.218,-0.084 0.249,-0.084Z" style="fill:rgb(35,133,190);fill-rule:nonzero;"/>
                </g>
                <g transform="matrix(67.375,0,0,67.375,730.75,676)">
                    <path d="M0.289,0.013C0.228,0.013 0.181,0.003 0.145,-0.017C0.11,-0.037 0.085,-0.068 0.07,-0.11C0.054,-0.152 0.046,-0.209 0.046,-0.281C0.046,-0.352 0.054,-0.409 0.07,-0.452C0.085,-0.494 0.111,-0.525 0.146,-0.545C0.182,-0.565 0.231,-0.575 0.293,-0.575C0.345,-0.575 0.388,-0.565 0.419,-0.546C0.451,-0.528 0.481,-0.494 0.51,-0.446L0.423,-0.395C0.408,-0.418 0.395,-0.436 0.384,-0.447C0.373,-0.459 0.36,-0.467 0.347,-0.471C0.333,-0.476 0.315,-0.478 0.293,-0.478C0.255,-0.478 0.226,-0.472 0.206,-0.46C0.186,-0.449 0.171,-0.429 0.163,-0.401C0.155,-0.373 0.151,-0.333 0.151,-0.281C0.151,-0.229 0.155,-0.189 0.163,-0.161C0.171,-0.133 0.185,-0.113 0.205,-0.101C0.224,-0.09 0.252,-0.084 0.289,-0.084C0.311,-0.084 0.329,-0.086 0.343,-0.091C0.357,-0.096 0.37,-0.104 0.382,-0.116C0.394,-0.128 0.408,-0.145 0.424,-0.169L0.51,-0.116C0.48,-0.068 0.449,-0.034 0.417,-0.015C0.385,0.003 0.342,0.013 0.289,0.013Z" style="fill:rgb(35,133,190);fill-rule:nonzero;"/>
                </g>
                <g transform="matrix(67.375,0,0,67.375,767.5,676)">
                    <path d="M0.19,-0L0.085,-0L0.085,-0.727L0.19,-0.727L0.19,-0.349L0.192,-0.349L0.375,-0.562L0.501,-0.562L0.285,-0.303L0.537,-0L0.411,-0L0.195,-0.253L0.19,-0.253L0.19,-0Z" style="fill:rgb(35,133,190);fill-rule:nonzero;"/>
                </g>
                <g transform="matrix(67.375,0,0,67.375,804.25,676)">
                    <path d="M0.275,-0.575C0.334,-0.575 0.38,-0.564 0.413,-0.542C0.446,-0.521 0.47,-0.487 0.483,-0.44C0.497,-0.394 0.503,-0.332 0.502,-0.253L0.141,-0.253C0.143,-0.209 0.148,-0.175 0.157,-0.151C0.166,-0.127 0.179,-0.109 0.198,-0.099C0.217,-0.089 0.243,-0.084 0.275,-0.084C0.299,-0.084 0.318,-0.086 0.333,-0.09C0.348,-0.095 0.362,-0.103 0.374,-0.115C0.387,-0.127 0.401,-0.145 0.418,-0.168L0.502,-0.113C0.472,-0.066 0.44,-0.033 0.406,-0.015C0.373,0.003 0.329,0.013 0.275,0.013C0.215,0.013 0.168,0.003 0.133,-0.017C0.098,-0.037 0.073,-0.068 0.058,-0.111C0.043,-0.153 0.035,-0.21 0.035,-0.281C0.035,-0.352 0.043,-0.408 0.058,-0.451C0.073,-0.493 0.098,-0.525 0.133,-0.545C0.168,-0.565 0.215,-0.575 0.275,-0.575ZM0.395,-0.349C0.391,-0.382 0.385,-0.408 0.377,-0.426C0.369,-0.445 0.357,-0.458 0.34,-0.466C0.324,-0.474 0.303,-0.478 0.275,-0.478C0.245,-0.478 0.221,-0.474 0.203,-0.466C0.185,-0.458 0.171,-0.445 0.161,-0.426C0.152,-0.408 0.146,-0.382 0.143,-0.349L0.395,-0.349Z" style="fill:rgb(35,133,190);fill-rule:nonzero;"/>
                </g>
                <g transform="matrix(67.375,0,0,67.375,841,676)">
                    <path d="M0.268,0.013C0.212,0.013 0.167,0.003 0.135,-0.017C0.103,-0.037 0.079,-0.068 0.065,-0.11C0.051,-0.152 0.044,-0.209 0.044,-0.28C0.044,-0.352 0.051,-0.408 0.065,-0.451C0.079,-0.493 0.103,-0.525 0.135,-0.545C0.167,-0.565 0.212,-0.575 0.268,-0.575C0.311,-0.575 0.352,-0.567 0.39,-0.553L0.39,-0.727L0.495,-0.727L0.495,-0L0.39,-0L0.39,-0.006C0.355,0.006 0.314,0.013 0.268,0.013ZM0.268,-0.084C0.31,-0.084 0.341,-0.088 0.36,-0.098C0.38,-0.107 0.39,-0.12 0.39,-0.136L0.39,-0.351C0.39,-0.395 0.38,-0.427 0.361,-0.447C0.342,-0.468 0.311,-0.478 0.268,-0.478C0.237,-0.478 0.212,-0.472 0.195,-0.46C0.178,-0.448 0.166,-0.428 0.159,-0.4C0.152,-0.371 0.148,-0.332 0.148,-0.28C0.148,-0.228 0.152,-0.189 0.159,-0.161C0.166,-0.133 0.178,-0.113 0.195,-0.101C0.212,-0.09 0.237,-0.084 0.268,-0.084Z" style="fill:rgb(35,133,190);fill-rule:nonzero;"/>
                </g>
            </g>
        </g>
        <g transform="matrix(2.73352,0,0,2.73352,-1242.4,-288.444)">
            <g transform="matrix(1,0,0,1,564,390)">
                <circle cx="32" cy="32" r="32" style="fill:rgb(35,180,190);"/>
            </g>
            <g transform="matrix(1,0,0,1,564,390)">
                <g opacity="0.2">
                    <g>
                        <path d="M52,22.9L14.5,22.9C13.1,22.9 12,24 12,25.3L12,47.5C12,48.9 13.1,50 14.5,50L49.5,50C50.9,50 52,48.9 52,47.5L52,22.9Z" style="fill:rgb(35,31,32);fill-rule:nonzero;"/>
                    </g>
                </g>
            </g>
            <g transform="matrix(1,0,0,1,564,390)">
                <g>
                    <path d="M52,20.9L14.5,20.9C13.1,20.9 12,22 12,23.3L12,45.5C12,46.9 13.1,48 14.5,48L49.5,48C50.9,48 52,46.9 52,45.5L52,20.9Z" style="fill:white;fill-rule:nonzero;"/>
                </g>
            </g>
            <g transform="matrix(1,0,0,1,564,390)">
                <path d="M52,18.5C52,17.1 50.9,16 49.5,16L37,16C35.6,16 34.5,17.1 34.5,18.5C34.5,18.5 34.2,20.8 32,21L52,21L52,18.5Z" style="fill:rgb(224,224,209);fill-rule:nonzero;"/>
            </g>
            <g transform="matrix(0.253747,0,0,0.253747,406.408,262.252)">
                <g transform="matrix(92.1391,0,0,92.1391,722,674)">
                    <path d="M0.473,-0.727L0.473,-0.631L0.325,-0.631L0.325,-0.096L0.473,-0.096L0.473,-0L0.074,-0L0.074,-0.096L0.221,-0.096L0.221,-0.631L0.074,-0.631L0.074,-0.727L0.473,-0.727Z" style="fill:rgb(35,180,190);fill-rule:nonzero;"/>
                </g>
            </g>
            <g transform="matrix(0.229391,0,0,0.229391,432.518,315.923)">
                <g transform="matrix(67.375,0,0,67.375,583.75,676)">
                    <path d="M0.349,-0.562L0.349,-0.096L0.508,-0.096L0.508,-0L0.085,-0L0.085,-0.096L0.245,-0.096L0.245,-0.465L0.13,-0.465L0.13,-0.562L0.349,-0.562ZM0.28,-0.644C0.25,-0.644 0.229,-0.649 0.218,-0.66C0.207,-0.67 0.201,-0.69 0.201,-0.718C0.201,-0.747 0.207,-0.766 0.218,-0.777C0.229,-0.787 0.25,-0.793 0.28,-0.793C0.31,-0.793 0.331,-0.787 0.343,-0.777C0.354,-0.766 0.36,-0.747 0.36,-0.718C0.36,-0.69 0.354,-0.67 0.343,-0.66C0.331,-0.649 0.31,-0.644 0.28,-0.644Z" style="fill:rgb(35,180,190);fill-rule:nonzero;"/>
                </g>
                <g transform="matrix(67.375,0,0,67.375,620.5,676)">
                    <path d="M0.271,0.178C0.228,0.178 0.195,0.172 0.17,0.161C0.144,0.149 0.119,0.129 0.095,0.099L0.171,0.034C0.188,0.054 0.202,0.067 0.214,0.073C0.226,0.079 0.245,0.082 0.271,0.082C0.302,0.082 0.325,0.078 0.342,0.07C0.358,0.063 0.37,0.05 0.376,0.031C0.383,0.013 0.386,-0.014 0.386,-0.05L0.386,-0.052C0.348,-0.037 0.308,-0.03 0.265,-0.03C0.208,-0.03 0.164,-0.04 0.131,-0.06C0.098,-0.081 0.075,-0.113 0.06,-0.157C0.046,-0.202 0.039,-0.261 0.039,-0.336C0.039,-0.393 0.047,-0.439 0.061,-0.474C0.076,-0.508 0.1,-0.534 0.133,-0.55C0.165,-0.566 0.209,-0.575 0.265,-0.575C0.309,-0.575 0.35,-0.568 0.386,-0.556L0.386,-0.562L0.491,-0.562L0.491,-0.058C0.491,0 0.484,0.046 0.47,0.08C0.455,0.114 0.432,0.139 0.4,0.155C0.369,0.17 0.325,0.178 0.271,0.178ZM0.265,-0.126C0.308,-0.126 0.339,-0.137 0.358,-0.157C0.377,-0.178 0.386,-0.21 0.386,-0.254L0.386,-0.425C0.386,-0.442 0.377,-0.455 0.357,-0.464C0.337,-0.473 0.306,-0.478 0.265,-0.478C0.232,-0.478 0.208,-0.474 0.191,-0.465C0.174,-0.457 0.162,-0.443 0.155,-0.422C0.148,-0.402 0.145,-0.373 0.145,-0.336C0.145,-0.281 0.148,-0.238 0.155,-0.208C0.163,-0.178 0.175,-0.157 0.192,-0.145C0.209,-0.133 0.233,-0.126 0.265,-0.126Z" style="fill:rgb(35,180,190);fill-rule:nonzero;"/>
                </g>
                <g transform="matrix(67.375,0,0,67.375,657.25,676)">
                    <path d="M0.06,-0L0.06,-0.562L0.165,-0.562L0.165,-0.548C0.203,-0.566 0.247,-0.575 0.298,-0.575C0.35,-0.575 0.39,-0.567 0.418,-0.553C0.446,-0.539 0.466,-0.515 0.478,-0.481C0.49,-0.448 0.496,-0.4 0.496,-0.339L0.496,-0L0.391,-0L0.391,-0.339C0.391,-0.375 0.388,-0.403 0.382,-0.423C0.377,-0.443 0.367,-0.457 0.354,-0.465C0.341,-0.474 0.322,-0.478 0.298,-0.478C0.259,-0.478 0.23,-0.475 0.211,-0.468C0.193,-0.461 0.18,-0.448 0.174,-0.431C0.168,-0.413 0.165,-0.386 0.165,-0.349L0.165,-0L0.06,-0Z" style="fill:rgb(35,180,190);fill-rule:nonzero;"/>
                </g>
                <g transform="matrix(67.375,0,0,67.375,694,676)">
                    <path d="M0.273,0.013C0.216,0.013 0.172,0.003 0.14,-0.017C0.107,-0.037 0.084,-0.068 0.07,-0.111C0.055,-0.153 0.048,-0.21 0.048,-0.281C0.048,-0.352 0.055,-0.408 0.07,-0.451C0.084,-0.493 0.107,-0.525 0.14,-0.545C0.172,-0.565 0.216,-0.575 0.273,-0.575C0.329,-0.575 0.374,-0.565 0.406,-0.545C0.439,-0.525 0.463,-0.493 0.477,-0.451C0.491,-0.408 0.498,-0.352 0.498,-0.281C0.498,-0.21 0.491,-0.153 0.477,-0.111C0.463,-0.068 0.439,-0.037 0.406,-0.017C0.374,0.003 0.329,0.013 0.273,0.013ZM0.273,-0.084C0.304,-0.084 0.329,-0.09 0.346,-0.101C0.363,-0.113 0.375,-0.133 0.383,-0.161C0.39,-0.19 0.394,-0.229 0.394,-0.281C0.394,-0.332 0.39,-0.372 0.383,-0.4C0.375,-0.429 0.363,-0.449 0.346,-0.46C0.329,-0.472 0.304,-0.478 0.273,-0.478C0.241,-0.478 0.217,-0.472 0.2,-0.46C0.183,-0.449 0.171,-0.429 0.164,-0.4C0.156,-0.372 0.153,-0.332 0.153,-0.281C0.153,-0.229 0.156,-0.19 0.164,-0.161C0.171,-0.133 0.183,-0.113 0.2,-0.101C0.217,-0.09 0.241,-0.084 0.273,-0.084Z" style="fill:rgb(35,180,190);fill-rule:nonzero;"/>
                </g>
                <g transform="matrix(67.375,0,0,67.375,730.75,676)">
                    <path d="M0.085,-0L0.085,-0.562L0.189,-0.562L0.189,-0.515C0.204,-0.531 0.222,-0.545 0.245,-0.557C0.268,-0.569 0.293,-0.575 0.32,-0.575C0.355,-0.575 0.384,-0.57 0.407,-0.56C0.43,-0.551 0.45,-0.536 0.467,-0.515C0.483,-0.494 0.498,-0.465 0.512,-0.428L0.418,-0.385C0.41,-0.412 0.402,-0.432 0.395,-0.445C0.387,-0.457 0.378,-0.466 0.367,-0.471C0.356,-0.476 0.34,-0.478 0.32,-0.478C0.273,-0.478 0.239,-0.462 0.219,-0.43C0.199,-0.397 0.189,-0.35 0.189,-0.288L0.189,-0L0.085,-0Z" style="fill:rgb(35,180,190);fill-rule:nonzero;"/>
                </g>
                <g transform="matrix(67.375,0,0,67.375,767.5,676)">
                    <path d="M0.275,-0.575C0.334,-0.575 0.38,-0.564 0.413,-0.542C0.446,-0.521 0.47,-0.487 0.483,-0.44C0.497,-0.394 0.503,-0.332 0.502,-0.253L0.141,-0.253C0.143,-0.209 0.148,-0.175 0.157,-0.151C0.166,-0.127 0.179,-0.109 0.198,-0.099C0.217,-0.089 0.243,-0.084 0.275,-0.084C0.299,-0.084 0.318,-0.086 0.333,-0.09C0.348,-0.095 0.362,-0.103 0.374,-0.115C0.387,-0.127 0.401,-0.145 0.418,-0.168L0.502,-0.113C0.472,-0.066 0.44,-0.033 0.406,-0.015C0.373,0.003 0.329,0.013 0.275,0.013C0.215,0.013 0.168,0.003 0.133,-0.017C0.098,-0.037 0.073,-0.068 0.058,-0.111C0.043,-0.153 0.035,-0.21 0.035,-0.281C0.035,-0.352 0.043,-0.408 0.058,-0.451C0.073,-0.493 0.098,-0.525 0.133,-0.545C0.168,-0.565 0.215,-0.575 0.275,-0.575ZM0.395,-0.349C0.391,-0.382 0.385,-0.408 0.377,-0.426C0.369,-0.445 0.357,-0.458 0.34,-0.466C0.324,-0.474 0.303,-0.478 0.275,-0.478C0.245,-0.478 0.221,-0.474 0.203,-0.466C0.185,-0.458 0.171,-0.445 0.161,-0.426C0.152,-0.408 0.146,-0.382 0.143,-0.349L0.395,-0.349Z" style="fill:rgb(35,180,190);fill-rule:nonzero;"/>
                </g>
                <g transform="matrix(67.375,0,0,67.375,804.25,676)">
                    <path d="M0.268,0.013C0.212,0.013 0.167,0.003 0.135,-0.017C0.103,-0.037 0.079,-0.068 0.065,-0.11C0.051,-0.152 0.044,-0.209 0.044,-0.28C0.044,-0.352 0.051,-0.408 0.065,-0.451C0.079,-0.493 0.103,-0.525 0.135,-0.545C0.167,-0.565 0.212,-0.575 0.268,-0.575C0.311,-0.575 0.352,-0.567 0.39,-0.553L0.39,-0.727L0.495,-0.727L0.495,-0L0.39,-0L0.39,-0.006C0.355,0.006 0.314,0.013 0.268,0.013ZM0.268,-0.084C0.31,-0.084 0.341,-0.088 0.36,-0.098C0.38,-0.107 0.39,-0.12 0.39,-0.136L0.39,-0.351C0.39,-0.395 0.38,-0.427 0.361,-0.447C0.342,-0.468 0.311,-0.478 0.268,-0.478C0.237,-0.478 0.212,-0.472 0.195,-0.46C0.178,-0.448 0.166,-0.428 0.159,-0.4C0.152,-0.371 0.148,-0.332 0.148,-0.28C0.148,-0.228 0.152,-0.189 0.159,-0.161C0.166,-0.133 0.178,-0.113 0.195,-0.101C0.212,-0.09 0.237,-0.084 0.268,-0.084Z" style="fill:rgb(35,180,190);fill-rule:nonzero;"/>
                </g>
            </g>
        </g>
        <g transform="matrix(4.35938,0,0,4.35938,-1813.09,-1337.12)">
            <g transform="matrix(1,0,0,1,564,390)">
                <circle cx="32" cy="32" r="32" style="fill:rgb(183,48,94);"/>
            </g>
            <g transform="matrix(1,0,0,1,564,390)">
                <g opacity="0.2">
                    <g>
                        <path d="M52,22.9L14.5,22.9C13.1,22.9 12,24 12,25.3L12,47.5C12,48.9 13.1,50 14.5,50L49.5,50C50.9,50 52,48.9 52,47.5L52,22.9Z" style="fill:rgb(35,31,32);fill-rule:nonzero;"/>
                    </g>
                </g>
            </g>
            <g transform="matrix(1,0,0,1,564,390)">
                <g>
                    <path d="M52,20.9L14.5,20.9C13.1,20.9 12,22 12,23.3L12,45.5C12,46.9 13.1,48 14.5,48L49.5,48C50.9,48 52,46.9 52,45.5L52,20.9Z" style="fill:white;fill-rule:nonzero;"/>
                </g>
            </g>
            <g transform="matrix(1,0,0,1,564,390)">
                <path d="M52,18.5C52,17.1 50.9,16 49.5,16L37,16C35.6,16 34.5,17.1 34.5,18.5C34.5,18.5 34.2,20.8 32,21L52,21L52,18.5Z" style="fill:rgb(224,224,209);fill-rule:nonzero;"/>
            </g>
            <g transform="matrix(0.253747,0,0,0.253747,406.408,262.252)">
                <g transform="matrix(92.1391,0,0,92.1391,722,674)">
                    <path d="M0.13,-0L0.025,-0L0.038,-0.727L0.135,-0.727L0.273,-0.386L0.411,-0.727L0.508,-0.727L0.521,-0L0.416,-0L0.407,-0.456L0.316,-0.211L0.229,-0.211L0.138,-0.456L0.13,-0Z" style="fill:rgb(183,48,94);fill-rule:nonzero;"/>
                </g>
            </g>
            <g transform="matrix(0.229391,0,0,0.229391,432.518,315.923)">
                <g transform="matrix(67.375,0,0,67.375,565.375,676)">
                    <path d="M0.022,-0L0.022,-0.562L0.126,-0.562L0.126,-0.565C0.154,-0.571 0.175,-0.574 0.192,-0.574C0.215,-0.574 0.233,-0.57 0.246,-0.564C0.259,-0.558 0.272,-0.546 0.284,-0.528C0.299,-0.546 0.315,-0.558 0.33,-0.564C0.344,-0.57 0.365,-0.574 0.39,-0.574C0.425,-0.574 0.451,-0.567 0.47,-0.552C0.49,-0.538 0.503,-0.514 0.511,-0.481C0.52,-0.448 0.524,-0.401 0.524,-0.342L0.524,-0L0.419,-0L0.419,-0.342C0.419,-0.39 0.417,-0.424 0.412,-0.442C0.407,-0.46 0.398,-0.469 0.385,-0.469C0.369,-0.469 0.358,-0.466 0.349,-0.459C0.341,-0.452 0.335,-0.44 0.331,-0.423C0.327,-0.406 0.325,-0.382 0.325,-0.352L0.325,-0L0.221,-0L0.221,-0.336C0.221,-0.387 0.218,-0.421 0.213,-0.44C0.208,-0.46 0.199,-0.469 0.186,-0.469C0.171,-0.469 0.158,-0.466 0.15,-0.459C0.142,-0.452 0.135,-0.44 0.132,-0.423C0.128,-0.406 0.126,-0.382 0.126,-0.352L0.126,-0L0.022,-0Z" style="fill:rgb(183,48,94);fill-rule:nonzero;"/>
                </g>
                <g transform="matrix(67.375,0,0,67.375,602.125,676)">
                    <path d="M0.273,0.013C0.216,0.013 0.172,0.003 0.14,-0.017C0.107,-0.037 0.084,-0.068 0.07,-0.111C0.055,-0.153 0.048,-0.21 0.048,-0.281C0.048,-0.352 0.055,-0.408 0.07,-0.451C0.084,-0.493 0.107,-0.525 0.14,-0.545C0.172,-0.565 0.216,-0.575 0.273,-0.575C0.329,-0.575 0.374,-0.565 0.406,-0.545C0.439,-0.525 0.463,-0.493 0.477,-0.451C0.491,-0.408 0.498,-0.352 0.498,-0.281C0.498,-0.21 0.491,-0.153 0.477,-0.111C0.463,-0.068 0.439,-0.037 0.406,-0.017C0.374,0.003 0.329,0.013 0.273,0.013ZM0.273,-0.084C0.304,-0.084 0.329,-0.09 0.346,-0.101C0.363,-0.113 0.375,-0.133 0.383,-0.161C0.39,-0.19 0.394,-0.229 0.394,-0.281C0.394,-0.332 0.39,-0.372 0.383,-0.4C0.375,-0.429 0.363,-0.449 0.346,-0.46C0.329,-0.472 0.304,-0.478 0.273,-0.478C0.241,-0.478 0.217,-0.472 0.2,-0.46C0.183,-0.449 0.171,-0.429 0.164,-0.4C0.156,-0.372 0.153,-0.332 0.153,-0.281C0.153,-0.229 0.156,-0.19 0.164,-0.161C0.171,-0.133 0.183,-0.113 0.2,-0.101C0.217,-0.09 0.241,-0.084 0.273,-0.084Z" style="fill:rgb(183,48,94);fill-rule:nonzero;"/>
                </g>
                <g transform="matrix(67.375,0,0,67.375,638.875,676)">
                    <path d="M0.268,0.013C0.212,0.013 0.167,0.003 0.135,-0.017C0.103,-0.037 0.079,-0.068 0.065,-0.11C0.051,-0.152 0.044,-0.209 0.044,-0.28C0.044,-0.352 0.051,-0.408 0.065,-0.451C0.079,-0.493 0.103,-0.525 0.135,-0.545C0.167,-0.565 0.212,-0.575 0.268,-0.575C0.311,-0.575 0.352,-0.567 0.39,-0.553L0.39,-0.727L0.495,-0.727L0.495,-0L0.39,-0L0.39,-0.006C0.355,0.006 0.314,0.013 0.268,0.013ZM0.268,-0.084C0.31,-0.084 0.341,-0.088 0.36,-0.098C0.38,-0.107 0.39,-0.12 0.39,-0.136L0.39,-0.351C0.39,-0.395 0.38,-0.427 0.361,-0.447C0.342,-0.468 0.311,-0.478 0.268,-0.478C0.237,-0.478 0.212,-0.472 0.195,-0.46C0.178,-0.448 0.166,-0.428 0.159,-0.4C0.152,-0.371 0.148,-0.332 0.148,-0.28C0.148,-0.228 0.152,-0.189 0.159,-0.161C0.166,-0.133 0.178,-0.113 0.195,-0.101C0.212,-0.09 0.237,-0.084 0.268,-0.084Z" style="fill:rgb(183,48,94);fill-rule:nonzero;"/>
                </g>
                <g transform="matrix(67.375,0,0,67.375,675.625,676)">
                    <path d="M0.349,-0.562L0.349,-0.096L0.508,-0.096L0.508,-0L0.085,-0L0.085,-0.096L0.245,-0.096L0.245,-0.465L0.13,-0.465L0.13,-0.562L0.349,-0.562ZM0.28,-0.644C0.25,-0.644 0.229,-0.649 0.218,-0.66C0.207,-0.67 0.201,-0.69 0.201,-0.718C0.201,-0.747 0.207,-0.766 0.218,-0.777C0.229,-0.787 0.25,-0.793 0.28,-0.793C0.31,-0.793 0.331,-0.787 0.343,-0.777C0.354,-0.766 0.36,-0.747 0.36,-0.718C0.36,-0.69 0.354,-0.67 0.343,-0.66C0.331,-0.649 0.31,-0.644 0.28,-0.644Z" style="fill:rgb(183,48,94);fill-rule:nonzero;"/>
                </g>
                <g transform="matrix(67.375,0,0,67.375,712.375,676)">
                    <path d="M0.347,-0.74C0.388,-0.74 0.421,-0.736 0.446,-0.728C0.471,-0.72 0.491,-0.707 0.506,-0.69C0.521,-0.672 0.532,-0.647 0.541,-0.615L0.443,-0.582C0.438,-0.601 0.433,-0.614 0.428,-0.622C0.423,-0.63 0.414,-0.635 0.403,-0.639C0.391,-0.642 0.373,-0.644 0.347,-0.644C0.32,-0.644 0.3,-0.64 0.286,-0.634C0.273,-0.628 0.264,-0.617 0.258,-0.6C0.253,-0.584 0.25,-0.56 0.25,-0.527L0.25,-0.475L0.412,-0.475L0.412,-0.378L0.25,-0.378L0.25,-0L0.145,-0L0.145,-0.378L0.033,-0.378L0.033,-0.475L0.145,-0.475L0.145,-0.527C0.145,-0.58 0.152,-0.622 0.165,-0.652C0.178,-0.683 0.199,-0.705 0.229,-0.719C0.258,-0.733 0.298,-0.74 0.347,-0.74Z" style="fill:rgb(183,48,94);fill-rule:nonzero;"/>
                </g>
                <g transform="matrix(67.375,0,0,67.375,749.125,676)">
                    <path d="M0.349,-0.562L0.349,-0.096L0.508,-0.096L0.508,-0L0.085,-0L0.085,-0.096L0.245,-0.096L0.245,-0.465L0.13,-0.465L0.13,-0.562L0.349,-0.562ZM0.28,-0.644C0.25,-0.644 0.229,-0.649 0.218,-0.66C0.207,-0.67 0.201,-0.69 0.201,-0.718C0.201,-0.747 0.207,-0.766 0.218,-0.777C0.229,-0.787 0.25,-0.793 0.28,-0.793C0.31,-0.793 0.331,-0.787 0.343,-0.777C0.354,-0.766 0.36,-0.747 0.36,-0.718C0.36,-0.69 0.354,-0.67 0.343,-0.66C0.331,-0.649 0.31,-0.644 0.28,-0.644Z" style="fill:rgb(183,48,94);fill-rule:nonzero;"/>
                </g>
                <g transform="matrix(67.375,0,0,67.375,785.875,676)">
                    <path d="M0.275,-0.575C0.334,-0.575 0.38,-0.564 0.413,-0.542C0.446,-0.521 0.47,-0.487 0.483,-0.44C0.497,-0.394 0.503,-0.332 0.502,-0.253L0.141,-0.253C0.143,-0.209 0.148,-0.175 0.157,-0.151C0.166,-0.127 0.179,-0.109 0.198,-0.099C0.217,-0.089 0.243,-0.084 0.275,-0.084C0.299,-0.084 0.318,-0.086 0.333,-0.09C0.348,-0.095 0.362,-0.103 0.374,-0.115C0.387,-0.127 0.401,-0.145 0.418,-0.168L0.502,-0.113C0.472,-0.066 0.44,-0.033 0.406,-0.015C0.373,0.003 0.329,0.013 0.275,0.013C0.215,0.013 0.168,0.003 0.133,-0.017C0.098,-0.037 0.073,-0.068 0.058,-0.111C0.043,-0.153 0.035,-0.21 0.035,-0.281C0.035,-0.352 0.043,-0.408 0.058,-0.451C0.073,-0.493 0.098,-0.525 0.133,-0.545C0.168,-0.565 0.215,-0.575 0.275,-0.575ZM0.395,-0.349C0.391,-0.382 0.385,-0.408 0.377,-0.426C0.369,-0.445 0.357,-0.458 0.34,-0.466C0.324,-0.474 0.303,-0.478 0.275,-0.478C0.245,-0.478 0.221,-0.474 0.203,-0.466C0.185,-0.458 0.171,-0.445 0.161,-0.426C0.152,-0.408 0.146,-0.382 0.143,-0.349L0.395,-0.349Z" style="fill:rgb(183,48,94);fill-rule:nonzero;"/>
                </g>
                <g transform="matrix(67.375,0,0,67.375,822.625,676)">
                    <path d="M0.268,0.013C0.212,0.013 0.167,0.003 0.135,-0.017C0.103,-0.037 0.079,-0.068 0.065,-0.11C0.051,-0.152 0.044,-0.209 0.044,-0.28C0.044,-0.352 0.051,-0.408 0.065,-0.451C0.079,-0.493 0.103,-0.525 0.135,-0.545C0.167,-0.565 0.212,-0.575 0.268,-0.575C0.311,-0.575 0.352,-0.567 0.39,-0.553L0.39,-0.727L0.495,-0.727L0.495,-0L0.39,-0L0.39,-0.006C0.355,0.006 0.314,0.013 0.268,0.013ZM0.268,-0.084C0.31,-0.084 0.341,-0.088 0.36,-0.098C0.38,-0.107 0.39,-0.12 0.39,-0.136L0.39,-0.351C0.39,-0.395 0.38,-0.427 0.361,-0.447C0.342,-0.468 0.311,-0.478 0.268,-0.478C0.237,-0.478 0.212,-0.472 0.195,-0.46C0.178,-0.448 0.166,-0.428 0.159,-0.4C0.152,-0.371 0.148,-0.332 0.148,-0.28C0.148,-0.228 0.152,-0.189 0.159,-0.161C0.166,-0.133 0.178,-0.113 0.195,-0.101C0.212,-0.09 0.237,-0.084 0.268,-0.084Z" style="fill:rgb(183,48,94);fill-rule:nonzero;"/>
                </g>
            </g>
        </g>
        <g transform="matrix(1.02031,0,0,1,-12.2651,0)">
            <path d="M1686.78,707.252L1686.78,844.353C1686.78,850.36 1684.44,856.12 1680.28,860.367C1676.11,864.614 1670.47,867 1664.58,867C1608.14,867 1459.63,867 1403.2,867C1397.31,867 1391.66,864.614 1387.5,860.367C1383.34,856.12 1381,850.36 1381,844.353C1381,800.279 1381,707.252 1381,707.252L1686.78,707.252Z" style="fill:rgb(217,217,217);"/>
        </g>
        <g transform="matrix(4.35938,0,0,4.35938,-1447.56,-1337.12)">
            <g transform="matrix(1,0,0,1,564,390)">
                <circle cx="32" cy="32" r="32" style="fill:rgb(209,156,35);"/>
            </g>
            <g transform="matrix(1,0,0,1,564,390)">
                <g opacity="0.2">
                    <g>
                        <path d="M52,22.9L14.5,22.9C13.1,22.9 12,24 12,25.3L12,47.5C12,48.9 13.1,50 14.5,50L49.5,50C50.9,50 52,48.9 52,47.5L52,22.9Z" style="fill:rgb(35,31,32);fill-rule:nonzero;"/>
                    </g>
                </g>
            </g>
            <g transform="matrix(1,0,0,1,564,390)">
                <g>
                    <path d="M52,20.9L14.5,20.9C13.1,20.9 12,22 12,23.3L12,45.5C12,46.9 13.1,48 14.5,48L49.5,48C50.9,48 52,46.9 52,45.5L52,20.9Z" style="fill:white;fill-rule:nonzero;"/>
                </g>
            </g>
            <g transform="matrix(1,0,0,1,564,390)">
                <path d="M52,18.5C52,17.1 50.9,16 49.5,16L37,16C35.6,16 34.5,17.1 34.5,18.5C34.5,18.5 34.2,20.8 32,21L52,21L52,18.5Z" style="fill:rgb(224,224,209);fill-rule:nonzero;"/>
            </g>
            <g transform="matrix(0.253747,0,0,0.253747,406.408,262.252)">
                <g transform="matrix(92.1391,0,0,92.1391,722,674)">
                    <path d="M0.273,0.013C0.227,0.013 0.189,0.009 0.159,0C0.129,-0.008 0.103,-0.021 0.083,-0.04C0.063,-0.06 0.045,-0.086 0.029,-0.119L0.11,-0.195C0.121,-0.164 0.132,-0.141 0.143,-0.125C0.154,-0.11 0.169,-0.1 0.188,-0.093C0.208,-0.087 0.236,-0.084 0.273,-0.084C0.308,-0.084 0.335,-0.087 0.353,-0.095C0.371,-0.103 0.384,-0.115 0.391,-0.133C0.398,-0.15 0.402,-0.176 0.402,-0.21C0.402,-0.235 0.398,-0.254 0.39,-0.267C0.382,-0.281 0.369,-0.292 0.351,-0.301C0.333,-0.311 0.304,-0.322 0.264,-0.335C0.208,-0.354 0.166,-0.371 0.137,-0.388C0.107,-0.405 0.086,-0.425 0.073,-0.448C0.059,-0.471 0.053,-0.501 0.053,-0.538C0.053,-0.587 0.06,-0.627 0.074,-0.656C0.088,-0.685 0.111,-0.707 0.143,-0.72C0.175,-0.733 0.218,-0.74 0.273,-0.74C0.315,-0.74 0.35,-0.736 0.378,-0.729C0.405,-0.722 0.429,-0.71 0.448,-0.693C0.468,-0.677 0.485,-0.653 0.501,-0.624L0.426,-0.543C0.415,-0.572 0.404,-0.593 0.394,-0.607C0.383,-0.62 0.369,-0.63 0.351,-0.635C0.333,-0.641 0.307,-0.644 0.273,-0.644C0.241,-0.644 0.217,-0.641 0.2,-0.635C0.184,-0.628 0.173,-0.618 0.167,-0.603C0.16,-0.588 0.157,-0.567 0.157,-0.538C0.157,-0.517 0.161,-0.501 0.167,-0.49C0.174,-0.479 0.185,-0.47 0.201,-0.462C0.217,-0.455 0.244,-0.445 0.281,-0.434C0.339,-0.415 0.384,-0.397 0.416,-0.379C0.448,-0.361 0.471,-0.339 0.485,-0.312C0.499,-0.286 0.506,-0.252 0.506,-0.21C0.506,-0.155 0.499,-0.112 0.484,-0.08C0.468,-0.048 0.444,-0.024 0.41,-0.01C0.377,0.005 0.331,0.013 0.273,0.013Z" style="fill:rgb(209,156,35);fill-rule:nonzero;"/>
                </g>
            </g>
            <g transform="matrix(0.229391,0,0,0.229391,432.518,315.923)">
                <g transform="matrix(67.375,0,0,67.375,602.125,676)">
                    <path d="M0.25,0.013C0.2,0.013 0.16,0.004 0.13,-0.015C0.101,-0.033 0.075,-0.065 0.051,-0.111L0.134,-0.179C0.146,-0.151 0.156,-0.131 0.165,-0.118C0.174,-0.105 0.185,-0.097 0.197,-0.091C0.21,-0.086 0.228,-0.084 0.25,-0.084C0.292,-0.084 0.323,-0.086 0.345,-0.091C0.366,-0.096 0.38,-0.104 0.388,-0.115C0.396,-0.126 0.4,-0.142 0.4,-0.164C0.4,-0.185 0.397,-0.2 0.39,-0.21C0.384,-0.22 0.373,-0.227 0.356,-0.232C0.34,-0.237 0.312,-0.242 0.274,-0.246C0.2,-0.255 0.147,-0.272 0.115,-0.295C0.082,-0.318 0.065,-0.355 0.065,-0.405C0.065,-0.446 0.073,-0.479 0.088,-0.503C0.103,-0.528 0.128,-0.546 0.161,-0.557C0.194,-0.569 0.239,-0.575 0.295,-0.575C0.349,-0.575 0.39,-0.567 0.42,-0.551C0.45,-0.535 0.477,-0.507 0.501,-0.467L0.425,-0.393C0.411,-0.418 0.4,-0.436 0.39,-0.447C0.38,-0.459 0.368,-0.467 0.355,-0.471C0.341,-0.476 0.321,-0.478 0.295,-0.478C0.261,-0.478 0.235,-0.476 0.217,-0.472C0.199,-0.468 0.187,-0.46 0.18,-0.45C0.173,-0.44 0.17,-0.425 0.17,-0.405C0.17,-0.391 0.174,-0.38 0.181,-0.373C0.188,-0.365 0.199,-0.36 0.214,-0.356C0.228,-0.353 0.251,-0.349 0.281,-0.345C0.338,-0.336 0.383,-0.326 0.415,-0.313C0.447,-0.301 0.47,-0.283 0.484,-0.26C0.498,-0.236 0.505,-0.204 0.505,-0.164C0.505,-0.121 0.497,-0.087 0.48,-0.061C0.464,-0.036 0.437,-0.017 0.4,-0.005C0.362,0.007 0.312,0.013 0.25,0.013Z" style="fill:rgb(209,156,35);fill-rule:nonzero;"/>
                </g>
                <g transform="matrix(67.375,0,0,67.375,638.875,676)">
                    <path d="M0.332,0.013C0.288,0.013 0.252,0.005 0.225,-0.01C0.199,-0.025 0.179,-0.049 0.167,-0.082C0.154,-0.115 0.148,-0.159 0.148,-0.213L0.148,-0.476L0.035,-0.476L0.035,-0.573L0.148,-0.573L0.148,-0.727L0.253,-0.727L0.253,-0.573L0.441,-0.573L0.441,-0.476L0.253,-0.476L0.253,-0.213C0.253,-0.179 0.255,-0.153 0.26,-0.134C0.265,-0.116 0.273,-0.103 0.284,-0.095C0.295,-0.087 0.311,-0.084 0.332,-0.084C0.354,-0.084 0.37,-0.085 0.38,-0.088C0.39,-0.091 0.398,-0.097 0.402,-0.105C0.407,-0.112 0.412,-0.126 0.418,-0.145L0.516,-0.112C0.507,-0.08 0.495,-0.056 0.481,-0.038C0.466,-0.02 0.447,-0.007 0.424,0.001C0.401,0.009 0.37,0.013 0.332,0.013Z" style="fill:rgb(209,156,35);fill-rule:nonzero;"/>
                </g>
                <g transform="matrix(67.375,0,0,67.375,675.625,676)">
                    <path d="M0.249,0.013C0.196,0.013 0.153,0.007 0.121,-0.005C0.09,-0.018 0.067,-0.037 0.052,-0.062C0.038,-0.088 0.031,-0.122 0.031,-0.165C0.031,-0.214 0.038,-0.251 0.052,-0.278C0.066,-0.304 0.088,-0.323 0.12,-0.333C0.151,-0.344 0.194,-0.349 0.249,-0.349L0.364,-0.349L0.364,-0.369C0.364,-0.395 0.36,-0.414 0.354,-0.428C0.348,-0.442 0.336,-0.452 0.32,-0.458C0.304,-0.463 0.28,-0.466 0.249,-0.466C0.224,-0.466 0.204,-0.464 0.191,-0.459C0.178,-0.453 0.167,-0.444 0.16,-0.431C0.153,-0.418 0.146,-0.397 0.139,-0.37L0.039,-0.395C0.05,-0.438 0.064,-0.472 0.08,-0.498C0.096,-0.524 0.118,-0.543 0.145,-0.556C0.173,-0.568 0.207,-0.575 0.249,-0.575C0.328,-0.575 0.384,-0.558 0.418,-0.524C0.451,-0.49 0.468,-0.439 0.468,-0.369L0.468,-0.156C0.468,-0.132 0.471,-0.115 0.475,-0.107C0.48,-0.099 0.491,-0.095 0.506,-0.095C0.511,-0.095 0.522,-0.096 0.539,-0.097L0.539,-0.001C0.532,-0 0.522,-0 0.509,-0C0.456,-0 0.42,-0.012 0.4,-0.036C0.384,-0.019 0.363,-0.006 0.339,0.001C0.315,0.009 0.285,0.013 0.249,0.013ZM0.249,-0.084C0.28,-0.084 0.304,-0.087 0.32,-0.095C0.336,-0.102 0.348,-0.114 0.354,-0.132C0.36,-0.149 0.364,-0.175 0.364,-0.208L0.364,-0.253L0.249,-0.253C0.215,-0.253 0.19,-0.251 0.175,-0.248C0.161,-0.244 0.151,-0.237 0.145,-0.225C0.138,-0.213 0.135,-0.193 0.135,-0.165C0.135,-0.143 0.138,-0.126 0.145,-0.115C0.151,-0.104 0.162,-0.096 0.178,-0.091C0.194,-0.086 0.218,-0.084 0.249,-0.084Z" style="fill:rgb(209,156,35);fill-rule:nonzero;"/>
                </g>
                <g transform="matrix(67.375,0,0,67.375,712.375,676)">
                    <path d="M0.271,0.178C0.228,0.178 0.195,0.172 0.17,0.161C0.144,0.149 0.119,0.129 0.095,0.099L0.171,0.034C0.188,0.054 0.202,0.067 0.214,0.073C0.226,0.079 0.245,0.082 0.271,0.082C0.302,0.082 0.325,0.078 0.342,0.07C0.358,0.063 0.37,0.05 0.376,0.031C0.383,0.013 0.386,-0.014 0.386,-0.05L0.386,-0.052C0.348,-0.037 0.308,-0.03 0.265,-0.03C0.208,-0.03 0.164,-0.04 0.131,-0.06C0.098,-0.081 0.075,-0.113 0.06,-0.157C0.046,-0.202 0.039,-0.261 0.039,-0.336C0.039,-0.393 0.047,-0.439 0.061,-0.474C0.076,-0.508 0.1,-0.534 0.133,-0.55C0.165,-0.566 0.209,-0.575 0.265,-0.575C0.309,-0.575 0.35,-0.568 0.386,-0.556L0.386,-0.562L0.491,-0.562L0.491,-0.058C0.491,0 0.484,0.046 0.47,0.08C0.455,0.114 0.432,0.139 0.4,0.155C0.369,0.17 0.325,0.178 0.271,0.178ZM0.265,-0.126C0.308,-0.126 0.339,-0.137 0.358,-0.157C0.377,-0.178 0.386,-0.21 0.386,-0.254L0.386,-0.425C0.386,-0.442 0.377,-0.455 0.357,-0.464C0.337,-0.473 0.306,-0.478 0.265,-0.478C0.232,-0.478 0.208,-0.474 0.191,-0.465C0.174,-0.457 0.162,-0.443 0.155,-0.422C0.148,-0.402 0.145,-0.373 0.145,-0.336C0.145,-0.281 0.148,-0.238 0.155,-0.208C0.163,-0.178 0.175,-0.157 0.192,-0.145C0.209,-0.133 0.233,-0.126 0.265,-0.126Z" style="fill:rgb(209,156,35);fill-rule:nonzero;"/>
                </g>
                <g transform="matrix(67.375,0,0,67.375,749.125,676)">
                    <path d="M0.275,-0.575C0.334,-0.575 0.38,-0.564 0.413,-0.542C0.446,-0.521 0.47,-0.487 0.483,-0.44C0.497,-0.394 0.503,-0.332 0.502,-0.253L0.141,-0.253C0.143,-0.209 0.148,-0.175 0.157,-0.151C0.166,-0.127 0.179,-0.109 0.198,-0.099C0.217,-0.089 0.243,-0.084 0.275,-0.084C0.299,-0.084 0.318,-0.086 0.333,-0.09C0.348,-0.095 0.362,-0.103 0.374,-0.115C0.387,-0.127 0.401,-0.145 0.418,-0.168L0.502,-0.113C0.472,-0.066 0.44,-0.033 0.406,-0.015C0.373,0.003 0.329,0.013 0.275,0.013C0.215,0.013 0.168,0.003 0.133,-0.017C0.098,-0.037 0.073,-0.068 0.058,-0.111C0.043,-0.153 0.035,-0.21 0.035,-0.281C0.035,-0.352 0.043,-0.408 0.058,-0.451C0.073,-0.493 0.098,-0.525 0.133,-0.545C0.168,-0.565 0.215,-0.575 0.275,-0.575ZM0.395,-0.349C0.391,-0.382 0.385,-0.408 0.377,-0.426C0.369,-0.445 0.357,-0.458 0.34,-0.466C0.324,-0.474 0.303,-0.478 0.275,-0.478C0.245,-0.478 0.221,-0.474 0.203,-0.466C0.185,-0.458 0.171,-0.445 0.161,-0.426C0.152,-0.408 0.146,-0.382 0.143,-0.349L0.395,-0.349Z" style="fill:rgb(209,156,35);fill-rule:nonzero;"/>
                </g>
                <g transform="matrix(67.375,0,0,67.375,785.875,676)">
                    <path d="M0.268,0.013C0.212,0.013 0.167,0.003 0.135,-0.017C0.103,-0.037 0.079,-0.068 0.065,-0.11C0.051,-0.152 0.044,-0.209 0.044,-0.28C0.044,-0.352 0.051,-0.408 0.065,-0.451C0.079,-0.493 0.103,-0.525 0.135,-0.545C0.167,-0.565 0.212,-0.575 0.268,-0.575C0.311,-0.575 0.352,-0.567 0.39,-0.553L0.39,-0.727L0.495,-0.727L0.495,-0L0.39,-0L0.39,-0.006C0.355,0.006 0.314,0.013 0.268,0.013ZM0.268,-0.084C0.31,-0.084 0.341,-0.088 0.36,-0.098C0.38,-0.107 0.39,-0.12 0.39,-0.136L0.39,-0.351C0.39,-0.395 0.38,-0.427 0.361,-0.447C0.342,-0.468 0.311,-0.478 0.268,-0.478C0.237,-0.478 0.212,-0.472 0.195,-0.46C0.178,-0.448 0.166,-0.428 0.159,-0.4C0.152,-0.371 0.148,-0.332 0.148,-0.28C0.148,-0.228 0.152,-0.189 0.159,-0.161C0.166,-0.133 0.178,-0.113 0.195,-0.101C0.212,-0.09 0.237,-0.084 0.268,-0.084Z" style="fill:rgb(209,156,35);fill-rule:nonzero;"/>
                </g>
            </g>
        </g>
        <g transform="matrix(4.35938,0,0,4.35938,-1081.12,-1337.12)">
            <g transform="matrix(1,0,0,1,564,390)">
                <circle cx="32" cy="32" r="32" style="fill:rgb(104,155,61);"/>
            </g>
            <g transform="matrix(1,0,0,1,564,390)">
                <g opacity="0.2">
                    <g>
                        <path d="M52,22.9L14.5,22.9C13.1,22.9 12,24 12,25.3L12,47.5C12,48.9 13.1,50 14.5,50L49.5,50C50.9,50 52,48.9 52,47.5L52,22.9Z" style="fill:rgb(35,31,32);fill-rule:nonzero;"/>
                    </g>
                </g>
            </g>
            <g transform="matrix(1,0,0,1,564,390)">
                <g>
                    <path d="M52,20.9L14.5,20.9C13.1,20.9 12,22 12,23.3L12,45.5C12,46.9 13.1,48 14.5,48L49.5,48C50.9,48 52,46.9 52,45.5L52,20.9Z" style="fill:white;fill-rule:nonzero;"/>
                </g>
            </g>
            <g transform="matrix(1,0,0,1,564,390)">
                <path d="M52,18.5C52,17.1 50.9,16 49.5,16L37,16C35.6,16 34.5,17.1 34.5,18.5C34.5,18.5 34.2,20.8 32,21L52,21L52,18.5Z" style="fill:rgb(224,224,209);fill-rule:nonzero;"/>
            </g>
            <g transform="matrix(0.253747,0,0,0.253747,406.408,262.252)">
                <g transform="matrix(92.1391,0,0,92.1391,722,674)">
                    <path d="M0.286,0.013C0.224,0.013 0.175,0 0.139,-0.025C0.103,-0.05 0.078,-0.09 0.062,-0.144C0.046,-0.198 0.038,-0.272 0.038,-0.365C0.038,-0.457 0.046,-0.53 0.062,-0.584C0.078,-0.638 0.103,-0.678 0.139,-0.703C0.175,-0.728 0.224,-0.74 0.286,-0.74C0.33,-0.74 0.366,-0.734 0.395,-0.722C0.423,-0.71 0.447,-0.69 0.465,-0.662C0.483,-0.635 0.499,-0.597 0.513,-0.549L0.414,-0.515C0.403,-0.551 0.393,-0.578 0.384,-0.596C0.374,-0.614 0.362,-0.626 0.347,-0.633C0.333,-0.64 0.312,-0.644 0.286,-0.644C0.249,-0.644 0.221,-0.635 0.2,-0.618C0.179,-0.601 0.165,-0.573 0.156,-0.533C0.147,-0.493 0.143,-0.437 0.143,-0.365C0.143,-0.292 0.147,-0.235 0.156,-0.195C0.165,-0.155 0.179,-0.127 0.2,-0.11C0.221,-0.092 0.249,-0.084 0.286,-0.084C0.312,-0.084 0.333,-0.087 0.347,-0.094C0.362,-0.101 0.374,-0.113 0.384,-0.13C0.393,-0.148 0.403,-0.174 0.414,-0.21L0.513,-0.176C0.499,-0.129 0.483,-0.092 0.465,-0.065C0.447,-0.037 0.423,-0.018 0.395,-0.005C0.367,0.007 0.331,0.013 0.286,0.013Z" style="fill:rgb(104,155,61);fill-rule:nonzero;"/>
                </g>
            </g>
            <g transform="matrix(0.229391,0,0,0.229391,432.518,315.923)">
                <g transform="matrix(67.375,0,0,67.375,547,676)">
                    <path d="M0.289,0.013C0.228,0.013 0.181,0.003 0.145,-0.017C0.11,-0.037 0.085,-0.068 0.07,-0.11C0.054,-0.152 0.046,-0.209 0.046,-0.281C0.046,-0.352 0.054,-0.409 0.07,-0.452C0.085,-0.494 0.111,-0.525 0.146,-0.545C0.182,-0.565 0.231,-0.575 0.293,-0.575C0.345,-0.575 0.388,-0.565 0.419,-0.546C0.451,-0.528 0.481,-0.494 0.51,-0.446L0.423,-0.395C0.408,-0.418 0.395,-0.436 0.384,-0.447C0.373,-0.459 0.36,-0.467 0.347,-0.471C0.333,-0.476 0.315,-0.478 0.293,-0.478C0.255,-0.478 0.226,-0.472 0.206,-0.46C0.186,-0.449 0.171,-0.429 0.163,-0.401C0.155,-0.373 0.151,-0.333 0.151,-0.281C0.151,-0.229 0.155,-0.189 0.163,-0.161C0.171,-0.133 0.185,-0.113 0.205,-0.101C0.224,-0.09 0.252,-0.084 0.289,-0.084C0.311,-0.084 0.329,-0.086 0.343,-0.091C0.357,-0.096 0.37,-0.104 0.382,-0.116C0.394,-0.128 0.408,-0.145 0.424,-0.169L0.51,-0.116C0.48,-0.068 0.449,-0.034 0.417,-0.015C0.385,0.003 0.342,0.013 0.289,0.013Z" style="fill:rgb(104,155,61);fill-rule:nonzero;"/>
                </g>
                <g transform="matrix(67.375,0,0,67.375,583.75,676)">
                    <path d="M0.273,0.013C0.216,0.013 0.172,0.003 0.14,-0.017C0.107,-0.037 0.084,-0.068 0.07,-0.111C0.055,-0.153 0.048,-0.21 0.048,-0.281C0.048,-0.352 0.055,-0.408 0.07,-0.451C0.084,-0.493 0.107,-0.525 0.14,-0.545C0.172,-0.565 0.216,-0.575 0.273,-0.575C0.329,-0.575 0.374,-0.565 0.406,-0.545C0.439,-0.525 0.463,-0.493 0.477,-0.451C0.491,-0.408 0.498,-0.352 0.498,-0.281C0.498,-0.21 0.491,-0.153 0.477,-0.111C0.463,-0.068 0.439,-0.037 0.406,-0.017C0.374,0.003 0.329,0.013 0.273,0.013ZM0.273,-0.084C0.304,-0.084 0.329,-0.09 0.346,-0.101C0.363,-0.113 0.375,-0.133 0.383,-0.161C0.39,-0.19 0.394,-0.229 0.394,-0.281C0.394,-0.332 0.39,-0.372 0.383,-0.4C0.375,-0.429 0.363,-0.449 0.346,-0.46C0.329,-0.472 0.304,-0.478 0.273,-0.478C0.241,-0.478 0.217,-0.472 0.2,-0.46C0.183,-0.449 0.171,-0.429 0.164,-0.4C0.156,-0.372 0.153,-0.332 0.153,-0.281C0.153,-0.229 0.156,-0.19 0.164,-0.161C0.171,-0.133 0.183,-0.113 0.2,-0.101C0.217,-0.09 0.241,-0.084 0.273,-0.084Z" style="fill:rgb(104,155,61);fill-rule:nonzero;"/>
                </g>
                <g transform="matrix(67.375,0,0,67.375,620.5,676)">
                    <path d="M0.022,-0L0.022,-0.562L0.126,-0.562L0.126,-0.565C0.154,-0.571 0.175,-0.574 0.192,-0.574C0.215,-0.574 0.233,-0.57 0.246,-0.564C0.259,-0.558 0.272,-0.546 0.284,-0.528C0.299,-0.546 0.315,-0.558 0.33,-0.564C0.344,-0.57 0.365,-0.574 0.39,-0.574C0.425,-0.574 0.451,-0.567 0.47,-0.552C0.49,-0.538 0.503,-0.514 0.511,-0.481C0.52,-0.448 0.524,-0.401 0.524,-0.342L0.524,-0L0.419,-0L0.419,-0.342C0.419,-0.39 0.417,-0.424 0.412,-0.442C0.407,-0.46 0.398,-0.469 0.385,-0.469C0.369,-0.469 0.358,-0.466 0.349,-0.459C0.341,-0.452 0.335,-0.44 0.331,-0.423C0.327,-0.406 0.325,-0.382 0.325,-0.352L0.325,-0L0.221,-0L0.221,-0.336C0.221,-0.387 0.218,-0.421 0.213,-0.44C0.208,-0.46 0.199,-0.469 0.186,-0.469C0.171,-0.469 0.158,-0.466 0.15,-0.459C0.142,-0.452 0.135,-0.44 0.132,-0.423C0.128,-0.406 0.126,-0.382 0.126,-0.352L0.126,-0L0.022,-0Z" style="fill:rgb(104,155,61);fill-rule:nonzero;"/>
                </g>
                <g transform="matrix(67.375,0,0,67.375,657.25,676)">
                    <path d="M0.022,-0L0.022,-0.562L0.126,-0.562L0.126,-0.565C0.154,-0.571 0.175,-0.574 0.192,-0.574C0.215,-0.574 0.233,-0.57 0.246,-0.564C0.259,-0.558 0.272,-0.546 0.284,-0.528C0.299,-0.546 0.315,-0.558 0.33,-0.564C0.344,-0.57 0.365,-0.574 0.39,-0.574C0.425,-0.574 0.451,-0.567 0.47,-0.552C0.49,-0.538 0.503,-0.514 0.511,-0.481C0.52,-0.448 0.524,-0.401 0.524,-0.342L0.524,-0L0.419,-0L0.419,-0.342C0.419,-0.39 0.417,-0.424 0.412,-0.442C0.407,-0.46 0.398,-0.469 0.385,-0.469C0.369,-0.469 0.358,-0.466 0.349,-0.459C0.341,-0.452 0.335,-0.44 0.331,-0.423C0.327,-0.406 0.325,-0.382 0.325,-0.352L0.325,-0L0.221,-0L0.221,-0.336C0.221,-0.387 0.218,-0.421 0.213,-0.44C0.208,-0.46 0.199,-0.469 0.186,-0.469C0.171,-0.469 0.158,-0.466 0.15,-0.459C0.142,-0.452 0.135,-0.44 0.132,-0.423C0.128,-0.406 0.126,-0.382 0.126,-0.352L0.126,-0L0.022,-0Z" style="fill:rgb(104,155,61);fill-rule:nonzero;"/>
                </g>
                <g transform="matrix(67.375,0,0,67.375,694,676)">
                    <path d="M0.349,-0.562L0.349,-0.096L0.508,-0.096L0.508,-0L0.085,-0L0.085,-0.096L0.245,-0.096L0.245,-0.465L0.13,-0.465L0.13,-0.562L0.349,-0.562ZM0.28,-0.644C0.25,-0.644 0.229,-0.649 0.218,-0.66C0.207,-0.67 0.201,-0.69 0.201,-0.718C0.201,-0.747 0.207,-0.766 0.218,-0.777C0.229,-0.787 0.25,-0.793 0.28,-0.793C0.31,-0.793 0.331,-0.787 0.343,-0.777C0.354,-0.766 0.36,-0.747 0.36,-0.718C0.36,-0.69 0.354,-0.67 0.343,-0.66C0.331,-0.649 0.31,-0.644 0.28,-0.644Z" style="fill:rgb(104,155,61);fill-rule:nonzero;"/>
                </g>
                <g transform="matrix(67.375,0,0,67.375,730.75,676)">
                    <path d="M0.332,0.013C0.288,0.013 0.252,0.005 0.225,-0.01C0.199,-0.025 0.179,-0.049 0.167,-0.082C0.154,-0.115 0.148,-0.159 0.148,-0.213L0.148,-0.476L0.035,-0.476L0.035,-0.573L0.148,-0.573L0.148,-0.727L0.253,-0.727L0.253,-0.573L0.441,-0.573L0.441,-0.476L0.253,-0.476L0.253,-0.213C0.253,-0.179 0.255,-0.153 0.26,-0.134C0.265,-0.116 0.273,-0.103 0.284,-0.095C0.295,-0.087 0.311,-0.084 0.332,-0.084C0.354,-0.084 0.37,-0.085 0.38,-0.088C0.39,-0.091 0.398,-0.097 0.402,-0.105C0.407,-0.112 0.412,-0.126 0.418,-0.145L0.516,-0.112C0.507,-0.08 0.495,-0.056 0.481,-0.038C0.466,-0.02 0.447,-0.007 0.424,0.001C0.401,0.009 0.37,0.013 0.332,0.013Z" style="fill:rgb(104,155,61);fill-rule:nonzero;"/>
                </g>
                <g transform="matrix(67.375,0,0,67.375,767.5,676)">
                    <path d="M0.332,0.013C0.288,0.013 0.252,0.005 0.225,-0.01C0.199,-0.025 0.179,-0.049 0.167,-0.082C0.154,-0.115 0.148,-0.159 0.148,-0.213L0.148,-0.476L0.035,-0.476L0.035,-0.573L0.148,-0.573L0.148,-0.727L0.253,-0.727L0.253,-0.573L0.441,-0.573L0.441,-0.476L0.253,-0.476L0.253,-0.213C0.253,-0.179 0.255,-0.153 0.26,-0.134C0.265,-0.116 0.273,-0.103 0.284,-0.095C0.295,-0.087 0.311,-0.084 0.332,-0.084C0.354,-0.084 0.37,-0.085 0.38,-0.088C0.39,-0.091 0.398,-0.097 0.402,-0.105C0.407,-0.112 0.412,-0.126 0.418,-0.145L0.516,-0.112C0.507,-0.08 0.495,-0.056 0.481,-0.038C0.466,-0.02 0.447,-0.007 0.424,0.001C0.401,0.009 0.37,0.013 0.332,0.013Z" style="fill:rgb(104,155,61);fill-rule:nonzero;"/>
                </g>
                <g transform="matrix(67.375,0,0,67.375,804.25,676)">
                    <path d="M0.275,-0.575C0.334,-0.575 0.38,-0.564 0.413,-0.542C0.446,-0.521 0.47,-0.487 0.483,-0.44C0.497,-0.394 0.503,-0.332 0.502,-0.253L0.141,-0.253C0.143,-0.209 0.148,-0.175 0.157,-0.151C0.166,-0.127 0.179,-0.109 0.198,-0.099C0.217,-0.089 0.243,-0.084 0.275,-0.084C0.299,-0.084 0.318,-0.086 0.333,-0.09C0.348,-0.095 0.362,-0.103 0.374,-0.115C0.387,-0.127 0.401,-0.145 0.418,-0.168L0.502,-0.113C0.472,-0.066 0.44,-0.033 0.406,-0.015C0.373,0.003 0.329,0.013 0.275,0.013C0.215,0.013 0.168,0.003 0.133,-0.017C0.098,-0.037 0.073,-0.068 0.058,-0.111C0.043,-0.153 0.035,-0.21 0.035,-0.281C0.035,-0.352 0.043,-0.408 0.058,-0.451C0.073,-0.493 0.098,-0.525 0.133,-0.545C0.168,-0.565 0.215,-0.575 0.275,-0.575ZM0.395,-0.349C0.391,-0.382 0.385,-0.408 0.377,-0.426C0.369,-0.445 0.357,-0.458 0.34,-0.466C0.324,-0.474 0.303,-0.478 0.275,-0.478C0.245,-0.478 0.221,-0.474 0.203,-0.466C0.185,-0.458 0.171,-0.445 0.161,-0.426C0.152,-0.408 0.146,-0.382 0.143,-0.349L0.395,-0.349Z" style="fill:rgb(104,155,61);fill-rule:nonzero;"/>
                </g>
                <g transform="matrix(67.375,0,0,67.375,841,676)">
                    <path d="M0.268,0.013C0.212,0.013 0.167,0.003 0.135,-0.017C0.103,-0.037 0.079,-0.068 0.065,-0.11C0.051,-0.152 0.044,-0.209 0.044,-0.28C0.044,-0.352 0.051,-0.408 0.065,-0.451C0.079,-0.493 0.103,-0.525 0.135,-0.545C0.167,-0.565 0.212,-0.575 0.268,-0.575C0.311,-0.575 0.352,-0.567 0.39,-0.553L0.39,-0.727L0.495,-0.727L0.495,-0L0.39,-0L0.39,-0.006C0.355,0.006 0.314,0.013 0.268,0.013ZM0.268,-0.084C0.31,-0.084 0.341,-0.088 0.36,-0.098C0.38,-0.107 0.39,-0.12 0.39,-0.136L0.39,-0.351C0.39,-0.395 0.38,-0.427 0.361,-0.447C0.342,-0.468 0.311,-0.478 0.268,-0.478C0.237,-0.478 0.212,-0.472 0.195,-0.46C0.178,-0.448 0.166,-0.428 0.159,-0.4C0.152,-0.371 0.148,-0.332 0.148,-0.28C0.148,-0.228 0.152,-0.189 0.159,-0.161C0.166,-0.133 0.178,-0.113 0.195,-0.101C0.212,-0.09 0.237,-0.084 0.268,-0.084Z" style="fill:rgb(104,155,61);fill-rule:nonzero;"/>
                </g>
            </g>
        </g>
        <g transform="matrix(1,0,0,0.71,-13.2231,98.3738)">
            <g transform="matrix(1,-0,-0,1.40845,181.223,-83.625)">
                <path d="M1016.28,211.574L978.777,286.574L941.277,211.574L1016.28,211.574Z" style="fill:rgb(77,77,77);"/>
                <path d="M218.777,258.174L218.777,144.574L978.777,144.574L978.777,226.574" style="fill:none;stroke:rgb(77,77,77);stroke-width:25px;"/>
            </g>
        </g>
        <g transform="matrix(0.372146,0,0,0.71,1084.92,98.3738)">
            <g transform="matrix(2.68712,-0,-0,1.40845,-2463.87,-83.625)">
                <path d="M1386.11,211.574L1348.61,286.574L1311.11,211.574L1386.11,211.574Z" style="fill:rgb(77,77,77);"/>
                <path d="M1065.78,258.174L1065.78,144.574L1348.61,144.574L1348.61,226.574" style="fill:none;stroke:rgb(77,77,77);stroke-width:25px;"/>
            </g>
        </g>
        <g transform="matrix(0.482646,-8.2428e-18,1.06416e-17,-0.71,590.753,981.626)">
            <g transform="matrix(2.07191,-2.4054e-17,3.10541e-17,-1.40845,-875.907,1327.64)">
                <path d="M945.123,790.426L982.623,715.426L1020.12,790.426L945.123,790.426Z" style="fill:rgb(77,77,77);"/>
                <path d="M615.812,743.826L615.812,857.426L982.623,857.426L982.623,775.426" style="fill:none;stroke:rgb(77,77,77);stroke-width:25px;"/>
            </g>
        </g>
        <g transform="matrix(1.60076,0,0,1.60076,-76.7802,-1280.69)">
            <path d="M450.665,891.33C448.682,891.33 447.102,891.061 445.926,890.523C444.75,889.984 443.582,889.021 442.42,887.633L445.99,884.573C446.783,885.508 447.456,886.117 448.009,886.4C448.561,886.683 449.447,886.825 450.665,886.825C452.11,886.825 453.215,886.648 453.98,886.294C454.745,885.94 455.283,885.33 455.595,884.466C455.907,883.602 456.063,882.334 456.063,880.663L456.063,880.578C454.277,881.258 452.379,881.598 450.368,881.598C447.733,881.598 445.65,881.123 444.12,880.174C442.59,879.225 441.492,877.716 440.826,875.648C440.16,873.579 439.828,870.788 439.828,867.275C439.828,864.612 440.175,862.473 440.869,860.857C441.563,859.242 442.675,858.053 444.205,857.288C445.735,856.523 447.789,856.14 450.368,856.14C452.464,856.14 454.363,856.423 456.063,856.99L456.063,856.735L460.95,856.735L460.95,880.28C460.95,883 460.617,885.153 459.951,886.74C459.285,888.327 458.209,889.488 456.721,890.225C455.234,890.962 453.215,891.33 450.665,891.33ZM450.368,877.093C452.379,877.093 453.831,876.611 454.724,875.648C455.616,874.684 456.063,873.183 456.063,871.143L456.063,863.11C456.063,862.345 455.602,861.743 454.681,861.304C453.76,860.865 452.323,860.645 450.368,860.645C448.866,860.645 447.718,860.843 446.925,861.24C446.132,861.637 445.572,862.31 445.246,863.259C444.92,864.208 444.758,865.547 444.758,867.275C444.758,869.882 444.928,871.879 445.268,873.268C445.608,874.656 446.174,875.64 446.967,876.221C447.761,876.802 448.894,877.093 450.368,877.093Z" style="fill:rgb(77,77,77);fill-rule:nonzero;stroke:rgb(77,77,77);stroke-width:0.62px;stroke-linejoin:round;stroke-miterlimit:2;"/>
            <path d="M479.82,856.735L479.82,878.495L487.258,878.495L487.258,883L467.495,883L467.495,878.495L474.933,878.495L474.933,861.24L469.578,861.24L469.578,856.735L479.82,856.735ZM476.59,852.91C475.173,852.91 474.203,852.662 473.679,852.166C473.155,851.67 472.893,850.757 472.893,849.425C472.893,848.093 473.155,847.18 473.679,846.684C474.203,846.188 475.173,845.94 476.59,845.94C478.007,845.94 478.984,846.188 479.522,846.684C480.061,847.18 480.33,848.093 480.33,849.425C480.33,850.757 480.061,851.67 479.522,852.166C478.984,852.662 478.007,852.91 476.59,852.91Z" style="fill:rgb(77,77,77);fill-rule:nonzero;stroke:rgb(77,77,77);stroke-width:0.62px;stroke-linejoin:round;stroke-miterlimit:2;"/>
            <path d="M504.513,883.595C502.444,883.595 500.787,883.241 499.54,882.533C498.293,881.824 497.38,880.698 496.799,879.154C496.218,877.61 495.928,875.577 495.928,873.055L495.928,860.73L490.658,860.73L490.658,856.225L495.928,856.225L495.928,849L500.815,849L500.815,856.225L509.613,856.225L509.613,860.73L500.815,860.73L500.815,873.055C500.815,874.642 500.928,875.867 501.155,876.731C501.382,877.595 501.757,878.205 502.281,878.559C502.805,878.913 503.549,879.09 504.513,879.09C505.561,879.09 506.319,879.019 506.786,878.878C507.254,878.736 507.594,878.481 507.806,878.112C508.019,877.744 508.267,877.107 508.55,876.2L513.14,877.773C512.715,879.246 512.163,880.4 511.483,881.236C510.803,882.072 509.917,882.674 508.826,883.043C507.735,883.411 506.298,883.595 504.513,883.595Z" style="fill:rgb(77,77,77);fill-rule:nonzero;stroke:rgb(77,77,77);stroke-width:0.62px;stroke-linejoin:round;stroke-miterlimit:2;"/>
            <path d="M551.645,883.595C549.152,883.595 547.161,883.312 545.674,882.745C544.186,882.178 543.11,881.293 542.444,880.089C541.778,878.885 541.445,877.277 541.445,875.265C541.445,872.998 541.771,871.249 542.423,870.016C543.074,868.784 544.13,867.92 545.589,867.424C547.048,866.928 549.067,866.68 551.645,866.68L557,866.68L557,865.745C557,864.555 556.851,863.634 556.554,862.982C556.256,862.331 555.725,861.87 554.96,861.601C554.195,861.332 553.09,861.198 551.645,861.198C550.455,861.198 549.548,861.318 548.925,861.559C548.302,861.8 547.82,862.232 547.48,862.855C547.14,863.478 546.814,864.428 546.503,865.703L541.828,864.555C542.338,862.543 542.975,860.928 543.74,859.71C544.505,858.492 545.525,857.592 546.8,857.011C548.075,856.43 549.69,856.14 551.645,856.14C555.328,856.14 557.956,856.926 559.529,858.499C561.101,860.071 561.888,862.487 561.888,865.745L561.888,875.69C561.888,876.852 562.001,877.617 562.228,877.985C562.454,878.353 562.936,878.538 563.673,878.538C563.899,878.538 564.409,878.509 565.203,878.453L565.203,882.958C564.863,882.986 564.395,883 563.8,883C561.335,883 559.635,882.433 558.7,881.3C557.935,882.122 556.986,882.71 555.853,883.064C554.719,883.418 553.317,883.595 551.645,883.595ZM551.645,879.09C553.09,879.09 554.195,878.92 554.96,878.58C555.725,878.24 556.256,877.659 556.554,876.838C556.851,876.016 557,874.826 557,873.268L557,871.185L551.645,871.185C550.03,871.185 548.883,871.263 548.203,871.419C547.523,871.575 547.041,871.929 546.758,872.481C546.474,873.034 546.333,873.962 546.333,875.265C546.333,876.313 546.474,877.1 546.758,877.624C547.041,878.148 547.558,878.523 548.309,878.75C549.06,878.977 550.172,879.09 551.645,879.09Z" style="fill:rgb(77,77,77);fill-rule:nonzero;stroke:rgb(77,77,77);stroke-width:0.62px;stroke-linejoin:round;stroke-miterlimit:2;"/>
            <path d="M578.038,883.595C575.403,883.595 573.327,883.135 571.811,882.214C570.295,881.293 569.205,879.841 568.539,877.857C567.873,875.874 567.54,873.225 567.54,869.91C567.54,866.567 567.873,863.903 568.539,861.92C569.205,859.937 570.295,858.478 571.811,857.543C573.327,856.607 575.403,856.14 578.038,856.14C580.049,856.14 581.948,856.48 583.733,857.16L583.733,849L588.62,849L588.62,883L583.733,883L583.733,882.703C582.089,883.298 580.191,883.595 578.038,883.595ZM578.038,879.09C579.992,879.09 581.43,878.87 582.351,878.431C583.272,877.992 583.733,877.39 583.733,876.625L583.733,866.595C583.733,864.555 583.286,863.053 582.394,862.09C581.501,861.127 580.049,860.645 578.038,860.645C576.564,860.645 575.431,860.928 574.638,861.495C573.844,862.062 573.278,863.004 572.938,864.321C572.598,865.639 572.428,867.502 572.428,869.91C572.428,872.318 572.598,874.174 572.938,875.478C573.278,876.781 573.844,877.709 574.638,878.261C575.431,878.814 576.564,879.09 578.038,879.09Z" style="fill:rgb(77,77,77);fill-rule:nonzero;stroke:rgb(77,77,77);stroke-width:0.62px;stroke-linejoin:round;stroke-miterlimit:2;"/>
            <path d="M603.538,883.595C600.903,883.595 598.827,883.135 597.311,882.214C595.795,881.293 594.705,879.841 594.039,877.857C593.373,875.874 593.04,873.225 593.04,869.91C593.04,866.567 593.373,863.903 594.039,861.92C594.705,859.937 595.795,858.478 597.311,857.543C598.827,856.607 600.903,856.14 603.538,856.14C605.549,856.14 607.448,856.48 609.233,857.16L609.233,849L614.12,849L614.12,883L609.233,883L609.233,882.703C607.589,883.298 605.691,883.595 603.538,883.595ZM603.538,879.09C605.492,879.09 606.93,878.87 607.851,878.431C608.772,877.992 609.233,877.39 609.233,876.625L609.233,866.595C609.233,864.555 608.786,863.053 607.894,862.09C607.001,861.127 605.549,860.645 603.538,860.645C602.064,860.645 600.931,860.928 600.138,861.495C599.344,862.062 598.778,863.004 598.438,864.321C598.098,865.639 597.928,867.502 597.928,869.91C597.928,872.318 598.098,874.174 598.438,875.478C598.778,876.781 599.344,877.709 600.138,878.261C600.931,878.814 602.064,879.09 603.538,879.09Z" style="fill:rgb(77,77,77);fill-rule:nonzero;stroke:rgb(77,77,77);stroke-width:0.62px;stroke-linejoin:round;stroke-miterlimit:2;"/>
        </g>
        <g transform="matrix(1.60076,0,0,1.60076,469.59,-1280.69)">
            <path d="M450.665,891.33C448.682,891.33 447.102,891.061 445.926,890.523C444.75,889.984 443.582,889.021 442.42,887.633L445.99,884.573C446.783,885.508 447.456,886.117 448.009,886.4C448.561,886.683 449.447,886.825 450.665,886.825C452.11,886.825 453.215,886.648 453.98,886.294C454.745,885.94 455.283,885.33 455.595,884.466C455.907,883.602 456.063,882.334 456.063,880.663L456.063,880.578C454.277,881.258 452.379,881.598 450.368,881.598C447.733,881.598 445.65,881.123 444.12,880.174C442.59,879.225 441.492,877.716 440.826,875.648C440.16,873.579 439.828,870.788 439.828,867.275C439.828,864.612 440.175,862.473 440.869,860.857C441.563,859.242 442.675,858.053 444.205,857.288C445.735,856.523 447.789,856.14 450.368,856.14C452.464,856.14 454.363,856.423 456.063,856.99L456.063,856.735L460.95,856.735L460.95,880.28C460.95,883 460.617,885.153 459.951,886.74C459.285,888.327 458.209,889.488 456.721,890.225C455.234,890.962 453.215,891.33 450.665,891.33ZM450.368,877.093C452.379,877.093 453.831,876.611 454.724,875.648C455.616,874.684 456.063,873.183 456.063,871.143L456.063,863.11C456.063,862.345 455.602,861.743 454.681,861.304C453.76,860.865 452.323,860.645 450.368,860.645C448.866,860.645 447.718,860.843 446.925,861.24C446.132,861.637 445.572,862.31 445.246,863.259C444.92,864.208 444.758,865.547 444.758,867.275C444.758,869.882 444.928,871.879 445.268,873.268C445.608,874.656 446.174,875.64 446.967,876.221C447.761,876.802 448.894,877.093 450.368,877.093Z" style="fill:rgb(77,77,77);fill-rule:nonzero;stroke:rgb(77,77,77);stroke-width:0.62px;stroke-linejoin:round;stroke-miterlimit:2;"/>
            <path d="M479.82,856.735L479.82,878.495L487.258,878.495L487.258,883L467.495,883L467.495,878.495L474.933,878.495L474.933,861.24L469.578,861.24L469.578,856.735L479.82,856.735ZM476.59,852.91C475.173,852.91 474.203,852.662 473.679,852.166C473.155,851.67 472.893,850.757 472.893,849.425C472.893,848.093 473.155,847.18 473.679,846.684C474.203,846.188 475.173,845.94 476.59,845.94C478.007,845.94 478.984,846.188 479.522,846.684C480.061,847.18 480.33,848.093 480.33,849.425C480.33,850.757 480.061,851.67 479.522,852.166C478.984,852.662 478.007,852.91 476.59,852.91Z" style="fill:rgb(77,77,77);fill-rule:nonzero;stroke:rgb(77,77,77);stroke-width:0.62px;stroke-linejoin:round;stroke-miterlimit:2;"/>
            <path d="M504.513,883.595C502.444,883.595 500.787,883.241 499.54,882.533C498.293,881.824 497.38,880.698 496.799,879.154C496.218,877.61 495.928,875.577 495.928,873.055L495.928,860.73L490.658,860.73L490.658,856.225L495.928,856.225L495.928,849L500.815,849L500.815,856.225L509.613,856.225L509.613,860.73L500.815,860.73L500.815,873.055C500.815,874.642 500.928,875.867 501.155,876.731C501.382,877.595 501.757,878.205 502.281,878.559C502.805,878.913 503.549,879.09 504.513,879.09C505.561,879.09 506.319,879.019 506.786,878.878C507.254,878.736 507.594,878.481 507.806,878.112C508.019,877.744 508.267,877.107 508.55,876.2L513.14,877.773C512.715,879.246 512.163,880.4 511.483,881.236C510.803,882.072 509.917,882.674 508.826,883.043C507.735,883.411 506.298,883.595 504.513,883.595Z" style="fill:rgb(77,77,77);fill-rule:nonzero;stroke:rgb(77,77,77);stroke-width:0.62px;stroke-linejoin:round;stroke-miterlimit:2;"/>
            <path d="M553.515,883.595C550.682,883.595 548.443,883.135 546.8,882.214C545.157,881.293 543.974,879.841 543.251,877.857C542.529,875.874 542.168,873.211 542.168,869.867C542.168,866.524 542.529,863.861 543.251,861.878C543.974,859.894 545.171,858.442 546.843,857.521C548.514,856.6 550.795,856.14 553.685,856.14C556.15,856.14 558.119,856.579 559.593,857.458C561.066,858.336 562.483,859.894 563.843,862.133L559.763,864.555C559.054,863.45 558.445,862.628 557.935,862.09C557.425,861.552 556.851,861.176 556.214,860.964C555.576,860.751 554.733,860.645 553.685,860.645C551.928,860.645 550.575,860.921 549.626,861.474C548.677,862.026 548.011,862.954 547.629,864.258C547.246,865.561 547.055,867.431 547.055,869.867C547.055,872.304 547.246,874.174 547.629,875.478C548.011,876.781 548.656,877.709 549.563,878.261C550.469,878.814 551.787,879.09 553.515,879.09C554.535,879.09 555.378,878.977 556.044,878.75C556.71,878.523 557.319,878.134 557.871,877.581C558.424,877.029 559.068,876.2 559.805,875.095L563.843,877.56C562.426,879.827 560.974,881.399 559.486,882.278C557.999,883.156 556.008,883.595 553.515,883.595Z" style="fill:rgb(77,77,77);fill-rule:nonzero;stroke:rgb(77,77,77);stroke-width:0.62px;stroke-linejoin:round;stroke-miterlimit:2;"/>
            <path d="M578.25,883.595C575.615,883.595 573.54,883.128 572.024,882.193C570.508,881.258 569.417,879.798 568.751,877.815C568.085,875.832 567.753,873.183 567.753,869.867C567.753,866.553 568.085,863.903 568.751,861.92C569.417,859.937 570.508,858.478 572.024,857.543C573.54,856.607 575.615,856.14 578.25,856.14C580.885,856.14 582.968,856.607 584.497,857.543C586.028,858.478 587.125,859.937 587.791,861.92C588.457,863.903 588.79,866.553 588.79,869.867C588.79,873.183 588.457,875.832 587.791,877.815C587.125,879.798 586.028,881.258 584.497,882.193C582.968,883.128 580.885,883.595 578.25,883.595ZM578.25,879.09C579.723,879.09 580.864,878.814 581.671,878.261C582.479,877.709 583.053,876.774 583.393,875.456C583.733,874.139 583.903,872.276 583.903,869.867C583.903,867.459 583.733,865.596 583.393,864.279C583.053,862.961 582.479,862.026 581.671,861.474C580.864,860.921 579.723,860.645 578.25,860.645C576.777,860.645 575.643,860.921 574.85,861.474C574.057,862.026 573.49,862.961 573.15,864.279C572.81,865.596 572.64,867.459 572.64,869.867C572.64,872.276 572.81,874.139 573.15,875.456C573.49,876.774 574.057,877.709 574.85,878.261C575.643,878.814 576.777,879.09 578.25,879.09Z" style="fill:rgb(77,77,77);fill-rule:nonzero;stroke:rgb(77,77,77);stroke-width:0.62px;stroke-linejoin:round;stroke-miterlimit:2;"/>
            <path d="M592.02,883L592.02,856.735L596.908,856.735L596.908,856.565C598.183,856.31 599.203,856.183 599.968,856.183C601.044,856.183 601.887,856.331 602.496,856.629C603.105,856.926 603.693,857.486 604.26,858.308C604.997,857.486 605.712,856.926 606.406,856.629C607.1,856.331 608.043,856.183 609.233,856.183C610.848,856.183 612.101,856.515 612.994,857.181C613.886,857.847 614.524,858.959 614.906,860.518C615.289,862.076 615.48,864.243 615.48,867.02L615.48,883L610.593,883L610.593,867.02C610.593,864.753 610.479,863.195 610.253,862.345C610.026,861.495 609.601,861.07 608.978,861.07C608.269,861.07 607.717,861.233 607.32,861.559C606.923,861.885 606.64,862.444 606.47,863.237C606.3,864.031 606.215,865.136 606.215,866.553L606.215,883L601.328,883L601.328,867.275C601.328,864.923 601.207,863.301 600.966,862.409C600.725,861.516 600.308,861.07 599.713,861.07C598.976,861.07 598.409,861.233 598.013,861.559C597.616,861.885 597.333,862.444 597.163,863.237C596.992,864.031 596.908,865.136 596.908,866.553L596.908,883L592.02,883Z" style="fill:rgb(77,77,77);fill-rule:nonzero;stroke:rgb(77,77,77);stroke-width:0.62px;stroke-linejoin:round;stroke-miterlimit:2;"/>
            <path d="M617.52,883L617.52,856.735L622.408,856.735L622.408,856.565C623.683,856.31 624.703,856.183 625.468,856.183C626.544,856.183 627.387,856.331 627.996,856.629C628.605,856.926 629.193,857.486 629.76,858.308C630.497,857.486 631.212,856.926 631.906,856.629C632.6,856.331 633.543,856.183 634.733,856.183C636.348,856.183 637.601,856.515 638.494,857.181C639.386,857.847 640.024,858.959 640.406,860.518C640.789,862.076 640.98,864.243 640.98,867.02L640.98,883L636.093,883L636.093,867.02C636.093,864.753 635.979,863.195 635.753,862.345C635.526,861.495 635.101,861.07 634.478,861.07C633.769,861.07 633.217,861.233 632.82,861.559C632.423,861.885 632.14,862.444 631.97,863.237C631.8,864.031 631.715,865.136 631.715,866.553L631.715,883L626.828,883L626.828,867.275C626.828,864.923 626.707,863.301 626.466,862.409C626.225,861.516 625.808,861.07 625.213,861.07C624.476,861.07 623.909,861.233 623.513,861.559C623.116,861.885 622.833,862.444 622.663,863.237C622.492,864.031 622.408,865.136 622.408,866.553L622.408,883L617.52,883Z" style="fill:rgb(77,77,77);fill-rule:nonzero;stroke:rgb(77,77,77);stroke-width:0.62px;stroke-linejoin:round;stroke-miterlimit:2;"/>
            <path d="M658.32,856.735L658.32,878.495L665.758,878.495L665.758,883L645.995,883L645.995,878.495L653.433,878.495L653.433,861.24L648.078,861.24L648.078,856.735L658.32,856.735ZM655.09,852.91C653.673,852.91 652.703,852.662 652.179,852.166C651.655,851.67 651.393,850.757 651.393,849.425C651.393,848.093 651.655,847.18 652.179,846.684C652.703,846.188 653.673,845.94 655.09,845.94C656.507,845.94 657.484,846.188 658.023,846.684C658.561,847.18 658.83,848.093 658.83,849.425C658.83,850.757 658.561,851.67 658.023,852.166C657.484,852.662 656.507,852.91 655.09,852.91Z" style="fill:rgb(77,77,77);fill-rule:nonzero;stroke:rgb(77,77,77);stroke-width:0.62px;stroke-linejoin:round;stroke-miterlimit:2;"/>
            <path d="M683.013,883.595C680.944,883.595 679.287,883.241 678.04,882.533C676.793,881.824 675.88,880.698 675.299,879.154C674.718,877.61 674.428,875.577 674.428,873.055L674.428,860.73L669.158,860.73L669.158,856.225L674.428,856.225L674.428,849L679.315,849L679.315,856.225L688.112,856.225L688.112,860.73L679.315,860.73L679.315,873.055C679.315,874.642 679.428,875.867 679.655,876.731C679.882,877.595 680.257,878.205 680.781,878.559C681.305,878.913 682.049,879.09 683.013,879.09C684.061,879.09 684.819,879.019 685.286,878.878C685.754,878.736 686.094,878.481 686.306,878.112C686.519,877.744 686.767,877.107 687.05,876.2L691.64,877.773C691.215,879.246 690.663,880.4 689.983,881.236C689.303,882.072 688.417,882.674 687.326,883.043C686.235,883.411 684.798,883.595 683.013,883.595Z" style="fill:rgb(77,77,77);fill-rule:nonzero;stroke:rgb(77,77,77);stroke-width:0.62px;stroke-linejoin:round;stroke-miterlimit:2;"/>
        </g>
        <g transform="matrix(1.60076,0,0,1.60076,123.66,-420.257)">
            <path d="M450.665,891.33C448.682,891.33 447.102,891.061 445.926,890.523C444.75,889.984 443.582,889.021 442.42,887.633L445.99,884.573C446.783,885.508 447.456,886.117 448.009,886.4C448.561,886.683 449.447,886.825 450.665,886.825C452.11,886.825 453.215,886.648 453.98,886.294C454.745,885.94 455.283,885.33 455.595,884.466C455.907,883.602 456.063,882.334 456.063,880.663L456.063,880.578C454.277,881.258 452.379,881.598 450.368,881.598C447.733,881.598 445.65,881.123 444.12,880.174C442.59,879.225 441.492,877.716 440.826,875.648C440.16,873.579 439.828,870.788 439.828,867.275C439.828,864.612 440.175,862.473 440.869,860.857C441.563,859.242 442.675,858.053 444.205,857.288C445.735,856.523 447.789,856.14 450.368,856.14C452.464,856.14 454.363,856.423 456.063,856.99L456.063,856.735L460.95,856.735L460.95,880.28C460.95,883 460.617,885.153 459.951,886.74C459.285,888.327 458.209,889.488 456.721,890.225C455.234,890.962 453.215,891.33 450.665,891.33ZM450.368,877.093C452.379,877.093 453.831,876.611 454.724,875.648C455.616,874.684 456.063,873.183 456.063,871.143L456.063,863.11C456.063,862.345 455.602,861.743 454.681,861.304C453.76,860.865 452.323,860.645 450.368,860.645C448.866,860.645 447.718,860.843 446.925,861.24C446.132,861.637 445.572,862.31 445.246,863.259C444.92,864.208 444.758,865.547 444.758,867.275C444.758,869.882 444.928,871.879 445.268,873.268C445.608,874.656 446.174,875.64 446.967,876.221C447.761,876.802 448.894,877.093 450.368,877.093Z" style="fill:rgb(77,77,77);fill-rule:nonzero;stroke:rgb(77,77,77);stroke-width:0.62px;stroke-linejoin:round;stroke-miterlimit:2;"/>
            <path d="M479.82,856.735L479.82,878.495L487.258,878.495L487.258,883L467.495,883L467.495,878.495L474.933,878.495L474.933,861.24L469.578,861.24L469.578,856.735L479.82,856.735ZM476.59,852.91C475.173,852.91 474.203,852.662 473.679,852.166C473.155,851.67 472.893,850.757 472.893,849.425C472.893,848.093 473.155,847.18 473.679,846.684C474.203,846.188 475.173,845.94 476.59,845.94C478.007,845.94 478.984,846.188 479.522,846.684C480.061,847.18 480.33,848.093 480.33,849.425C480.33,850.757 480.061,851.67 479.522,852.166C478.984,852.662 478.007,852.91 476.59,852.91Z" style="fill:rgb(77,77,77);fill-rule:nonzero;stroke:rgb(77,77,77);stroke-width:0.62px;stroke-linejoin:round;stroke-miterlimit:2;"/>
            <path d="M504.513,883.595C502.444,883.595 500.787,883.241 499.54,882.533C498.293,881.824 497.38,880.698 496.799,879.154C496.218,877.61 495.928,875.577 495.928,873.055L495.928,860.73L490.658,860.73L490.658,856.225L495.928,856.225L495.928,849L500.815,849L500.815,856.225L509.613,856.225L509.613,860.73L500.815,860.73L500.815,873.055C500.815,874.642 500.928,875.867 501.155,876.731C501.382,877.595 501.757,878.205 502.281,878.559C502.805,878.913 503.549,879.09 504.513,879.09C505.561,879.09 506.319,879.019 506.786,878.878C507.254,878.736 507.594,878.481 507.806,878.112C508.019,877.744 508.267,877.107 508.55,876.2L513.14,877.773C512.715,879.246 512.163,880.4 511.483,881.236C510.803,882.072 509.917,882.674 508.826,883.043C507.735,883.411 506.298,883.595 504.513,883.595Z" style="fill:rgb(77,77,77);fill-rule:nonzero;stroke:rgb(77,77,77);stroke-width:0.62px;stroke-linejoin:round;stroke-miterlimit:2;"/>
            <path d="M551.645,883.595C549.152,883.595 547.161,883.312 545.674,882.745C544.186,882.178 543.11,881.293 542.444,880.089C541.778,878.885 541.445,877.277 541.445,875.265C541.445,872.998 541.771,871.249 542.423,870.016C543.074,868.784 544.13,867.92 545.589,867.424C547.048,866.928 549.067,866.68 551.645,866.68L557,866.68L557,865.745C557,864.555 556.851,863.634 556.554,862.982C556.256,862.331 555.725,861.87 554.96,861.601C554.195,861.332 553.09,861.198 551.645,861.198C550.455,861.198 549.548,861.318 548.925,861.559C548.302,861.8 547.82,862.232 547.48,862.855C547.14,863.478 546.814,864.428 546.503,865.703L541.828,864.555C542.338,862.543 542.975,860.928 543.74,859.71C544.505,858.492 545.525,857.592 546.8,857.011C548.075,856.43 549.69,856.14 551.645,856.14C555.328,856.14 557.956,856.926 559.529,858.499C561.101,860.071 561.888,862.487 561.888,865.745L561.888,875.69C561.888,876.852 562.001,877.617 562.228,877.985C562.454,878.353 562.936,878.538 563.673,878.538C563.899,878.538 564.409,878.509 565.203,878.453L565.203,882.958C564.863,882.986 564.395,883 563.8,883C561.335,883 559.635,882.433 558.7,881.3C557.935,882.122 556.986,882.71 555.853,883.064C554.719,883.418 553.317,883.595 551.645,883.595ZM551.645,879.09C553.09,879.09 554.195,878.92 554.96,878.58C555.725,878.24 556.256,877.659 556.554,876.838C556.851,876.016 557,874.826 557,873.268L557,871.185L551.645,871.185C550.03,871.185 548.883,871.263 548.203,871.419C547.523,871.575 547.041,871.929 546.758,872.481C546.474,873.034 546.333,873.962 546.333,875.265C546.333,876.313 546.474,877.1 546.758,877.624C547.041,878.148 547.558,878.523 548.309,878.75C549.06,878.977 550.172,879.09 551.645,879.09Z" style="fill:rgb(77,77,77);fill-rule:nonzero;stroke:rgb(77,77,77);stroke-width:0.62px;stroke-linejoin:round;stroke-miterlimit:2;"/>
            <path d="M578.038,883.595C575.403,883.595 573.327,883.135 571.811,882.214C570.295,881.293 569.205,879.841 568.539,877.857C567.873,875.874 567.54,873.225 567.54,869.91C567.54,866.567 567.873,863.903 568.539,861.92C569.205,859.937 570.295,858.478 571.811,857.543C573.327,856.607 575.403,856.14 578.038,856.14C580.049,856.14 581.948,856.48 583.733,857.16L583.733,849L588.62,849L588.62,883L583.733,883L583.733,882.703C582.089,883.298 580.191,883.595 578.038,883.595ZM578.038,879.09C579.992,879.09 581.43,878.87 582.351,878.431C583.272,877.992 583.733,877.39 583.733,876.625L583.733,866.595C583.733,864.555 583.286,863.053 582.394,862.09C581.501,861.127 580.049,860.645 578.038,860.645C576.564,860.645 575.431,860.928 574.638,861.495C573.844,862.062 573.278,863.004 572.938,864.321C572.598,865.639 572.428,867.502 572.428,869.91C572.428,872.318 572.598,874.174 572.938,875.478C573.278,876.781 573.844,877.709 574.638,878.261C575.431,878.814 576.564,879.09 578.038,879.09Z" style="fill:rgb(77,77,77);fill-rule:nonzero;stroke:rgb(77,77,77);stroke-width:0.62px;stroke-linejoin:round;stroke-miterlimit:2;"/>
            <path d="M603.538,883.595C600.903,883.595 598.827,883.135 597.311,882.214C595.795,881.293 594.705,879.841 594.039,877.857C593.373,875.874 593.04,873.225 593.04,869.91C593.04,866.567 593.373,863.903 594.039,861.92C594.705,859.937 595.795,858.478 597.311,857.543C598.827,856.607 600.903,856.14 603.538,856.14C605.549,856.14 607.448,856.48 609.233,857.16L609.233,849L614.12,849L614.12,883L609.233,883L609.233,882.703C607.589,883.298 605.691,883.595 603.538,883.595ZM603.538,879.09C605.492,879.09 606.93,878.87 607.851,878.431C608.772,877.992 609.233,877.39 609.233,876.625L609.233,866.595C609.233,864.555 608.786,863.053 607.894,862.09C607.001,861.127 605.549,860.645 603.538,860.645C602.064,860.645 600.931,860.928 600.138,861.495C599.344,862.062 598.778,863.004 598.438,864.321C598.098,865.639 597.928,867.502 597.928,869.91C597.928,872.318 598.098,874.174 598.438,875.478C598.778,876.781 599.344,877.709 600.138,878.261C600.931,878.814 602.064,879.09 603.538,879.09Z" style="fill:rgb(77,77,77);fill-rule:nonzero;stroke:rgb(77,77,77);stroke-width:0.62px;stroke-linejoin:round;stroke-miterlimit:2;"/>
        </g>
        <g transform="matrix(1,0,0,1,878.242,167.29)">
            <g transform="matrix(50,0,0,50,580.17,676)">
                <path d="M0.332,0.013C0.288,0.013 0.252,0.005 0.225,-0.01C0.199,-0.025 0.179,-0.049 0.167,-0.082C0.154,-0.115 0.148,-0.159 0.148,-0.213L0.148,-0.476L0.035,-0.476L0.035,-0.573L0.148,-0.573L0.148,-0.727L0.253,-0.727L0.253,-0.573L0.441,-0.573L0.441,-0.476L0.253,-0.476L0.253,-0.213C0.253,-0.179 0.255,-0.153 0.26,-0.134C0.265,-0.116 0.273,-0.103 0.284,-0.095C0.295,-0.087 0.311,-0.084 0.332,-0.084C0.354,-0.084 0.37,-0.085 0.38,-0.088C0.39,-0.091 0.398,-0.097 0.402,-0.105C0.407,-0.112 0.412,-0.126 0.418,-0.145L0.516,-0.112C0.507,-0.08 0.495,-0.056 0.481,-0.038C0.466,-0.02 0.447,-0.007 0.424,0.001C0.401,0.009 0.37,0.013 0.332,0.013Z" style="fill:rgb(89,89,89);fill-rule:nonzero;"/>
            </g>
            <g transform="matrix(50,0,0,50,607.443,676)">
                <path d="M0.085,-0L0.085,-0.562L0.189,-0.562L0.189,-0.515C0.204,-0.531 0.222,-0.545 0.245,-0.557C0.268,-0.569 0.293,-0.575 0.32,-0.575C0.355,-0.575 0.384,-0.57 0.407,-0.56C0.43,-0.551 0.45,-0.536 0.467,-0.515C0.483,-0.494 0.498,-0.465 0.512,-0.428L0.418,-0.385C0.41,-0.412 0.402,-0.432 0.395,-0.445C0.387,-0.457 0.378,-0.466 0.367,-0.471C0.356,-0.476 0.34,-0.478 0.32,-0.478C0.273,-0.478 0.239,-0.462 0.219,-0.43C0.199,-0.397 0.189,-0.35 0.189,-0.288L0.189,-0L0.085,-0Z" style="fill:rgb(89,89,89);fill-rule:nonzero;"/>
            </g>
            <g transform="matrix(50,0,0,50,634.716,676)">
                <path d="M0.249,0.013C0.196,0.013 0.153,0.007 0.121,-0.005C0.09,-0.018 0.067,-0.037 0.052,-0.062C0.038,-0.088 0.031,-0.122 0.031,-0.165C0.031,-0.214 0.038,-0.251 0.052,-0.278C0.066,-0.304 0.088,-0.323 0.12,-0.333C0.151,-0.344 0.194,-0.349 0.249,-0.349L0.364,-0.349L0.364,-0.369C0.364,-0.395 0.36,-0.414 0.354,-0.428C0.348,-0.442 0.336,-0.452 0.32,-0.458C0.304,-0.463 0.28,-0.466 0.249,-0.466C0.224,-0.466 0.204,-0.464 0.191,-0.459C0.178,-0.453 0.167,-0.444 0.16,-0.431C0.153,-0.418 0.146,-0.397 0.139,-0.37L0.039,-0.395C0.05,-0.438 0.064,-0.472 0.08,-0.498C0.096,-0.524 0.118,-0.543 0.145,-0.556C0.173,-0.568 0.207,-0.575 0.249,-0.575C0.328,-0.575 0.384,-0.558 0.418,-0.524C0.451,-0.49 0.468,-0.439 0.468,-0.369L0.468,-0.156C0.468,-0.132 0.471,-0.115 0.475,-0.107C0.48,-0.099 0.491,-0.095 0.506,-0.095C0.511,-0.095 0.522,-0.096 0.539,-0.097L0.539,-0.001C0.532,-0 0.522,-0 0.509,-0C0.456,-0 0.42,-0.012 0.4,-0.036C0.384,-0.019 0.363,-0.006 0.339,0.001C0.315,0.009 0.285,0.013 0.249,0.013ZM0.249,-0.084C0.28,-0.084 0.304,-0.087 0.32,-0.095C0.336,-0.102 0.348,-0.114 0.354,-0.132C0.36,-0.149 0.364,-0.175 0.364,-0.208L0.364,-0.253L0.249,-0.253C0.215,-0.253 0.19,-0.251 0.175,-0.248C0.161,-0.244 0.151,-0.237 0.145,-0.225C0.138,-0.213 0.135,-0.193 0.135,-0.165C0.135,-0.143 0.138,-0.126 0.145,-0.115C0.151,-0.104 0.162,-0.096 0.178,-0.091C0.194,-0.086 0.218,-0.084 0.249,-0.084Z" style="fill:rgb(89,89,89);fill-rule:nonzero;"/>
            </g>
            <g transform="matrix(50,0,0,50,661.989,676)">
                <path d="M0.289,0.013C0.228,0.013 0.181,0.003 0.145,-0.017C0.11,-0.037 0.085,-0.068 0.07,-0.11C0.054,-0.152 0.046,-0.209 0.046,-0.281C0.046,-0.352 0.054,-0.409 0.07,-0.452C0.085,-0.494 0.111,-0.525 0.146,-0.545C0.182,-0.565 0.231,-0.575 0.293,-0.575C0.345,-0.575 0.388,-0.565 0.419,-0.546C0.451,-0.528 0.481,-0.494 0.51,-0.446L0.423,-0.395C0.408,-0.418 0.395,-0.436 0.384,-0.447C0.373,-0.459 0.36,-0.467 0.347,-0.471C0.333,-0.476 0.315,-0.478 0.293,-0.478C0.255,-0.478 0.226,-0.472 0.206,-0.46C0.186,-0.449 0.171,-0.429 0.163,-0.401C0.155,-0.373 0.151,-0.333 0.151,-0.281C0.151,-0.229 0.155,-0.189 0.163,-0.161C0.171,-0.133 0.185,-0.113 0.205,-0.101C0.224,-0.09 0.252,-0.084 0.289,-0.084C0.311,-0.084 0.329,-0.086 0.343,-0.091C0.357,-0.096 0.37,-0.104 0.382,-0.116C0.394,-0.128 0.408,-0.145 0.424,-0.169L0.51,-0.116C0.48,-0.068 0.449,-0.034 0.417,-0.015C0.385,0.003 0.342,0.013 0.289,0.013Z" style="fill:rgb(89,89,89);fill-rule:nonzero;"/>
            </g>
            <g transform="matrix(50,0,0,50,689.261,676)">
                <path d="M0.19,-0L0.085,-0L0.085,-0.727L0.19,-0.727L0.19,-0.349L0.192,-0.349L0.375,-0.562L0.501,-0.562L0.285,-0.303L0.537,-0L0.411,-0L0.195,-0.253L0.19,-0.253L0.19,-0Z" style="fill:rgb(89,89,89);fill-rule:nonzero;"/>
            </g>
            <g transform="matrix(50,0,0,50,716.534,676)">
                <path d="M0.275,-0.575C0.334,-0.575 0.38,-0.564 0.413,-0.542C0.446,-0.521 0.47,-0.487 0.483,-0.44C0.497,-0.394 0.503,-0.332 0.502,-0.253L0.141,-0.253C0.143,-0.209 0.148,-0.175 0.157,-0.151C0.166,-0.127 0.179,-0.109 0.198,-0.099C0.217,-0.089 0.243,-0.084 0.275,-0.084C0.299,-0.084 0.318,-0.086 0.333,-0.09C0.348,-0.095 0.362,-0.103 0.374,-0.115C0.387,-0.127 0.401,-0.145 0.418,-0.168L0.502,-0.113C0.472,-0.066 0.44,-0.033 0.406,-0.015C0.373,0.003 0.329,0.013 0.275,0.013C0.215,0.013 0.168,0.003 0.133,-0.017C0.098,-0.037 0.073,-0.068 0.058,-0.111C0.043,-0.153 0.035,-0.21 0.035,-0.281C0.035,-0.352 0.043,-0.408 0.058,-0.451C0.073,-0.493 0.098,-0.525 0.133,-0.545C0.168,-0.565 0.215,-0.575 0.275,-0.575ZM0.395,-0.349C0.391,-0.382 0.385,-0.408 0.377,-0.426C0.369,-0.445 0.357,-0.458 0.34,-0.466C0.324,-0.474 0.303,-0.478 0.275,-0.478C0.245,-0.478 0.221,-0.474 0.203,-0.466C0.185,-0.458 0.171,-0.445 0.161,-0.426C0.152,-0.408 0.146,-0.382 0.143,-0.349L0.395,-0.349Z" style="fill:rgb(89,89,89);fill-rule:nonzero;"/>
            </g>
            <g transform="matrix(50,0,0,50,743.807,676)">
                <path d="M0.268,0.013C0.212,0.013 0.167,0.003 0.135,-0.017C0.103,-0.037 0.079,-0.068 0.065,-0.11C0.051,-0.152 0.044,-0.209 0.044,-0.28C0.044,-0.352 0.051,-0.408 0.065,-0.451C0.079,-0.493 0.103,-0.525 0.135,-0.545C0.167,-0.565 0.212,-0.575 0.268,-0.575C0.311,-0.575 0.352,-0.567 0.39,-0.553L0.39,-0.727L0.495,-0.727L0.495,-0L0.39,-0L0.39,-0.006C0.355,0.006 0.314,0.013 0.268,0.013ZM0.268,-0.084C0.31,-0.084 0.341,-0.088 0.36,-0.098C0.38,-0.107 0.39,-0.12 0.39,-0.136L0.39,-0.351C0.39,-0.395 0.38,-0.427 0.361,-0.447C0.342,-0.468 0.311,-0.478 0.268,-0.478C0.237,-0.478 0.212,-0.472 0.195,-0.46C0.178,-0.448 0.166,-0.428 0.159,-0.4C0.152,-0.371 0.148,-0.332 0.148,-0.28C0.148,-0.228 0.152,-0.189 0.159,-0.161C0.166,-0.133 0.178,-0.113 0.195,-0.101C0.212,-0.09 0.237,-0.084 0.268,-0.084Z" style="fill:rgb(89,89,89);fill-rule:nonzero;"/>
            </g>
        </g>
    </g>
</svg>
