<?xml version="1.0" encoding="UTF-8" standalone="no"?>
<!DOCTYPE svg PUBLIC "-//W3C//DTD SVG 1.1//EN" "http://www.w3.org/Graphics/SVG/1.1/DTD/svg11.dtd">
<svg width="204px" height="329px" version="1.1" xmlns="http://www.w3.org/2000/svg" xmlns:xlink="http://www.w3.org/1999/xlink" xml:space="preserve" xmlns:serif="http://www.serif.com/" style="fill-rule:evenodd;clip-rule:evenodd;stroke-linecap:round;stroke-linejoin:round;stroke-miterlimit:1.5;">
    <g transform="matrix(1,0,0,1,-34.3761,-7.46926)">
        <g transform="matrix(0.204167,0,0,0.527778,0,0)">
            <g transform="matrix(2.72109,0,0,1.05263,-344.215,-159.158)">
                <g transform="matrix(1.8,-0,-0,1.8,188.376,164.645)">
                    <path d="M124.513,294.642L117.569,308.531L110.624,294.642L124.513,294.642Z" style="fill:rgb(128,128,128);"/>
                    <path d="M117.569,241.864L117.569,297.42" style="fill:none;stroke:rgb(128,128,128);stroke-width:4.63px;"/>
                </g>
            </g>
        </g>
        <g transform="matrix(0.204167,0,0,0.527778,0,0)">
            <g transform="matrix(4.66222e-15,1.05263,-2.26362,2.16804e-15,2428.45,-369.684)">
                <g transform="matrix(4.45658e-15,-2.16377,1.8,3.70734e-15,364.645,998.434)">
                    <path d="M142.569,26.586L128.68,19.642L142.569,12.697L142.569,26.586Z" style="fill:rgb(44,151,212);"/>
                    <path d="M184.139,19.642L139.791,19.642" style="fill:none;stroke:rgb(44,151,212);stroke-width:4.63px;"/>
                </g>
            </g>
        </g>
        <g transform="matrix(0.204167,0,0,0.527778,0,0)">
            <g transform="matrix(-5.27121e-15,-1.05263,2.72109,-2.03913e-15,-888.433,893.474)">
                <path d="M400,600L400,720" style="fill:none;stroke:rgb(44,151,212);stroke-width:8.33px;"/>
            </g>
        </g>
        <g transform="matrix(0.204167,0,0,0.527778,0,0)">
            <g transform="matrix(1.66619e-16,-1.05263,2.72109,6.44551e-17,-344.215,472.421)">
                <circle cx="400" cy="400" r="20" style="fill:rgb(232,68,65);"/>
            </g>
        </g>
        <g transform="matrix(0.204167,0,0,0.527778,0,0)">
            <g transform="matrix(1.66619e-16,-1.05263,2.72109,6.44551e-17,-344.69,612.421)">
                <circle cx="400" cy="400" r="20" style="fill:rgb(232,68,65);"/>
            </g>
        </g>
        <g transform="matrix(0.204167,0,0,0.527778,0,0)">
            <g transform="matrix(1.66619e-16,-1.05263,2.72109,6.44551e-17,-344.215,756.881)">
                <circle cx="400" cy="400" r="20" style="fill:rgb(232,68,65);"/>
            </g>
        </g>
        <g transform="matrix(0.204167,0,0,0.527778,0,0)">
            <g transform="matrix(-2.94232e-18,-0.474101,2.72109,1.00016e-16,-344.215,525.469)">
                <path d="M400,400L1000,400" style="fill:none;stroke:rgb(232,68,65);stroke-width:10.75px;"/>
            </g>
        </g>
        <g transform="matrix(0.204167,0,0,0.527778,0,0)">
            <g transform="matrix(-2.94232e-18,-0.192566,2.72109,4.06234e-17,-344.215,528.395)">
                <path d="M400,400L1000,400" style="fill:none;stroke:rgb(232,68,65);stroke-width:11.59px;stroke-dasharray:23.19,23.19,0,0;"/>
            </g>
        </g>
        <g transform="matrix(0.204167,0,0,0.527778,0,0)">
            <g transform="matrix(8.06875e-17,-0.701754,2.72109,7.62118e-17,-18.1594,753.123)">
                <path d="M400,400L1000,400" style="fill:none;stroke:rgb(44,151,212);stroke-width:9.81px;"/>
            </g>
        </g>
        <g transform="matrix(0.204167,0,0,0.527778,0,0)">
            <g transform="matrix(2.72109,0,0,1.05263,-1685.7,-164.179)">
                <g transform="matrix(41.8814,0,0,41.8814,680,220)">
                    <path d="M0.273,0.013C0.215,0.013 0.168,0.005 0.135,-0.011C0.101,-0.027 0.076,-0.053 0.061,-0.088C0.046,-0.123 0.038,-0.17 0.038,-0.229L0.038,-0.479C0.038,-0.543 0.046,-0.594 0.061,-0.632C0.076,-0.67 0.101,-0.698 0.135,-0.715C0.168,-0.732 0.215,-0.74 0.273,-0.74C0.328,-0.74 0.372,-0.734 0.406,-0.723C0.44,-0.711 0.465,-0.692 0.482,-0.666C0.498,-0.64 0.506,-0.605 0.506,-0.562L0.401,-0.562C0.401,-0.584 0.397,-0.6 0.389,-0.612C0.38,-0.624 0.367,-0.632 0.349,-0.637C0.331,-0.641 0.305,-0.644 0.273,-0.644C0.238,-0.644 0.211,-0.639 0.193,-0.63C0.175,-0.62 0.162,-0.604 0.154,-0.58C0.147,-0.557 0.143,-0.523 0.143,-0.479L0.143,-0.452C0.176,-0.467 0.219,-0.475 0.273,-0.475C0.333,-0.475 0.38,-0.467 0.413,-0.453C0.447,-0.438 0.471,-0.413 0.486,-0.378C0.501,-0.343 0.508,-0.294 0.508,-0.23C0.508,-0.171 0.501,-0.123 0.485,-0.088C0.47,-0.053 0.446,-0.027 0.412,-0.011C0.378,0.005 0.332,0.013 0.273,0.013ZM0.273,-0.084C0.308,-0.084 0.335,-0.088 0.353,-0.096C0.372,-0.105 0.385,-0.119 0.392,-0.14C0.4,-0.161 0.404,-0.191 0.404,-0.23C0.404,-0.274 0.4,-0.306 0.392,-0.326C0.385,-0.347 0.372,-0.361 0.354,-0.368C0.336,-0.375 0.309,-0.378 0.273,-0.378C0.236,-0.378 0.209,-0.375 0.191,-0.368C0.173,-0.361 0.161,-0.347 0.154,-0.326C0.146,-0.305 0.143,-0.273 0.143,-0.229C0.143,-0.19 0.147,-0.161 0.154,-0.14C0.162,-0.119 0.175,-0.105 0.193,-0.096C0.211,-0.088 0.238,-0.084 0.273,-0.084Z" style="fill:rgb(232,68,65);fill-rule:nonzero;"/>
                </g>
                <g transform="matrix(41.8814,0,0,41.8814,702.844,220)">
                    <path d="M0.447,-0L0.343,-0L0.343,-0.184L0.029,-0.184L0.029,-0.259L0.36,-0.727L0.447,-0.727L0.447,-0.28L0.515,-0.28L0.515,-0.184L0.447,-0.184L0.447,-0ZM0.343,-0.517L0.165,-0.28L0.343,-0.28L0.343,-0.517Z" style="fill:rgb(232,68,65);fill-rule:nonzero;"/>
                </g>
                <g transform="matrix(41.8814,0,0,41.8814,725.689,220)">
                    <path d="M0.273,0.013C0.213,0.013 0.167,0.005 0.134,-0.009C0.101,-0.024 0.078,-0.047 0.064,-0.078C0.05,-0.11 0.044,-0.153 0.044,-0.207L0.149,-0.207C0.149,-0.172 0.152,-0.146 0.157,-0.13C0.163,-0.113 0.174,-0.101 0.191,-0.094C0.209,-0.087 0.236,-0.084 0.273,-0.084C0.307,-0.084 0.332,-0.087 0.35,-0.094C0.368,-0.101 0.38,-0.113 0.387,-0.13C0.394,-0.147 0.397,-0.172 0.397,-0.204C0.397,-0.241 0.394,-0.269 0.388,-0.286C0.382,-0.304 0.372,-0.316 0.357,-0.323C0.343,-0.329 0.32,-0.334 0.29,-0.336L0.198,-0.336L0.198,-0.433L0.29,-0.433C0.322,-0.435 0.345,-0.439 0.359,-0.443C0.373,-0.448 0.383,-0.457 0.389,-0.47C0.394,-0.484 0.397,-0.506 0.397,-0.536C0.397,-0.565 0.394,-0.587 0.387,-0.602C0.38,-0.617 0.368,-0.628 0.35,-0.634C0.332,-0.64 0.307,-0.644 0.273,-0.644C0.235,-0.644 0.207,-0.64 0.19,-0.634C0.174,-0.627 0.163,-0.616 0.158,-0.6C0.153,-0.583 0.15,-0.557 0.15,-0.521L0.044,-0.521C0.044,-0.577 0.05,-0.62 0.064,-0.651C0.078,-0.683 0.101,-0.705 0.134,-0.719C0.166,-0.733 0.213,-0.74 0.273,-0.74C0.329,-0.74 0.374,-0.733 0.407,-0.72C0.44,-0.706 0.464,-0.684 0.479,-0.655C0.494,-0.626 0.502,-0.586 0.502,-0.536C0.502,-0.496 0.497,-0.465 0.488,-0.444C0.478,-0.422 0.462,-0.403 0.438,-0.385C0.462,-0.365 0.478,-0.342 0.488,-0.316C0.497,-0.29 0.502,-0.253 0.502,-0.204C0.502,-0.151 0.494,-0.109 0.48,-0.078C0.465,-0.047 0.441,-0.024 0.408,-0.009C0.375,0.005 0.33,0.013 0.273,0.013Z" style="fill:rgb(232,68,65);fill-rule:nonzero;"/>
                </g>
                <g transform="matrix(41.8814,0,0,41.8814,748.533,220)">
                    <path d="M0.268,0.013C0.212,0.013 0.167,0.003 0.135,-0.017C0.103,-0.037 0.079,-0.068 0.065,-0.11C0.051,-0.152 0.044,-0.209 0.044,-0.28C0.044,-0.352 0.051,-0.408 0.065,-0.451C0.079,-0.493 0.103,-0.525 0.135,-0.545C0.167,-0.565 0.212,-0.575 0.268,-0.575C0.311,-0.575 0.352,-0.567 0.39,-0.553L0.39,-0.727L0.495,-0.727L0.495,-0L0.39,-0L0.39,-0.006C0.355,0.006 0.314,0.013 0.268,0.013ZM0.268,-0.084C0.31,-0.084 0.341,-0.088 0.36,-0.098C0.38,-0.107 0.39,-0.12 0.39,-0.136L0.39,-0.351C0.39,-0.395 0.38,-0.427 0.361,-0.447C0.342,-0.468 0.311,-0.478 0.268,-0.478C0.237,-0.478 0.212,-0.472 0.195,-0.46C0.178,-0.448 0.166,-0.428 0.159,-0.4C0.152,-0.371 0.148,-0.332 0.148,-0.28C0.148,-0.228 0.152,-0.189 0.159,-0.161C0.166,-0.133 0.178,-0.113 0.195,-0.101C0.212,-0.09 0.237,-0.084 0.268,-0.084Z" style="fill:rgb(232,68,65);fill-rule:nonzero;"/>
                </g>
                <g transform="matrix(41.8814,0,0,41.8814,771.378,220)">
                    <path d="M0.347,-0.74C0.388,-0.74 0.421,-0.736 0.446,-0.728C0.471,-0.72 0.491,-0.707 0.506,-0.69C0.521,-0.672 0.532,-0.647 0.541,-0.615L0.443,-0.582C0.438,-0.601 0.433,-0.614 0.428,-0.622C0.423,-0.63 0.414,-0.635 0.403,-0.639C0.391,-0.642 0.373,-0.644 0.347,-0.644C0.32,-0.644 0.3,-0.64 0.286,-0.634C0.273,-0.628 0.264,-0.617 0.258,-0.6C0.253,-0.584 0.25,-0.56 0.25,-0.527L0.25,-0.475L0.412,-0.475L0.412,-0.378L0.25,-0.378L0.25,-0L0.145,-0L0.145,-0.378L0.033,-0.378L0.033,-0.475L0.145,-0.475L0.145,-0.527C0.145,-0.58 0.152,-0.622 0.165,-0.652C0.178,-0.683 0.199,-0.705 0.229,-0.719C0.258,-0.733 0.298,-0.74 0.347,-0.74Z" style="fill:rgb(232,68,65);fill-rule:nonzero;"/>
                </g>
                <g transform="matrix(41.8814,0,0,41.8814,794.222,220)">
                    <path d="M0.249,0.013C0.196,0.013 0.153,0.007 0.121,-0.005C0.09,-0.018 0.067,-0.037 0.052,-0.062C0.038,-0.088 0.031,-0.122 0.031,-0.165C0.031,-0.214 0.038,-0.251 0.052,-0.278C0.066,-0.304 0.088,-0.323 0.12,-0.333C0.151,-0.344 0.194,-0.349 0.249,-0.349L0.364,-0.349L0.364,-0.369C0.364,-0.395 0.36,-0.414 0.354,-0.428C0.348,-0.442 0.336,-0.452 0.32,-0.458C0.304,-0.463 0.28,-0.466 0.249,-0.466C0.224,-0.466 0.204,-0.464 0.191,-0.459C0.178,-0.453 0.167,-0.444 0.16,-0.431C0.153,-0.418 0.146,-0.397 0.139,-0.37L0.039,-0.395C0.05,-0.438 0.064,-0.472 0.08,-0.498C0.096,-0.524 0.118,-0.543 0.145,-0.556C0.173,-0.568 0.207,-0.575 0.249,-0.575C0.328,-0.575 0.384,-0.558 0.418,-0.524C0.451,-0.49 0.468,-0.439 0.468,-0.369L0.468,-0.156C0.468,-0.132 0.471,-0.115 0.475,-0.107C0.48,-0.099 0.491,-0.095 0.506,-0.095C0.511,-0.095 0.522,-0.096 0.539,-0.097L0.539,-0.001C0.532,-0 0.522,-0 0.509,-0C0.456,-0 0.42,-0.012 0.4,-0.036C0.384,-0.019 0.363,-0.006 0.339,0.001C0.315,0.009 0.285,0.013 0.249,0.013ZM0.249,-0.084C0.28,-0.084 0.304,-0.087 0.32,-0.095C0.336,-0.102 0.348,-0.114 0.354,-0.132C0.36,-0.149 0.364,-0.175 0.364,-0.208L0.364,-0.253L0.249,-0.253C0.215,-0.253 0.19,-0.251 0.175,-0.248C0.161,-0.244 0.151,-0.237 0.145,-0.225C0.138,-0.213 0.135,-0.193 0.135,-0.165C0.135,-0.143 0.138,-0.126 0.145,-0.115C0.151,-0.104 0.162,-0.096 0.178,-0.091C0.194,-0.086 0.218,-0.084 0.249,-0.084Z" style="fill:rgb(232,68,65);fill-rule:nonzero;"/>
                </g>
                <g transform="matrix(41.8814,0,0,41.8814,817.066,220)">
                    <path d="M0.273,0.013C0.213,0.013 0.165,0.005 0.13,-0.01C0.096,-0.024 0.07,-0.048 0.055,-0.08C0.039,-0.112 0.031,-0.155 0.031,-0.209C0.031,-0.258 0.036,-0.296 0.047,-0.321C0.058,-0.347 0.078,-0.37 0.105,-0.389C0.085,-0.406 0.072,-0.425 0.064,-0.447C0.056,-0.468 0.052,-0.499 0.052,-0.539C0.052,-0.588 0.059,-0.626 0.074,-0.655C0.088,-0.685 0.111,-0.706 0.143,-0.72C0.175,-0.733 0.218,-0.74 0.273,-0.74C0.327,-0.74 0.371,-0.733 0.403,-0.72C0.435,-0.706 0.458,-0.685 0.473,-0.655C0.487,-0.626 0.495,-0.588 0.495,-0.539C0.495,-0.499 0.491,-0.468 0.483,-0.447C0.475,-0.425 0.461,-0.406 0.44,-0.389C0.468,-0.37 0.487,-0.347 0.499,-0.321C0.51,-0.296 0.515,-0.258 0.515,-0.209C0.515,-0.155 0.508,-0.112 0.492,-0.08C0.476,-0.048 0.451,-0.024 0.415,-0.01C0.38,0.005 0.333,0.013 0.273,0.013ZM0.273,-0.433C0.307,-0.433 0.332,-0.435 0.347,-0.44C0.363,-0.444 0.374,-0.454 0.38,-0.469C0.387,-0.483 0.39,-0.507 0.39,-0.539C0.39,-0.567 0.387,-0.588 0.38,-0.603C0.373,-0.618 0.362,-0.628 0.345,-0.635C0.329,-0.641 0.305,-0.644 0.273,-0.644C0.241,-0.644 0.216,-0.641 0.2,-0.635C0.184,-0.628 0.172,-0.618 0.166,-0.603C0.16,-0.588 0.156,-0.567 0.156,-0.539C0.156,-0.507 0.16,-0.483 0.166,-0.469C0.172,-0.454 0.183,-0.444 0.199,-0.44C0.214,-0.435 0.239,-0.433 0.273,-0.433ZM0.273,-0.084C0.31,-0.084 0.339,-0.087 0.358,-0.095C0.378,-0.102 0.391,-0.114 0.399,-0.132C0.407,-0.15 0.411,-0.176 0.411,-0.209C0.411,-0.247 0.407,-0.275 0.4,-0.293C0.392,-0.31 0.379,-0.322 0.36,-0.328C0.341,-0.333 0.312,-0.336 0.273,-0.336C0.233,-0.336 0.204,-0.333 0.186,-0.328C0.167,-0.322 0.154,-0.31 0.147,-0.293C0.139,-0.275 0.135,-0.247 0.135,-0.209C0.135,-0.176 0.139,-0.15 0.147,-0.132C0.154,-0.114 0.168,-0.102 0.187,-0.095C0.207,-0.087 0.235,-0.084 0.273,-0.084Z" style="fill:rgb(232,68,65);fill-rule:nonzero;"/>
                </g>
            </g>
        </g>
        <g transform="matrix(0.204167,0,0,0.527778,0,0)">
            <g transform="matrix(2.72109,0,0,1.05263,-1686.17,-24.1794)">
                <g transform="matrix(41.8814,0,0,41.8814,680,220)">
                    <path d="M0.325,-0.096L0.455,-0.096L0.455,-0L0.092,-0L0.092,-0.096L0.221,-0.096L0.221,-0.525C0.18,-0.501 0.131,-0.489 0.074,-0.489L0.074,-0.586C0.123,-0.586 0.159,-0.598 0.183,-0.62C0.207,-0.643 0.219,-0.679 0.219,-0.727L0.325,-0.727L0.325,-0.096Z" style="fill:rgb(232,68,65);fill-rule:nonzero;"/>
                </g>
                <g transform="matrix(41.8814,0,0,41.8814,702.844,220)">
                    <path d="M0.347,-0.74C0.388,-0.74 0.421,-0.736 0.446,-0.728C0.471,-0.72 0.491,-0.707 0.506,-0.69C0.521,-0.672 0.532,-0.647 0.541,-0.615L0.443,-0.582C0.438,-0.601 0.433,-0.614 0.428,-0.622C0.423,-0.63 0.414,-0.635 0.403,-0.639C0.391,-0.642 0.373,-0.644 0.347,-0.644C0.32,-0.644 0.3,-0.64 0.286,-0.634C0.273,-0.628 0.264,-0.617 0.258,-0.6C0.253,-0.584 0.25,-0.56 0.25,-0.527L0.25,-0.475L0.412,-0.475L0.412,-0.378L0.25,-0.378L0.25,-0L0.145,-0L0.145,-0.378L0.033,-0.378L0.033,-0.475L0.145,-0.475L0.145,-0.527C0.145,-0.58 0.152,-0.622 0.165,-0.652C0.178,-0.683 0.199,-0.705 0.229,-0.719C0.258,-0.733 0.298,-0.74 0.347,-0.74Z" style="fill:rgb(232,68,65);fill-rule:nonzero;"/>
                </g>
                <g transform="matrix(41.8814,0,0,41.8814,725.689,220)">
                    <path d="M0.268,0.013C0.212,0.013 0.167,0.003 0.135,-0.017C0.103,-0.037 0.079,-0.068 0.065,-0.11C0.051,-0.152 0.044,-0.209 0.044,-0.28C0.044,-0.352 0.051,-0.408 0.065,-0.451C0.079,-0.493 0.103,-0.525 0.135,-0.545C0.167,-0.565 0.212,-0.575 0.268,-0.575C0.311,-0.575 0.352,-0.567 0.39,-0.553L0.39,-0.727L0.495,-0.727L0.495,-0L0.39,-0L0.39,-0.006C0.355,0.006 0.314,0.013 0.268,0.013ZM0.268,-0.084C0.31,-0.084 0.341,-0.088 0.36,-0.098C0.38,-0.107 0.39,-0.12 0.39,-0.136L0.39,-0.351C0.39,-0.395 0.38,-0.427 0.361,-0.447C0.342,-0.468 0.311,-0.478 0.268,-0.478C0.237,-0.478 0.212,-0.472 0.195,-0.46C0.178,-0.448 0.166,-0.428 0.159,-0.4C0.152,-0.371 0.148,-0.332 0.148,-0.28C0.148,-0.228 0.152,-0.189 0.159,-0.161C0.166,-0.133 0.178,-0.113 0.195,-0.101C0.212,-0.09 0.237,-0.084 0.268,-0.084Z" style="fill:rgb(232,68,65);fill-rule:nonzero;"/>
                </g>
                <g transform="matrix(41.8814,0,0,41.8814,748.533,220)">
                    <path d="M0.273,0.013C0.213,0.013 0.165,0.005 0.13,-0.01C0.096,-0.024 0.07,-0.048 0.055,-0.08C0.039,-0.112 0.031,-0.155 0.031,-0.209C0.031,-0.258 0.036,-0.296 0.047,-0.321C0.058,-0.347 0.078,-0.37 0.105,-0.389C0.085,-0.406 0.072,-0.425 0.064,-0.447C0.056,-0.468 0.052,-0.499 0.052,-0.539C0.052,-0.588 0.059,-0.626 0.074,-0.655C0.088,-0.685 0.111,-0.706 0.143,-0.72C0.175,-0.733 0.218,-0.74 0.273,-0.74C0.327,-0.74 0.371,-0.733 0.403,-0.72C0.435,-0.706 0.458,-0.685 0.473,-0.655C0.487,-0.626 0.495,-0.588 0.495,-0.539C0.495,-0.499 0.491,-0.468 0.483,-0.447C0.475,-0.425 0.461,-0.406 0.44,-0.389C0.468,-0.37 0.487,-0.347 0.499,-0.321C0.51,-0.296 0.515,-0.258 0.515,-0.209C0.515,-0.155 0.508,-0.112 0.492,-0.08C0.476,-0.048 0.451,-0.024 0.415,-0.01C0.38,0.005 0.333,0.013 0.273,0.013ZM0.273,-0.433C0.307,-0.433 0.332,-0.435 0.347,-0.44C0.363,-0.444 0.374,-0.454 0.38,-0.469C0.387,-0.483 0.39,-0.507 0.39,-0.539C0.39,-0.567 0.387,-0.588 0.38,-0.603C0.373,-0.618 0.362,-0.628 0.345,-0.635C0.329,-0.641 0.305,-0.644 0.273,-0.644C0.241,-0.644 0.216,-0.641 0.2,-0.635C0.184,-0.628 0.172,-0.618 0.166,-0.603C0.16,-0.588 0.156,-0.567 0.156,-0.539C0.156,-0.507 0.16,-0.483 0.166,-0.469C0.172,-0.454 0.183,-0.444 0.199,-0.44C0.214,-0.435 0.239,-0.433 0.273,-0.433ZM0.273,-0.084C0.31,-0.084 0.339,-0.087 0.358,-0.095C0.378,-0.102 0.391,-0.114 0.399,-0.132C0.407,-0.15 0.411,-0.176 0.411,-0.209C0.411,-0.247 0.407,-0.275 0.4,-0.293C0.392,-0.31 0.379,-0.322 0.36,-0.328C0.341,-0.333 0.312,-0.336 0.273,-0.336C0.233,-0.336 0.204,-0.333 0.186,-0.328C0.167,-0.322 0.154,-0.31 0.147,-0.293C0.139,-0.275 0.135,-0.247 0.135,-0.209C0.135,-0.176 0.139,-0.15 0.147,-0.132C0.154,-0.114 0.168,-0.102 0.187,-0.095C0.207,-0.087 0.235,-0.084 0.273,-0.084Z" style="fill:rgb(232,68,65);fill-rule:nonzero;"/>
                </g>
                <g transform="matrix(41.8814,0,0,41.8814,771.378,220)">
                    <path d="M0.325,-0.096L0.455,-0.096L0.455,-0L0.092,-0L0.092,-0.096L0.221,-0.096L0.221,-0.525C0.18,-0.501 0.131,-0.489 0.074,-0.489L0.074,-0.586C0.123,-0.586 0.159,-0.598 0.183,-0.62C0.207,-0.643 0.219,-0.679 0.219,-0.727L0.325,-0.727L0.325,-0.096Z" style="fill:rgb(232,68,65);fill-rule:nonzero;"/>
                </g>
                <g transform="matrix(41.8814,0,0,41.8814,794.222,220)">
                    <path d="M0.273,0.013C0.213,0.013 0.167,0.005 0.134,-0.009C0.101,-0.024 0.078,-0.047 0.064,-0.078C0.05,-0.11 0.044,-0.153 0.044,-0.207L0.149,-0.207C0.149,-0.172 0.152,-0.146 0.157,-0.13C0.163,-0.113 0.174,-0.101 0.191,-0.094C0.209,-0.087 0.236,-0.084 0.273,-0.084C0.307,-0.084 0.332,-0.087 0.35,-0.094C0.368,-0.101 0.38,-0.113 0.387,-0.13C0.394,-0.147 0.397,-0.172 0.397,-0.204C0.397,-0.241 0.394,-0.269 0.388,-0.286C0.382,-0.304 0.372,-0.316 0.357,-0.323C0.343,-0.329 0.32,-0.334 0.29,-0.336L0.198,-0.336L0.198,-0.433L0.29,-0.433C0.322,-0.435 0.345,-0.439 0.359,-0.443C0.373,-0.448 0.383,-0.457 0.389,-0.47C0.394,-0.484 0.397,-0.506 0.397,-0.536C0.397,-0.565 0.394,-0.587 0.387,-0.602C0.38,-0.617 0.368,-0.628 0.35,-0.634C0.332,-0.64 0.307,-0.644 0.273,-0.644C0.235,-0.644 0.207,-0.64 0.19,-0.634C0.174,-0.627 0.163,-0.616 0.158,-0.6C0.153,-0.583 0.15,-0.557 0.15,-0.521L0.044,-0.521C0.044,-0.577 0.05,-0.62 0.064,-0.651C0.078,-0.683 0.101,-0.705 0.134,-0.719C0.166,-0.733 0.213,-0.74 0.273,-0.74C0.329,-0.74 0.374,-0.733 0.407,-0.72C0.44,-0.706 0.464,-0.684 0.479,-0.655C0.494,-0.626 0.502,-0.586 0.502,-0.536C0.502,-0.496 0.497,-0.465 0.488,-0.444C0.478,-0.422 0.462,-0.403 0.438,-0.385C0.462,-0.365 0.478,-0.342 0.488,-0.316C0.497,-0.29 0.502,-0.253 0.502,-0.204C0.502,-0.151 0.494,-0.109 0.48,-0.078C0.465,-0.047 0.441,-0.024 0.408,-0.009C0.375,0.005 0.33,0.013 0.273,0.013Z" style="fill:rgb(232,68,65);fill-rule:nonzero;"/>
                </g>
                <g transform="matrix(41.8814,0,0,41.8814,817.066,220)">
                    <path d="M0.11,-0C0.126,-0.07 0.147,-0.138 0.173,-0.202C0.198,-0.267 0.226,-0.328 0.255,-0.385C0.285,-0.443 0.326,-0.518 0.377,-0.61L0.389,-0.631L0.035,-0.631L0.035,-0.727L0.506,-0.727L0.506,-0.631C0.502,-0.622 0.496,-0.613 0.49,-0.604C0.485,-0.594 0.479,-0.584 0.474,-0.573C0.425,-0.489 0.387,-0.42 0.358,-0.366C0.33,-0.312 0.303,-0.255 0.279,-0.194C0.254,-0.133 0.234,-0.068 0.217,-0L0.11,-0Z" style="fill:rgb(232,68,65);fill-rule:nonzero;"/>
                </g>
            </g>
        </g>
        <g transform="matrix(0.204167,0,0,0.527778,0,0)">
            <g transform="matrix(2.72109,0,0,1.05263,-1685.7,120.281)">
                <g transform="matrix(41.8814,0,0,41.8814,680,220)">
                    <path d="M0.347,-0.74C0.388,-0.74 0.421,-0.736 0.446,-0.728C0.471,-0.72 0.491,-0.707 0.506,-0.69C0.521,-0.672 0.532,-0.647 0.541,-0.615L0.443,-0.582C0.438,-0.601 0.433,-0.614 0.428,-0.622C0.423,-0.63 0.414,-0.635 0.403,-0.639C0.391,-0.642 0.373,-0.644 0.347,-0.644C0.32,-0.644 0.3,-0.64 0.286,-0.634C0.273,-0.628 0.264,-0.617 0.258,-0.6C0.253,-0.584 0.25,-0.56 0.25,-0.527L0.25,-0.475L0.412,-0.475L0.412,-0.378L0.25,-0.378L0.25,-0L0.145,-0L0.145,-0.378L0.033,-0.378L0.033,-0.475L0.145,-0.475L0.145,-0.527C0.145,-0.58 0.152,-0.622 0.165,-0.652C0.178,-0.683 0.199,-0.705 0.229,-0.719C0.258,-0.733 0.298,-0.74 0.347,-0.74Z" style="fill:rgb(232,68,65);fill-rule:nonzero;"/>
                </g>
                <g transform="matrix(41.8814,0,0,41.8814,702.844,220)">
                    <path d="M0.035,-0.069C0.035,-0.102 0.043,-0.132 0.061,-0.16C0.079,-0.189 0.101,-0.214 0.127,-0.236C0.153,-0.259 0.187,-0.285 0.229,-0.315C0.27,-0.346 0.302,-0.371 0.325,-0.39C0.348,-0.41 0.367,-0.432 0.383,-0.456C0.399,-0.481 0.407,-0.507 0.407,-0.535C0.407,-0.565 0.403,-0.588 0.396,-0.603C0.388,-0.618 0.375,-0.628 0.356,-0.635C0.338,-0.641 0.309,-0.644 0.272,-0.644C0.235,-0.644 0.208,-0.641 0.189,-0.635C0.17,-0.628 0.157,-0.618 0.15,-0.603C0.142,-0.588 0.138,-0.565 0.138,-0.535C0.138,-0.523 0.138,-0.514 0.139,-0.507L0.035,-0.507C0.032,-0.566 0.038,-0.612 0.052,-0.645C0.067,-0.679 0.091,-0.703 0.126,-0.718C0.161,-0.733 0.209,-0.74 0.272,-0.74C0.331,-0.74 0.378,-0.733 0.413,-0.72C0.448,-0.707 0.473,-0.685 0.489,-0.655C0.504,-0.626 0.512,-0.585 0.512,-0.535C0.512,-0.491 0.501,-0.451 0.479,-0.415C0.457,-0.378 0.43,-0.347 0.4,-0.32C0.369,-0.293 0.329,-0.262 0.281,-0.227C0.24,-0.199 0.209,-0.175 0.187,-0.155C0.165,-0.135 0.15,-0.116 0.142,-0.096L0.51,-0.096L0.51,-0L0.035,-0L0.035,-0.069Z" style="fill:rgb(232,68,65);fill-rule:nonzero;"/>
                </g>
                <g transform="matrix(41.8814,0,0,41.8814,725.689,220)">
                    <path d="M0.289,0.013C0.228,0.013 0.181,0.003 0.145,-0.017C0.11,-0.037 0.085,-0.068 0.07,-0.11C0.054,-0.152 0.046,-0.209 0.046,-0.281C0.046,-0.352 0.054,-0.409 0.07,-0.452C0.085,-0.494 0.111,-0.525 0.146,-0.545C0.182,-0.565 0.231,-0.575 0.293,-0.575C0.345,-0.575 0.388,-0.565 0.419,-0.546C0.451,-0.528 0.481,-0.494 0.51,-0.446L0.423,-0.395C0.408,-0.418 0.395,-0.436 0.384,-0.447C0.373,-0.459 0.36,-0.467 0.347,-0.471C0.333,-0.476 0.315,-0.478 0.293,-0.478C0.255,-0.478 0.226,-0.472 0.206,-0.46C0.186,-0.449 0.171,-0.429 0.163,-0.401C0.155,-0.373 0.151,-0.333 0.151,-0.281C0.151,-0.229 0.155,-0.189 0.163,-0.161C0.171,-0.133 0.185,-0.113 0.205,-0.101C0.224,-0.09 0.252,-0.084 0.289,-0.084C0.311,-0.084 0.329,-0.086 0.343,-0.091C0.357,-0.096 0.37,-0.104 0.382,-0.116C0.394,-0.128 0.408,-0.145 0.424,-0.169L0.51,-0.116C0.48,-0.068 0.449,-0.034 0.417,-0.015C0.385,0.003 0.342,0.013 0.289,0.013Z" style="fill:rgb(232,68,65);fill-rule:nonzero;"/>
                </g>
                <g transform="matrix(41.8814,0,0,41.8814,748.533,220)">
                    <path d="M0.447,-0L0.343,-0L0.343,-0.184L0.029,-0.184L0.029,-0.259L0.36,-0.727L0.447,-0.727L0.447,-0.28L0.515,-0.28L0.515,-0.184L0.447,-0.184L0.447,-0ZM0.343,-0.517L0.165,-0.28L0.343,-0.28L0.343,-0.517Z" style="fill:rgb(232,68,65);fill-rule:nonzero;"/>
                </g>
                <g transform="matrix(41.8814,0,0,41.8814,771.378,220)">
                    <path d="M0.275,-0.575C0.334,-0.575 0.38,-0.564 0.413,-0.542C0.446,-0.521 0.47,-0.487 0.483,-0.44C0.497,-0.394 0.503,-0.332 0.502,-0.253L0.141,-0.253C0.143,-0.209 0.148,-0.175 0.157,-0.151C0.166,-0.127 0.179,-0.109 0.198,-0.099C0.217,-0.089 0.243,-0.084 0.275,-0.084C0.299,-0.084 0.318,-0.086 0.333,-0.09C0.348,-0.095 0.362,-0.103 0.374,-0.115C0.387,-0.127 0.401,-0.145 0.418,-0.168L0.502,-0.113C0.472,-0.066 0.44,-0.033 0.406,-0.015C0.373,0.003 0.329,0.013 0.275,0.013C0.215,0.013 0.168,0.003 0.133,-0.017C0.098,-0.037 0.073,-0.068 0.058,-0.111C0.043,-0.153 0.035,-0.21 0.035,-0.281C0.035,-0.352 0.043,-0.408 0.058,-0.451C0.073,-0.493 0.098,-0.525 0.133,-0.545C0.168,-0.565 0.215,-0.575 0.275,-0.575ZM0.395,-0.349C0.391,-0.382 0.385,-0.408 0.377,-0.426C0.369,-0.445 0.357,-0.458 0.34,-0.466C0.324,-0.474 0.303,-0.478 0.275,-0.478C0.245,-0.478 0.221,-0.474 0.203,-0.466C0.185,-0.458 0.171,-0.445 0.161,-0.426C0.152,-0.408 0.146,-0.382 0.143,-0.349L0.395,-0.349Z" style="fill:rgb(232,68,65);fill-rule:nonzero;"/>
                </g>
                <g transform="matrix(41.8814,0,0,41.8814,794.222,220)">
                    <path d="M0.289,0.013C0.228,0.013 0.181,0.003 0.145,-0.017C0.11,-0.037 0.085,-0.068 0.07,-0.11C0.054,-0.152 0.046,-0.209 0.046,-0.281C0.046,-0.352 0.054,-0.409 0.07,-0.452C0.085,-0.494 0.111,-0.525 0.146,-0.545C0.182,-0.565 0.231,-0.575 0.293,-0.575C0.345,-0.575 0.388,-0.565 0.419,-0.546C0.451,-0.528 0.481,-0.494 0.51,-0.446L0.423,-0.395C0.408,-0.418 0.395,-0.436 0.384,-0.447C0.373,-0.459 0.36,-0.467 0.347,-0.471C0.333,-0.476 0.315,-0.478 0.293,-0.478C0.255,-0.478 0.226,-0.472 0.206,-0.46C0.186,-0.449 0.171,-0.429 0.163,-0.401C0.155,-0.373 0.151,-0.333 0.151,-0.281C0.151,-0.229 0.155,-0.189 0.163,-0.161C0.171,-0.133 0.185,-0.113 0.205,-0.101C0.224,-0.09 0.252,-0.084 0.289,-0.084C0.311,-0.084 0.329,-0.086 0.343,-0.091C0.357,-0.096 0.37,-0.104 0.382,-0.116C0.394,-0.128 0.408,-0.145 0.424,-0.169L0.51,-0.116C0.48,-0.068 0.449,-0.034 0.417,-0.015C0.385,0.003 0.342,0.013 0.289,0.013Z" style="fill:rgb(232,68,65);fill-rule:nonzero;"/>
                </g>
                <g transform="matrix(41.8814,0,0,41.8814,817.066,220)">
                    <path d="M0.273,0.013C0.228,0.013 0.187,-0.004 0.15,-0.036C0.113,-0.069 0.084,-0.114 0.063,-0.172C0.042,-0.229 0.032,-0.293 0.032,-0.364C0.032,-0.434 0.042,-0.498 0.063,-0.555C0.084,-0.613 0.113,-0.658 0.15,-0.691C0.187,-0.724 0.228,-0.74 0.273,-0.74C0.318,-0.74 0.358,-0.724 0.395,-0.691C0.432,-0.658 0.462,-0.613 0.483,-0.555C0.504,-0.498 0.515,-0.434 0.515,-0.364C0.515,-0.293 0.504,-0.229 0.483,-0.172C0.462,-0.114 0.432,-0.069 0.395,-0.036C0.358,-0.004 0.318,0.013 0.273,0.013ZM0.273,-0.084C0.296,-0.084 0.318,-0.096 0.339,-0.121C0.36,-0.146 0.377,-0.18 0.39,-0.223C0.403,-0.266 0.409,-0.313 0.409,-0.364C0.409,-0.415 0.403,-0.462 0.39,-0.505C0.377,-0.548 0.36,-0.582 0.339,-0.606C0.318,-0.631 0.296,-0.644 0.273,-0.644C0.25,-0.644 0.228,-0.631 0.206,-0.606C0.185,-0.582 0.168,-0.548 0.155,-0.505C0.143,-0.462 0.136,-0.415 0.136,-0.364C0.136,-0.313 0.143,-0.266 0.155,-0.223C0.168,-0.18 0.185,-0.146 0.206,-0.121C0.228,-0.096 0.25,-0.084 0.273,-0.084ZM0.273,-0.294C0.251,-0.294 0.233,-0.3 0.219,-0.313C0.205,-0.326 0.198,-0.343 0.198,-0.364C0.198,-0.384 0.205,-0.4 0.219,-0.413C0.233,-0.425 0.251,-0.432 0.273,-0.432C0.295,-0.432 0.313,-0.425 0.327,-0.413C0.341,-0.4 0.348,-0.384 0.348,-0.364C0.348,-0.343 0.341,-0.326 0.327,-0.313C0.313,-0.3 0.295,-0.294 0.273,-0.294Z" style="fill:rgb(232,68,65);fill-rule:nonzero;"/>
                </g>
            </g>
        </g>
        <g transform="matrix(0.204167,0,0,0.527778,0,0)">
            <g transform="matrix(1.66619e-16,-1.05263,2.72109,6.44551e-17,-344.215,893.474)">
                <circle cx="400" cy="400" r="20" style="fill:rgb(22,179,56);"/>
            </g>
        </g>
        <g transform="matrix(0.204167,0,0,0.527778,0,0)">
            <g transform="matrix(2.72109,0,0,1.05263,-1500.52,256.873)">
                <g transform="matrix(41.8814,0,0,41.8814,680,220)">
                    <path d="M0.395,-0.433L0.395,-0.727L0.499,-0.727L0.499,-0L0.395,-0L0.395,-0.336L0.152,-0.336L0.152,-0L0.047,-0L0.047,-0.727L0.152,-0.727L0.152,-0.433L0.395,-0.433Z" style="fill:rgb(22,179,56);fill-rule:nonzero;"/>
                </g>
                <g transform="matrix(41.8814,0,0,41.8814,702.844,220)">
                    <path d="M0.508,-0.727L0.508,-0.631L0.168,-0.631L0.168,-0.433L0.386,-0.433L0.386,-0.336L0.168,-0.336L0.168,-0.096L0.508,-0.096L0.508,-0L0.064,-0L0.064,-0.727L0.508,-0.727Z" style="fill:rgb(22,179,56);fill-rule:nonzero;"/>
                </g>
                <g transform="matrix(41.8814,0,0,41.8814,725.689,220)">
                    <path d="M0.531,-0L0.423,-0L0.376,-0.169L0.169,-0.169L0.123,-0L0.015,-0L0.218,-0.727L0.328,-0.727L0.531,-0ZM0.273,-0.548L0.195,-0.265L0.35,-0.265L0.273,-0.548Z" style="fill:rgb(22,179,56);fill-rule:nonzero;"/>
                </g>
                <g transform="matrix(41.8814,0,0,41.8814,748.533,220)">
                    <path d="M0.285,-0.727C0.344,-0.727 0.391,-0.715 0.425,-0.691C0.459,-0.667 0.484,-0.628 0.499,-0.576C0.514,-0.523 0.522,-0.453 0.522,-0.364C0.522,-0.275 0.514,-0.204 0.499,-0.151C0.484,-0.099 0.459,-0.061 0.425,-0.036C0.391,-0.012 0.344,-0 0.285,-0L0.048,-0L0.048,-0.727L0.285,-0.727ZM0.285,-0.096C0.318,-0.096 0.345,-0.105 0.364,-0.121C0.383,-0.137 0.397,-0.165 0.405,-0.203C0.413,-0.241 0.417,-0.295 0.417,-0.364C0.417,-0.433 0.413,-0.486 0.405,-0.525C0.397,-0.563 0.383,-0.59 0.364,-0.606C0.345,-0.623 0.318,-0.631 0.285,-0.631L0.153,-0.631L0.153,-0.096L0.285,-0.096Z" style="fill:rgb(22,179,56);fill-rule:nonzero;"/>
                </g>
            </g>
        </g>
    </g>
</svg>
