<?xml version="1.0" encoding="UTF-8" standalone="no"?>
<!DOCTYPE svg PUBLIC "-//W3C//DTD SVG 1.1//EN" "http://www.w3.org/Graphics/SVG/1.1/DTD/svg11.dtd">
<svg width="131px" height="296px" version="1.1" xmlns="http://www.w3.org/2000/svg" xmlns:xlink="http://www.w3.org/1999/xlink" xml:space="preserve" xmlns:serif="http://www.serif.com/" style="fill-rule:evenodd;clip-rule:evenodd;stroke-linecap:round;stroke-linejoin:round;stroke-miterlimit:1.5;">
    <g transform="matrix(1,0,0,1,-152.919,-82.8157)">
        <g transform="matrix(1.92183e-17,-0.313859,0.470788,2.88275e-17,-14.5853,431.136)">
            <path d="M400,400L700,600L1000,400" style="fill:none;stroke:rgb(22,179,56);stroke-width:9.81px;"/>
        </g>
        <g transform="matrix(0.470788,0,0,0.470788,-14.5853,23.12)">
            <g transform="matrix(2.1241,-0,-0,2.1241,355.796,126.799)">
                <path d="M26.696,267.502L20.811,279.272L14.926,267.502L26.696,267.502Z" style="fill:rgb(128,128,128);"/>
                <path d="M20.811,222.777L20.811,269.856" style="fill:none;stroke:rgb(128,128,128);stroke-width:3.92px;"/>
            </g>
        </g>
        <g transform="matrix(2.88275e-17,-0.470788,0.470788,2.88275e-17,-14.5853,493.908)">
            <circle cx="400" cy="400" r="20" style="fill:rgb(232,68,65);"/>
        </g>
        <g transform="matrix(2.88275e-17,-0.470788,0.470788,2.88275e-17,79.5723,399.75)">
            <circle cx="400" cy="400" r="20" style="fill:rgb(22,179,56);"/>
        </g>
        <g transform="matrix(2.88275e-17,-0.470788,0.470788,2.88275e-17,-14.5853,305.593)">
            <circle cx="400" cy="400" r="20" style="fill:rgb(232,68,65);"/>
        </g>
        <g transform="matrix(1.39601e-17,-0.313859,0.470788,3.40856e-17,-14.5853,431.136)">
            <path d="M400,400L1000,400" style="fill:none;stroke:rgb(232,68,65);stroke-width:9.81px;"/>
        </g>
        <g transform="matrix(0.470788,0,0,0.470788,-167.647,-5.12723)">
            <g transform="matrix(41.8814,0,0,41.8814,680,220)">
                <path d="M0.022,-0L0.022,-0.562L0.126,-0.562L0.126,-0.565C0.154,-0.571 0.175,-0.574 0.192,-0.574C0.215,-0.574 0.233,-0.57 0.246,-0.564C0.259,-0.558 0.272,-0.546 0.284,-0.528C0.299,-0.546 0.315,-0.558 0.33,-0.564C0.344,-0.57 0.365,-0.574 0.39,-0.574C0.425,-0.574 0.451,-0.567 0.47,-0.552C0.49,-0.538 0.503,-0.514 0.511,-0.481C0.52,-0.448 0.524,-0.401 0.524,-0.342L0.524,-0L0.419,-0L0.419,-0.342C0.419,-0.39 0.417,-0.424 0.412,-0.442C0.407,-0.46 0.398,-0.469 0.385,-0.469C0.369,-0.469 0.358,-0.466 0.349,-0.459C0.341,-0.452 0.335,-0.44 0.331,-0.423C0.327,-0.406 0.325,-0.382 0.325,-0.352L0.325,-0L0.221,-0L0.221,-0.336C0.221,-0.387 0.218,-0.421 0.213,-0.44C0.208,-0.46 0.199,-0.469 0.186,-0.469C0.171,-0.469 0.158,-0.466 0.15,-0.459C0.142,-0.452 0.135,-0.44 0.132,-0.423C0.128,-0.406 0.126,-0.382 0.126,-0.352L0.126,-0L0.022,-0Z" style="fill:rgb(232,68,65);fill-rule:nonzero;"/>
            </g>
            <g transform="matrix(41.8814,0,0,41.8814,702.844,220)">
                <path d="M0.249,0.013C0.196,0.013 0.153,0.007 0.121,-0.005C0.09,-0.018 0.067,-0.037 0.052,-0.062C0.038,-0.088 0.031,-0.122 0.031,-0.165C0.031,-0.214 0.038,-0.251 0.052,-0.278C0.066,-0.304 0.088,-0.323 0.12,-0.333C0.151,-0.344 0.194,-0.349 0.249,-0.349L0.364,-0.349L0.364,-0.369C0.364,-0.395 0.36,-0.414 0.354,-0.428C0.348,-0.442 0.336,-0.452 0.32,-0.458C0.304,-0.463 0.28,-0.466 0.249,-0.466C0.224,-0.466 0.204,-0.464 0.191,-0.459C0.178,-0.453 0.167,-0.444 0.16,-0.431C0.153,-0.418 0.146,-0.397 0.139,-0.37L0.039,-0.395C0.05,-0.438 0.064,-0.472 0.08,-0.498C0.096,-0.524 0.118,-0.543 0.145,-0.556C0.173,-0.568 0.207,-0.575 0.249,-0.575C0.328,-0.575 0.384,-0.558 0.418,-0.524C0.451,-0.49 0.468,-0.439 0.468,-0.369L0.468,-0.156C0.468,-0.132 0.471,-0.115 0.475,-0.107C0.48,-0.099 0.491,-0.095 0.506,-0.095C0.511,-0.095 0.522,-0.096 0.539,-0.097L0.539,-0.001C0.532,-0 0.522,-0 0.509,-0C0.456,-0 0.42,-0.012 0.4,-0.036C0.384,-0.019 0.363,-0.006 0.339,0.001C0.315,0.009 0.285,0.013 0.249,0.013ZM0.249,-0.084C0.28,-0.084 0.304,-0.087 0.32,-0.095C0.336,-0.102 0.348,-0.114 0.354,-0.132C0.36,-0.149 0.364,-0.175 0.364,-0.208L0.364,-0.253L0.249,-0.253C0.215,-0.253 0.19,-0.251 0.175,-0.248C0.161,-0.244 0.151,-0.237 0.145,-0.225C0.138,-0.213 0.135,-0.193 0.135,-0.165C0.135,-0.143 0.138,-0.126 0.145,-0.115C0.151,-0.104 0.162,-0.096 0.178,-0.091C0.194,-0.086 0.218,-0.084 0.249,-0.084Z" style="fill:rgb(232,68,65);fill-rule:nonzero;"/>
            </g>
            <g transform="matrix(41.8814,0,0,41.8814,725.689,220)">
                <path d="M0.349,-0.562L0.349,-0.096L0.508,-0.096L0.508,-0L0.085,-0L0.085,-0.096L0.245,-0.096L0.245,-0.465L0.13,-0.465L0.13,-0.562L0.349,-0.562ZM0.28,-0.644C0.25,-0.644 0.229,-0.649 0.218,-0.66C0.207,-0.67 0.201,-0.69 0.201,-0.718C0.201,-0.747 0.207,-0.766 0.218,-0.777C0.229,-0.787 0.25,-0.793 0.28,-0.793C0.31,-0.793 0.331,-0.787 0.343,-0.777C0.354,-0.766 0.36,-0.747 0.36,-0.718C0.36,-0.69 0.354,-0.67 0.343,-0.66C0.331,-0.649 0.31,-0.644 0.28,-0.644Z" style="fill:rgb(232,68,65);fill-rule:nonzero;"/>
            </g>
            <g transform="matrix(41.8814,0,0,41.8814,748.533,220)">
                <path d="M0.06,-0L0.06,-0.562L0.165,-0.562L0.165,-0.548C0.203,-0.566 0.247,-0.575 0.298,-0.575C0.35,-0.575 0.39,-0.567 0.418,-0.553C0.446,-0.539 0.466,-0.515 0.478,-0.481C0.49,-0.448 0.496,-0.4 0.496,-0.339L0.496,-0L0.391,-0L0.391,-0.339C0.391,-0.375 0.388,-0.403 0.382,-0.423C0.377,-0.443 0.367,-0.457 0.354,-0.465C0.341,-0.474 0.322,-0.478 0.298,-0.478C0.259,-0.478 0.23,-0.475 0.211,-0.468C0.193,-0.461 0.18,-0.448 0.174,-0.431C0.168,-0.413 0.165,-0.386 0.165,-0.349L0.165,-0L0.06,-0Z" style="fill:rgb(232,68,65);fill-rule:nonzero;"/>
            </g>
        </g>
        <g transform="matrix(0.470788,0,0,0.470788,-68.5868,80.5388)">
            <g transform="matrix(41.8814,0,0,41.8814,680,220)">
                <path d="M0.268,0.013C0.212,0.013 0.167,0.003 0.135,-0.017C0.103,-0.037 0.079,-0.068 0.065,-0.11C0.051,-0.152 0.044,-0.209 0.044,-0.28C0.044,-0.352 0.051,-0.408 0.065,-0.451C0.079,-0.493 0.103,-0.525 0.135,-0.545C0.167,-0.565 0.212,-0.575 0.268,-0.575C0.311,-0.575 0.352,-0.567 0.39,-0.553L0.39,-0.727L0.495,-0.727L0.495,-0L0.39,-0L0.39,-0.006C0.355,0.006 0.314,0.013 0.268,0.013ZM0.268,-0.084C0.31,-0.084 0.341,-0.088 0.36,-0.098C0.38,-0.107 0.39,-0.12 0.39,-0.136L0.39,-0.351C0.39,-0.395 0.38,-0.427 0.361,-0.447C0.342,-0.468 0.311,-0.478 0.268,-0.478C0.237,-0.478 0.212,-0.472 0.195,-0.46C0.178,-0.448 0.166,-0.428 0.159,-0.4C0.152,-0.371 0.148,-0.332 0.148,-0.28C0.148,-0.228 0.152,-0.189 0.159,-0.161C0.166,-0.133 0.178,-0.113 0.195,-0.101C0.212,-0.09 0.237,-0.084 0.268,-0.084Z" style="fill:rgb(22,179,56);fill-rule:nonzero;"/>
            </g>
            <g transform="matrix(41.8814,0,0,41.8814,702.844,220)">
                <path d="M0.275,-0.575C0.334,-0.575 0.38,-0.564 0.413,-0.542C0.446,-0.521 0.47,-0.487 0.483,-0.44C0.497,-0.394 0.503,-0.332 0.502,-0.253L0.141,-0.253C0.143,-0.209 0.148,-0.175 0.157,-0.151C0.166,-0.127 0.179,-0.109 0.198,-0.099C0.217,-0.089 0.243,-0.084 0.275,-0.084C0.299,-0.084 0.318,-0.086 0.333,-0.09C0.348,-0.095 0.362,-0.103 0.374,-0.115C0.387,-0.127 0.401,-0.145 0.418,-0.168L0.502,-0.113C0.472,-0.066 0.44,-0.033 0.406,-0.015C0.373,0.003 0.329,0.013 0.275,0.013C0.215,0.013 0.168,0.003 0.133,-0.017C0.098,-0.037 0.073,-0.068 0.058,-0.111C0.043,-0.153 0.035,-0.21 0.035,-0.281C0.035,-0.352 0.043,-0.408 0.058,-0.451C0.073,-0.493 0.098,-0.525 0.133,-0.545C0.168,-0.565 0.215,-0.575 0.275,-0.575ZM0.395,-0.349C0.391,-0.382 0.385,-0.408 0.377,-0.426C0.369,-0.445 0.357,-0.458 0.34,-0.466C0.324,-0.474 0.303,-0.478 0.275,-0.478C0.245,-0.478 0.221,-0.474 0.203,-0.466C0.185,-0.458 0.171,-0.445 0.161,-0.426C0.152,-0.408 0.146,-0.382 0.143,-0.349L0.395,-0.349Z" style="fill:rgb(22,179,56);fill-rule:nonzero;"/>
            </g>
            <g transform="matrix(41.8814,0,0,41.8814,725.689,220)">
                <path d="M0.319,-0L0.225,-0L0.022,-0.562L0.129,-0.562L0.272,-0.155L0.415,-0.562L0.523,-0.562L0.319,-0Z" style="fill:rgb(22,179,56);fill-rule:nonzero;"/>
            </g>
        </g>
    </g>
</svg>
